<svg xmlns:xlink="http://www.w3.org/1999/xlink" xmlns="http://www.w3.org/2000/svg" version="1.0" width="1200" height="900" viewBox="0 0 1200.000000 900.000000" preserveAspectRatio="xMidYMid meet">
<g transform="translate(0.000000,900.000000) scale(0.100000,-0.100000)" fill="#000000" stroke="none">
<path d="M10874 8701 c-108 -37 -172 -106 -212 -232 -15 -44 -16 -401 -2 -415 6 -6 6 -21 -2 -42 -9 -24 -10 -37 -1 -50 6 -10 7 -25 3 -33 -4 -8 -11 -412 -14 -899 -4 -487 -11 -1009 -17 -1160 -5 -151 -12 -462 -14 -690 -3 -228 -8 -425 -10 -437 -6 -24 -33 -31 -40 -10 -2 6 -11 38 -20 70 -29 100 6 93 -493 101 l-437 8 -25 23 c-24 22 -33 23 -202 27 -132 2 -180 0 -189 -9 -7 -7 -34 -13 -60 -13 -62 0 -81 -23 -97 -123 -14 -80 -29 -98 -58 -70 -14 15 -15 36 -9 182 l7 165 -33 28 -34 28 33 28 c30 25 32 31 32 88 0 108 125 96 -1168 106 -620 4 -1320 9 -1557 11 l-430 2 2 113 c2 63 5 118 9 123 3 5 42 9 88 9 68 0 86 3 99 18 15 17 17 74 17 610 0 462 -3 593 -12 599 -7 4 -53 10 -103 13 l-90 5 -5 203 c-5 199 -6 204 -29 223 -23 19 -74 19 -2266 19 -2121 0 -2244 -1 -2264 -17 l-21 -18 0 -1429 c0 -786 2 -1432 5 -1434 13 -13 -19 -31 -46 -25 -18 3 -38 0 -54 -11 -21 -14 -25 -24 -25 -70 0 -65 19 -86 78 -86 l42 0 2 -1412 3 -1412 25 -13 c20 -10 488 -12 2267 -10 2138 2 2243 3 2260 20 17 17 18 84 23 1250 l5 1232 1555 2 c1448 3 1556 4 1568 20 21 29 15 79 -13 101 -31 25 -31 27 1 65 23 28 25 36 19 84 -8 64 0 93 25 93 27 0 40 -30 40 -90 0 -86 34 -130 102 -130 19 0 39 -5 46 -12 8 -8 70 -13 187 -16 155 -4 178 -3 202 13 24 16 57 18 367 16 188 0 382 -4 431 -7 112 -6 133 3 158 71 17 46 39 75 59 75 4 0 8 -40 8 -89 l0 -89 40 -36 c22 -19 50 -37 62 -40 13 -2 48 -10 78 -16 57 -12 370 -9 443 5 23 4 53 21 74 41 l36 34 -8 698 c-4 383 -11 1271 -15 1972 -11 1870 -10 1826 -38 1880 -32 66 -78 117 -125 143 -96 50 -174 58 -263 28z m210 -52 c79 -37 124 -91 155 -188 10 -32 16 -371 7 -371 -3 0 -17 5 -33 11 -140 55 -359 52 -495 -6 -17 -7 -18 6 -18 183 0 117 4 193 10 197 6 3 10 14 10 23 0 33 74 114 130 143 71 37 167 40 234 8z m86 -573 c45 -13 58 -22 69 -47 16 -37 12 -43 -23 -29 -134 51 -352 51 -480 1 -34 -14 -55 -1 -34 20 8 8 17 21 20 30 5 14 52 28 138 43 53 10 257 -2 310 -18z m-1 -102 c29 -7 59 -21 66 -30 13 -18 17 -373 31 -2871 l7 -1082 -24 -4 c-58 -11 -186 -25 -209 -22 -14 1 -78 6 -143 10 -105 6 -121 10 -147 32 l-30 25 0 386 c-1 415 1 402 -54 437 l-28 19 7 80 c14 153 24 658 50 2462 6 390 11 515 21 528 36 50 306 67 453 30z m-9861 -715 c-16 -9 -18 -28 -17 -167 0 -86 4 -177 8 -202 6 -37 9 -19 16 95 5 77 9 163 9 190 l1 50 230 8 c138 4 239 4 255 -2 23 -9 21 -9 -17 -10 -32 -1 -48 -8 -72 -32 l-31 -31 0 -1249 0 -1249 -40 0 c-36 0 -40 3 -40 24 0 30 -24 56 -51 56 -11 0 -23 10 -28 24 -11 28 -29 36 -82 36 -50 0 -79 -15 -79 -40 0 -14 -7 -20 -24 -20 -23 0 -25 4 -32 83 l-8 82 -12 -85 c-9 -67 -12 176 -13 1176 0 693 2 1264 6 1267 3 4 13 7 22 7 14 -1 13 -2 -1 -11z m4476 -231 c-5 -134 -9 -556 -9 -938 l0 -695 -37 -3 c-32 -3 -38 0 -38 17 0 30 -19 36 -29 9 l-10 -23 0 23 c-1 31 -31 29 -31 -3 l0 -25 -145 0 -145 0 0 878 c0 854 -1 878 -20 909 -11 18 -31 35 -47 39 -57 15 9 19 242 16 l235 -3 0 -47 c0 -26 3 -58 7 -70 10 -40 23 -3 23 69 0 52 -4 68 -16 73 -9 3 -121 6 -249 6 -210 0 -239 -2 -285 -20 -49 -19 -76 -20 -1697 -20 -1569 1 -1648 2 -1677 19 -27 16 -60 18 -271 20 -132 2 -242 5 -244 7 -2 2 998 4 2224 4 l2228 0 -9 -242z m-503 146 c11 -14 14 -290 16 -1638 2 -1145 0 -1629 -8 -1648 -6 -14 -21 -29 -34 -32 -28 -7 -943 -6 -962 1 -10 4 -13 41 -13 168 0 176 -3 187 -60 198 -16 3 -8 5 19 6 25 0 52 7 60 15 13 12 96 15 482 18 367 2 469 6 482 16 14 12 15 124 14 1165 l-2 1152 -65 6 c-36 4 -817 7 -1736 8 -1330 1 -1674 -2 -1687 -12 -15 -11 -17 -28 -15 -127 l3 -115 10 105 10 105 1726 3 1726 2 7 -31 c3 -17 6 -455 6 -973 0 -739 -3 -945 -12 -957 -11 -12 -82 -13 -483 -9 l-470 5 460 5 460 5 3 949 c1 523 -1 953 -5 957 -5 4 -768 9 -1696 11 -1492 3 -1689 1 -1697 -12 -11 -16 -14 -1867 -4 -1894 5 -13 26 -16 132 -16 69 0 123 -2 121 -5 -6 -5 -257 -8 -279 -3 -8 1 -15 -4 -15 -12 0 -11 14 -14 60 -15 33 0 252 -1 488 -3 l427 -2 0 -135 0 -135 -472 2 -473 3 -6 105 c-7 121 -6 113 -19 105 -6 -4 -10 -53 -10 -115 0 -103 1 -110 23 -123 17 -11 117 -14 492 -16 394 -2 472 -4 486 -16 8 -8 35 -16 60 -16 27 -1 34 -4 18 -6 -53 -8 -58 -25 -61 -204 l-3 -164 -507 0 c-474 0 -508 1 -525 18 -17 17 -18 83 -23 1230 -3 667 -3 1402 0 1634 5 407 6 423 25 437 18 14 225 15 1766 16 1605 0 1748 -1 1760 -16z m720 -356 c5 -66 -4 -1135 -9 -1140 -4 -3 -47 -8 -97 -10 l-90 -3 -2 115 c-1 63 1 325 4 583 l6 467 94 0 c67 0 93 -3 94 -12z m-2460 -328 l1649 0 -2 -922 -3 -923 -1665 0 -1665 0 -3 915 c-1 503 0 921 3 929 3 7 12 10 21 7 9 -3 758 -6 1665 -6z m3254 -1155 c209 -3 774 -7 1255 -8 l875 -2 6 -50 c5 -36 3 -54 -8 -65 -13 -13 -15 -13 -23 0 -26 45 -39 54 -75 54 -29 0 -43 -7 -61 -28 -32 -37 -30 -71 5 -107 33 -32 65 -37 98 -14 20 14 23 13 45 -13 19 -23 23 -39 23 -92 l0 -65 -343 -1 c-259 0 -345 -3 -351 -12 -4 -7 -9 -171 -10 -366 -2 -308 0 -354 13 -366 12 -9 94 -14 320 -18 262 -4 307 -3 335 11 l31 15 0 -52 c0 -42 -5 -57 -21 -72 -16 -14 -23 -16 -26 -6 -3 7 -18 19 -33 27 -25 13 -33 13 -62 0 -32 -13 -58 -49 -58 -79 0 -8 13 -28 29 -45 35 -38 69 -40 108 -7 22 18 33 22 46 15 20 -11 23 -59 5 -60 -7 0 -614 0 -1348 -1 -734 0 -1536 -3 -1783 -6 l-447 -7 0 140 0 141 42 -4 c34 -4 44 0 59 19 10 13 19 36 19 50 0 47 -75 101 -95 69 -16 -25 -25 -5 -25 55 0 62 1 65 19 55 30 -16 46 -12 75 16 32 33 34 72 5 103 -18 19 -29 22 -60 18 l-37 -5 -4 55 c-3 57 4 84 16 64 12 -19 56 -12 82 14 34 34 30 80 -9 109 -23 17 -32 19 -57 9 -17 -6 -30 -8 -30 -5 -8 113 -1 147 23 123 18 -18 42 -13 71 14 30 28 34 64 9 101 -14 22 -22 25 -60 22 l-43 -3 -4 139 -4 139 541 -7 c298 -3 713 -8 922 -11z m2063 -117 c7 -7 12 -21 12 -33 0 -12 -5 -26 -12 -33 -7 -7 -21 -12 -33 -12 -12 0 -26 5 -33 12 -7 7 -12 21 -12 33 0 12 5 26 12 33 7 7 21 12 33 12 12 0 26 -5 33 -12z m-3440 -188 c22 -35 -13 -77 -49 -59 -24 12 -31 37 -16 59 15 26 49 25 65 0z m4135 -115 c44 -18 6 -25 -132 -25 -159 0 -181 3 -181 28 0 13 19 14 148 9 81 -3 155 -8 165 -12z m-1253 -14 c0 -5 -7 -14 -15 -21 -11 -9 -15 -27 -13 -59 4 -57 21 -60 28 -6 3 22 10 48 16 59 14 23 60 24 82 2 15 -15 14 -16 -9 -16 -14 0 -34 -9 -45 -21 -18 -20 -19 -36 -16 -248 l4 -227 -36 -28 -36 -27 0 294 c0 161 3 297 7 300 9 10 33 9 33 -2z m477 -16 c-7 -14 -20 -25 -30 -25 -41 0 -7 -25 41 -30 28 -3 57 -12 64 -19 11 -11 -25 -12 -219 -7 -224 7 -233 6 -252 -13 -22 -22 -36 -12 -26 19 5 15 15 20 45 20 48 0 56 11 36 50 l-14 30 183 0 183 0 -11 -25z m163 -34 c0 -33 -4 -62 -9 -66 -14 -8 -31 28 -31 67 0 19 -5 39 -12 46 -9 9 -5 12 20 12 l32 0 0 -59z m280 25 c17 -45 31 -221 29 -366 -2 -187 -7 -255 -29 -368 -13 -66 -19 -71 -80 -68 -29 1 -35 4 -32 21 1 11 8 56 15 100 14 93 17 585 3 658 l-8 47 46 0 c40 0 48 -3 56 -24z m-350 -5 c15 -30 13 -33 -22 -26 -72 14 -74 16 -47 31 34 19 57 17 69 -5z m805 -14 c22 -19 30 -38 41 -107 26 -164 13 -466 -26 -603 -13 -46 -42 -77 -71 -77 -18 0 -20 4 -14 28 50 197 58 522 18 750 -7 40 13 43 52 9z m-576 -64 c1 -27 -3 -33 -20 -33 -15 0 -19 5 -16 18 3 9 9 35 13 57 6 37 8 38 14 15 5 -14 8 -40 9 -57z m1066 65 c180 -6 323 -16 327 -21 3 -6 14 -42 24 -81 14 -56 18 -110 18 -256 0 -175 -9 -265 -37 -368 -20 -73 -11 -71 -297 -61 -140 4 -308 8 -372 9 l-118 0 14 38 c32 85 41 168 41 387 0 214 -11 317 -38 353 -12 16 28 16 438 0z m-585 -17 c23 -43 18 -44 -147 -38 -86 3 -161 11 -166 16 -5 5 -7 17 -4 25 5 14 29 16 156 16 138 0 151 -2 161 -19z m1098 -66 c7 -22 12 -57 10 -79 l-3 -40 -26 25 c-23 22 -25 30 -21 82 5 67 20 71 40 12z m-5258 -5 c15 -29 -22 -65 -51 -50 -27 15 -34 37 -19 55 18 21 57 19 70 -5z m3478 -10 c17 -18 18 -38 15 -267 -2 -160 -7 -251 -14 -260 -9 -10 -64 -13 -254 -13 l-244 0 -20 26 c-20 25 -21 39 -21 246 0 208 1 221 21 246 l21 27 236 5 c131 3 238 7 239 8 1 1 11 -7 21 -18z m698 -27 l4 -33 -160 0 -160 0 0 35 0 36 156 -3 157 -3 3 -32z m-8101 17 c4 -6 -13 -10 -44 -10 -28 0 -51 5 -51 10 0 6 20 10 44 10 25 0 48 -4 51 -10z m7613 -177 c5 -132 -4 -281 -18 -303 -13 -21 -94 7 -84 29 16 38 25 166 20 281 l-6 126 33 9 c45 14 50 1 55 -142z m-7532 -181 c2 -252 0 -305 -12 -317 -11 -10 -42 -14 -124 -14 -61 0 -117 2 -125 5 -13 5 -15 51 -15 320 l0 313 83 3 c45 2 107 1 136 -2 l55 -5 2 -303z m7408 296 c10 -39 7 -294 -5 -348 -21 -97 -29 -51 -29 160 0 172 2 210 14 210 7 0 16 -10 20 -22z m1618 -35 c20 -60 17 -324 -6 -390 -16 -48 -31 -71 -41 -61 -2 2 3 53 11 113 11 78 14 149 9 243 -6 137 2 166 27 95z m-998 -28 l-1 -40 -74 -3 c-41 -1 -112 1 -159 5 -79 7 -85 10 -88 31 -8 52 -4 53 165 50 l158 -3 -1 -40z m1066 -37 c0 -35 -2 -39 -15 -28 -9 7 -15 29 -15 52 0 35 2 39 15 28 9 -7 15 -29 15 -52z m-8982 20 c-2 -17 -11 -24 -32 -26 -16 -2 -32 2 -36 9 -14 22 1 39 37 39 30 0 34 -3 31 -22z m930 -5 c-86 -2 -230 -2 -320 0 -90 1 -19 3 157 3 176 0 249 -2 163 -3z m1659 -27 c13 -5 12 -267 -2 -298 -7 -17 -52 -18 -740 -18 -659 0 -733 2 -739 16 -10 26 -7 289 3 300 10 9 1453 9 1478 0z m977 -18 c0 -10 -1 -72 -2 -138 l-2 -120 -465 0 -465 0 0 135 0 135 398 3 c575 4 537 5 536 -15z m-3564 -88 l0 -80 -35 0 -35 0 0 80 0 80 35 0 35 0 0 -80z m3726 55 c12 -48 -44 -77 -66 -35 -15 28 4 60 35 60 18 0 26 -7 31 -25z m4190 -16 c1 -31 -2 -39 -13 -35 -8 3 -79 6 -158 6 -152 0 -160 3 -148 49 5 20 11 21 162 21 l156 0 1 -41z m1061 -86 c-2 -21 -4 -6 -4 32 0 39 2 55 4 38 2 -18 2 -50 0 -70z m-1201 27 c102 0 123 -3 128 -16 5 -14 -9 -15 -146 -9 -84 4 -157 10 -162 12 -14 9 18 24 39 18 11 -2 75 -5 141 -5z m3 -60 l137 0 -4 -35 -4 -35 -157 2 -156 3 -3 29 c-4 30 13 49 36 41 8 -3 75 -5 151 -5z m-8205 -80 c0 -34 -2 -35 -42 -38 l-42 -3 0 41 0 41 42 -3 c40 -3 42 -4 42 -38z m426 -5 c0 -45 0 -45 -35 -45 -28 0 -36 4 -40 23 -4 18 -2 43 4 65 1 1 17 2 36 2 35 0 35 0 35 -45z m8980 -20 c0 -63 -1 -65 -25 -65 -29 0 -29 -1 -14 73 17 82 39 77 39 -8z m-5254 -39 c-8 -32 -45 -35 -64 -6 -13 22 -3 54 20 63 23 8 51 -28 44 -57z m2914 33 c0 -38 -24 -35 -28 4 -2 19 1 27 12 27 11 0 16 -10 16 -31z m1258 -26 l-3 -38 -155 4 c-85 2 -157 5 -158 6 -2 2 -1 17 3 34 l7 31 154 0 155 0 -3 -37z m-5445 -50 c13 -16 29 -23 52 -23 19 0 37 -6 42 -12 4 -7 8 -84 9 -170 0 -114 4 -161 14 -173 11 -14 68 -15 513 -15 l500 1 13 -30 c23 -56 85 -68 128 -25 27 27 36 86 16 99 -5 3 -10 13 -10 21 0 11 15 14 65 14 50 0 65 -3 65 -14 0 -8 -4 -18 -10 -21 -5 -3 -10 -24 -10 -45 0 -73 82 -106 134 -54 30 31 34 72 10 109 l-16 25 66 0 66 0 0 -1229 c0 -1111 -2 -1229 -16 -1235 -9 -3 -1017 -6 -2241 -6 -1914 0 -2226 2 -2239 14 -12 13 -14 201 -14 1312 0 714 2 1295 5 1292 3 -3 6 -585 5 -1293 0 -953 3 -1291 11 -1301 10 -12 357 -14 2233 -14 1715 0 2225 3 2234 12 9 9 12 286 12 1187 0 1050 -4 1237 -22 1201 -2 -3 -5 -536 -8 -1185 l-5 -1180 -2207 -3 c-1764 -2 -2208 0 -2207 10 4 75 -13 2493 -17 2521 -6 36 -6 37 24 37 21 0 31 -6 35 -20 4 -17 14 -20 71 -20 55 0 68 3 78 20 7 11 22 20 34 20 30 0 59 37 59 74 0 29 3 31 38 34 l37 3 0 -110 0 -111 -158 0 c-110 0 -162 -4 -170 -12 -9 -9 -12 -100 -12 -349 0 -294 2 -340 16 -353 13 -13 44 -16 178 -16 113 0 166 4 174 12 7 7 12 38 12 69 0 41 4 58 15 63 10 4 15 20 15 51 0 31 -5 47 -15 51 -13 5 -15 37 -15 201 l0 195 23 -8 c12 -5 250 -10 530 -11 l508 -3 24 24 c24 24 24 28 24 173 -1 81 -1 154 0 161 0 6 14 12 31 12 20 0 34 8 44 23 l15 22 598 0 598 0 18 -22z m4947 -6 c0 -18 -7 -42 -15 -53 -13 -18 -14 -16 -15 27 0 25 3 49 7 52 14 15 23 5 23 -26z m-7402 -4 c3 -20 -1 -23 -32 -23 -40 0 -53 14 -35 36 19 23 63 14 67 -13z m9002 -86 c0 -46 -2 -86 -5 -89 -3 -3 -15 -3 -28 -1 -21 4 -22 9 -19 76 4 89 6 97 32 97 18 0 20 -6 20 -83z m-1116 65 c3 -5 2 -22 -3 -38 l-7 -29 -150 4 c-82 1 -152 6 -156 10 -3 3 -4 18 -1 34 l5 27 154 0 c84 0 155 -4 158 -8z m-105 -102 c82 0 92 -2 81 -15 -10 -12 -42 -15 -166 -15 -85 0 -154 2 -154 4 0 2 3 12 7 21 5 15 16 17 72 11 36 -3 108 -6 160 -6z m-613 -27 c14 -53 -60 -79 -80 -28 -10 28 12 55 44 55 24 0 31 -5 36 -27z m-7383 -20 c-13 -2 -35 -2 -50 0 -16 2 -5 4 22 4 28 0 40 -2 28 -4z m9256 -50 c13 -9 38 -19 55 -24 30 -7 30 -7 -9 -7 -46 -1 -107 19 -113 36 -6 18 40 15 67 -5z m279 -50 c-27 -2 -69 -2 -95 0 -27 2 -5 3 47 3 52 0 74 -1 48 -3z m-9316 -43 c2 -5 2 -154 0 -330 l-3 -320 -49 0 c-50 0 -61 8 -37 28 7 6 14 26 15 44 3 37 9 45 37 50 19 3 20 11 20 203 l0 200 -25 4 c-31 4 -40 17 -40 62 0 48 -15 59 -77 59 -59 0 -66 -7 -78 -82 -5 -31 -10 -37 -33 -40 l-27 -3 0 -200 0 -200 27 -3 c23 -3 28 -9 33 -40 3 -20 10 -45 16 -54 14 -28 12 -29 -38 -26 l-48 3 -3 315 c-1 173 0 320 3 327 6 16 301 19 307 3z m3698 -30 c24 -24 25 -38 3 -62 -20 -22 -46 -23 -67 -2 -22 21 -20 39 6 64 27 25 33 25 58 0z m248 8 c7 -7 12 -27 12 -45 0 -27 -5 -34 -25 -39 -18 -4 -32 -1 -45 11 -24 22 -25 43 -3 67 19 21 44 23 61 6z m-4060 -55 l3 -43 -51 0 c-50 0 -50 0 -44 28 14 63 14 63 52 60 36 -3 37 -4 40 -45z m72 -248 l0 -175 -115 0 -115 0 0 175 0 175 115 0 115 0 0 -175z m-92 -211 c16 -5 22 -14 22 -35 0 -28 -2 -29 -45 -29 -43 0 -45 1 -45 29 0 37 20 47 68 35z"/>
<path d="M10947 4519 c-43 -33 -61 -81 -47 -123 18 -56 55 -86 106 -86 83 0 140 92 102 163 -34 65 -110 87 -161 46z m113 -45 c7 -7 14 -30 14 -50 0 -62 -61 -94 -112 -58 -39 27 -28 44 28 44 38 0 50 4 50 15 0 11 -12 15 -51 15 -42 0 -50 3 -47 17 8 40 83 51 118 17z"/>
<path d="M1374 6988 c-8 -12 -6 -497 2 -510 6 -10 245 -10 261 0 8 5 12 77 13 252 1 135 1 251 1 258 -1 17 -266 17 -277 0z m240 -101 c10 -122 6 -360 -6 -374 -12 -14 -55 -16 -147 -7 l-61 7 0 226 0 226 104 3 103 3 7 -84z"/>
<path d="M1433 6873 c-7 -2 -13 -13 -13 -24 0 -15 4 -17 23 -11 12 5 45 8 72 7 l50 0 3 -104 c3 -115 -2 -127 -55 -137 -28 -5 -39 -2 -59 17 -21 19 -27 21 -34 9 -17 -27 7 -50 53 -50 23 0 52 -3 64 -6 14 -4 28 1 41 14 17 17 19 34 20 138 1 147 -4 154 -92 153 -34 0 -67 -3 -73 -6z"/>
<path d="M1472 6792 c-9 -6 -12 -25 -10 -53 3 -43 4 -44 38 -44 l35 0 0 50 c0 46 -2 50 -25 53 -14 1 -31 -2 -38 -6z"/>
<path d="M1297 6668 c-10 -266 -8 -1691 2 -1707 21 -33 26 62 26 509 0 468 -12 1360 -18 1367 -2 2 -7 -74 -10 -169z"/>
<path d="M1473 6453 c-29 -11 -10 -23 37 -23 52 0 67 13 28 24 -26 7 -48 7 -65 -1z"/>
<path d="M1382 6408 c-15 -18 -20 -414 -6 -428 7 -7 57 -10 140 -8 l129 3 5 213 c3 117 4 217 2 222 -2 6 -10 6 -21 1 -10 -6 -23 -6 -32 0 -7 5 -24 9 -36 9 -17 0 -22 -7 -25 -32 -3 -32 -4 -33 -55 -36 -28 -2 -56 -9 -62 -16 -6 -6 -12 -57 -14 -112 -3 -93 -3 -90 -5 34 l-2 132 30 0 c20 0 30 5 30 15 0 19 -63 21 -78 3z m211 -31 c3 -8 1 -61 -4 -118 -4 -57 -8 -116 -9 -131 l0 -28 -75 0 -75 0 5 108 4 107 54 1 c61 1 79 8 76 32 -4 41 12 59 24 29z m-156 -308 c13 -5 35 -6 49 -3 13 3 30 1 38 -5 15 -12 62 6 77 31 5 8 9 -8 9 -39 l0 -53 -105 0 -105 0 1 58 c1 31 3 49 6 39 3 -10 16 -22 30 -28z"/>
<path d="M1487 6033 c-15 -14 -6 -24 20 -21 34 4 43 28 11 28 -14 0 -28 -3 -31 -7z"/>
<path d="M1533 5643 c-17 -11 -23 -25 -23 -53 0 -58 50 -91 99 -65 46 23 54 66 20 109 -23 30 -62 34 -96 9z m75 -54 c4 -31 -19 -44 -49 -29 -22 12 -24 31 -7 48 21 21 53 10 56 -19z"/>
<path d="M1556 5442 c-33 -7 -47 -29 -44 -69 2 -28 10 -41 29 -52 47 -26 109 6 109 57 -1 48 -40 75 -94 64z m58 -48 c10 -25 7 -31 -14 -37 -27 -7 -60 3 -60 17 0 33 62 50 74 20z"/>
<path d="M1513 5182 c-2 -11 -13 -22 -24 -25 -25 -7 -25 -34 0 -42 11 -3 22 -13 25 -21 5 -13 12 -11 37 14 l32 31 -32 32 c-30 30 -32 30 -38 11z"/>
<path d="M1342 4958 c-16 -16 -15 -53 1 -65 13 -10 63 -11 73 0 3 3 18 -1 31 -10 24 -16 26 -16 39 2 8 10 14 23 14 29 0 6 7 1 15 -12 12 -16 24 -21 48 -18 17 2 33 8 35 15 5 15 29 14 35 -1 7 -23 37 12 37 43 l0 29 -85 -3 c-82 -2 -86 -3 -104 -31 -19 -29 -19 -29 -23 -5 -2 18 -10 24 -33 26 -16 1 -39 4 -51 7 -11 3 -26 0 -32 -6z"/>
<path d="M5470 7162 c-48 -24 -100 -103 -100 -153 0 -181 230 -252 328 -102 33 49 31 140 -4 193 -47 71 -148 99 -224 62z m156 -47 c55 -36 77 -105 52 -162 -16 -35 -27 -46 -69 -72 -40 -25 -64 -26 -110 -7 -67 28 -97 86 -83 161 7 40 52 91 87 98 37 8 96 0 123 -18z"/>
<path d="M5726 6362 c-10 -12 -30 -22 -45 -24 -23 -3 -26 -7 -26 -43 l0 -40 48 -5 c35 -5 47 -3 47 7 0 8 -7 16 -15 19 -19 8 -19 23 1 45 8 9 14 27 12 39 l-3 22 -19 -20z"/>
<path d="M5661 6202 c-12 -4 -15 -58 -3 -66 4 -2 27 -2 50 1 40 5 42 7 42 39 0 32 -1 33 -39 31 -21 0 -44 -3 -50 -5z"/>
<path d="M5695 6100 c-8 -13 4 -32 16 -25 12 8 12 35 0 35 -6 0 -13 -4 -16 -10z"/>
<path d="M5654 6051 c-2 -2 -4 -13 -4 -23 0 -16 5 -18 36 -12 27 5 38 2 48 -11 12 -17 13 -17 20 0 13 36 -1 50 -50 50 -25 0 -48 -2 -50 -4z"/>
<path d="M5650 5946 c0 -8 6 -16 13 -19 9 -3 9 -9 -1 -26 -10 -18 -10 -22 3 -27 8 -4 15 -12 15 -20 0 -8 9 -22 20 -31 l20 -18 -21 -16 c-29 -21 -17 -44 14 -28 45 24 47 43 6 68 -29 18 -30 19 -10 26 16 5 19 12 14 35 -4 22 -1 31 11 36 9 3 16 12 16 20 0 10 -14 14 -50 14 -36 0 -50 -4 -50 -14z"/>
<path d="M5458 5819 c-30 -22 -37 -49 -13 -49 8 0 15 3 15 8 0 10 50 32 75 32 25 0 75 -22 75 -32 0 -5 7 -8 15 -8 26 0 16 30 -17 50 -44 27 -114 26 -150 -1z"/>
<path d="M5493 5760 c-42 -17 -26 -42 18 -30 17 5 40 5 54 0 17 -6 25 -5 29 5 3 8 2 16 -2 19 -18 11 -79 15 -99 6z"/>
<path d="M5730 5730 c0 -5 -18 -10 -41 -10 -33 0 -40 -3 -37 -17 3 -14 11 -17 43 -14 22 1 43 5 48 8 11 6 9 43 -3 43 -5 0 -10 -4 -10 -10z"/>
<path d="M5509 5669 c-9 -17 -8 -25 4 -37 29 -28 73 12 47 43 -17 21 -37 19 -51 -6z"/>
<path d="M5680 5660 c-16 -3 -26 -14 -28 -28 -3 -22 2 -23 86 -13 18 2 14 14 -11 32 -13 9 -32 13 -47 9z"/>
<path d="M5473 5597 c-11 -17 17 -30 64 -29 43 0 60 10 51 29 -4 10 -109 10 -115 0z"/>
<path d="M5682 5548 c4 -59 28 -63 28 -4 0 35 -4 46 -16 46 -12 0 -14 -9 -12 -42z"/>
<path d="M5430 5545 c0 -23 60 -55 105 -55 39 0 105 31 105 48 0 19 -14 20 -46 1 -44 -24 -71 -24 -112 1 -39 24 -52 25 -52 5z"/>
<path d="M3095 7170 c-3 -5 0 -13 8 -16 23 -8 127 0 130 11 3 14 -129 19 -138 5z"/>
<path d="M3355 7171 c-19 -8 -18 -9 6 -15 36 -10 124 -3 122 9 -3 13 -101 17 -128 6z"/>
<path d="M3662 7168 c3 -8 28 -14 66 -16 51 -2 62 0 62 13 0 12 -13 15 -66 15 -48 0 -65 -3 -62 -12z"/>
<path d="M3957 7174 c-15 -15 8 -24 64 -24 44 0 60 3 57 13 -5 13 -109 23 -121 11z"/>
<path d="M3124 7101 c-17 -11 -34 -30 -38 -44 -11 -47 25 -100 76 -110 18 -3 15 -5 -9 -6 -39 -1 -44 -18 -8 -27 36 -9 58 2 50 25 -4 13 2 23 20 35 20 13 25 25 25 56 0 32 -6 43 -33 64 -40 31 -43 31 -83 7z m70 -40 c34 -38 -8 -86 -54 -61 -25 13 -27 55 -2 69 25 15 37 13 56 -8z"/>
<path d="M3404 7101 c-74 -45 -43 -151 43 -151 37 1 71 29 74 60 5 54 -1 71 -33 90 -41 25 -45 25 -84 1z m68 -38 c32 -29 16 -73 -27 -73 -43 0 -58 39 -28 72 20 22 31 23 55 1z"/>
<path d="M3700 7107 c-36 -17 -49 -37 -50 -79 0 -29 6 -41 29 -57 45 -32 85 -28 117 14 24 32 25 38 14 66 -8 17 -27 40 -44 50 -35 22 -33 21 -66 6z m61 -37 c5 0 9 -16 9 -35 0 -29 -4 -36 -25 -41 -27 -7 -65 18 -65 42 0 17 42 46 58 39 8 -3 18 -5 23 -5z"/>
<path d="M3963 7100 c-32 -19 -39 -36 -35 -85 3 -26 50 -65 80 -65 84 0 109 115 33 155 -38 19 -39 19 -78 -5z m68 -30 c26 -15 26 -66 -1 -75 -50 -16 -87 29 -54 66 20 22 28 23 55 9z"/>
<path d="M2884 7096 c-16 -13 -17 -18 -6 -35 15 -26 16 -73 1 -88 -20 -20 -2 -43 35 -43 36 0 50 17 35 41 -5 8 -9 37 -9 65 0 44 -12 74 -30 74 -3 0 -15 -6 -26 -14z"/>
<path d="M4232 7059 c-45 -56 -44 -79 4 -79 17 0 28 -8 34 -26 6 -14 14 -23 19 -20 16 10 33 66 26 83 -5 10 -7 24 -6 32 4 25 -9 61 -22 61 -8 0 -32 -23 -55 -51z"/>
<path d="M1912 7085 c-70 -38 -102 -95 -102 -179 0 -90 32 -137 118 -176 52 -24 88 -25 133 -5 126 55 167 206 83 304 -19 22 -49 47 -66 55 -37 19 -133 20 -166 1z m129 -26 c125 -42 148 -195 42 -276 -28 -22 -46 -27 -89 -27 -136 0 -203 158 -110 262 41 46 98 61 157 41z"/>
<path d="M1922 6995 c-56 -47 -47 -139 17 -182 42 -28 66 -29 109 -3 41 25 65 79 56 126 -14 78 -119 112 -182 59z m122 -26 c20 -16 26 -29 26 -58 0 -48 -28 -75 -77 -75 -68 0 -98 80 -48 129 30 30 64 32 99 4z"/>
<path d="M4966 7070 c-37 -24 -53 -43 -72 -85 -28 -64 -29 -76 -10 -129 40 -114 165 -177 259 -130 80 40 117 97 117 180 0 157 -162 248 -294 164z m161 -15 c49 -21 71 -42 89 -84 29 -68 8 -141 -52 -188 -30 -23 -47 -28 -93 -28 -96 0 -151 57 -151 155 0 73 32 118 105 147 41 16 60 15 102 -2z"/>
<path d="M5001 6995 c-16 -14 -35 -41 -41 -60 -10 -31 -9 -40 12 -77 41 -75 123 -87 180 -26 22 24 28 39 28 75 0 38 -5 50 -34 79 -44 44 -99 47 -145 9z m102 -16 c46 -21 60 -81 28 -120 -24 -29 -91 -33 -118 -6 -28 27 -22 85 11 113 30 27 44 29 79 13z"/>
<path d="M3425 6930 c-8 -12 20 -24 35 -15 6 3 8 11 5 16 -8 12 -32 12 -40 -1z"/>
<path d="M3705 6931 c-7 -13 17 -24 40 -19 9 1 16 8 16 13 0 14 -48 19 -56 6z"/>
<path d="M3965 6930 c-7 -12 39 -24 61 -16 8 3 12 10 9 16 -8 13 -62 13 -70 0z"/>
<path d="M3030 6861 c0 -10 7 -35 15 -55 18 -42 46 -46 55 -7 l5 24 12 -25 c11 -24 17 -25 78 -25 56 0 67 3 76 20 10 18 9 19 -14 13 -15 -3 -29 -1 -33 5 -8 13 16 31 33 24 22 -8 23 12 3 30 -18 16 -23 17 -45 5 -20 -11 -27 -11 -40 0 -13 11 -21 11 -35 2 -12 -7 -21 -8 -25 -2 -4 6 -14 5 -27 -3 -16 -9 -22 -9 -25 1 -7 19 -33 14 -33 -7z m157 -37 c5 -15 -28 -27 -40 -15 -5 5 -6 14 -2 21 8 13 37 9 42 -6z"/>
<path d="M3327 6862 c-21 -23 -22 -65 -2 -82 15 -12 82 -9 104 4 7 4 17 4 24 -2 7 -5 31 -10 55 -11 37 -2 43 1 52 24 18 48 -29 105 -64 76 -7 -6 -16 -7 -20 -3 -4 4 -13 -1 -21 -11 -11 -15 -13 -16 -19 -2 -4 11 -13 14 -30 9 -13 -3 -27 -1 -30 5 -10 16 -31 13 -49 -7z"/>
<path d="M3622 6868 c-5 -7 -10 -32 -9 -55 0 -40 1 -43 28 -43 15 0 31 5 34 10 5 8 11 8 19 0 15 -12 94 -11 102 2 3 5 12 4 20 -3 20 -17 29 -3 16 25 -7 16 -7 27 0 34 15 15 1 47 -15 34 -12 -10 -49 -9 -79 3 -10 4 -24 -1 -36 -13 -18 -18 -19 -18 -31 -1 -13 22 -34 24 -49 7z m143 -37 c3 -6 -3 -15 -14 -20 -27 -15 -31 -14 -31 9 0 21 33 29 45 11z"/>
<path d="M3897 6862 c-21 -23 -21 -27 -1 -46 8 -9 11 -16 5 -16 -6 0 -11 -6 -11 -14 0 -12 17 -15 83 -14 45 0 88 6 96 12 11 8 15 8 18 -1 8 -22 33 -14 33 10 0 34 -23 78 -40 75 -8 -2 -20 -14 -27 -28 -9 -18 -13 -20 -13 -8 0 10 -11 25 -24 33 -20 13 -29 14 -46 5 -16 -9 -25 -9 -33 -1 -15 15 -21 14 -40 -7z m109 -59 c-11 -11 -19 6 -11 24 8 17 8 17 12 0 3 -10 2 -21 -1 -24z"/>
<path d="M1772 6230 c0 -72 1 -73 11 -32 7 29 7 52 -1 75 -9 28 -10 23 -10 -43z"/>
<path d="M1770 6066 c0 -31 5 -56 10 -56 6 0 10 22 10 49 0 28 -4 53 -10 56 -6 4 -10 -15 -10 -49z"/>
<path d="M1778 5994 c-5 -4 -8 -91 -8 -193 0 -126 3 -182 10 -175 7 7 9 78 8 193 -2 101 -6 179 -10 175z"/>
<path d="M1772 5520 c0 -19 2 -27 5 -17 2 9 2 25 0 35 -3 9 -5 1 -5 -18z"/>
<path d="M1770 5016 c0 -14 5 -26 10 -26 6 0 10 9 10 19 0 11 -4 23 -10 26 -6 4 -10 -5 -10 -19z"/>
<path d="M1975 4245 c-5 -2 -22 -6 -37 -9 -34 -8 -94 -59 -114 -97 -17 -33 -19 -131 -3 -162 17 -32 60 -77 91 -93 45 -23 134 -18 183 11 92 54 121 179 61 268 -33 48 -138 96 -181 82z m92 -50 c93 -46 112 -177 37 -250 -34 -34 -62 -45 -109 -45 -116 0 -191 128 -135 229 42 73 134 103 207 66z"/>
<path d="M1944 4155 c-40 -21 -59 -56 -58 -108 2 -59 46 -97 112 -97 40 0 53 5 77 30 23 24 28 39 28 75 0 38 -5 52 -29 76 -37 36 -87 46 -130 24z m106 -47 c44 -48 11 -128 -54 -128 -65 0 -100 80 -56 128 28 30 82 30 110 0z"/>
<path d="M5040 4243 c-107 -18 -190 -140 -159 -233 16 -47 55 -98 93 -121 35 -21 126 -26 173 -8 66 25 113 99 113 179 0 57 -10 81 -49 123 -43 48 -109 70 -171 60z m110 -54 c43 -24 80 -83 80 -127 0 -88 -73 -162 -160 -162 -88 0 -150 63 -150 151 0 127 120 199 230 138z"/>
<path d="M5035 4163 c-54 -14 -92 -86 -74 -140 29 -90 165 -100 208 -16 43 85 -39 181 -134 156z m92 -55 c30 -28 29 -68 -2 -102 -29 -31 -69 -34 -104 -7 -31 24 -34 80 -6 111 25 27 81 27 112 -2z"/>
<path d="M5850 6787 c0 -14 56 -41 69 -33 5 3 12 -2 15 -11 9 -24 29 -1 24 28 -3 22 -9 24 -55 26 -35 1 -53 -2 -53 -10z"/>
<path d="M5852 6731 c2 -7 7 -12 11 -12 12 1 9 15 -3 20 -7 2 -11 -2 -8 -8z"/>
<path d="M5852 6673 c3 -12 12 -17 27 -15 13 1 35 -5 48 -13 21 -14 24 -14 29 0 13 32 -4 45 -56 45 -44 0 -51 -3 -48 -17z"/>
<path d="M5895 6631 c-3 -6 -4 -20 0 -30 4 -13 0 -20 -15 -24 -25 -6 -34 -29 -26 -62 5 -20 13 -25 40 -25 32 0 66 24 66 48 0 6 -10 19 -23 29 -13 10 -21 26 -19 37 5 22 -13 43 -23 27z m19 -96 c-4 -8 -10 -15 -15 -15 -5 0 -9 7 -9 15 0 8 7 15 15 15 9 0 12 -6 9 -15z"/>
<path d="M5852 6448 c3 -31 5 -33 47 -36 45 -3 61 7 61 39 0 26 -26 30 -53 9 -24 -19 -25 -19 -30 0 -9 33 -29 23 -25 -12z"/>
<path d="M5845 6191 c-3 -5 -1 -12 3 -15 5 -3 7 -17 4 -31 -5 -28 0 -30 28 -13 15 10 22 10 32 0 22 -22 39 -15 28 13 -6 15 -6 26 0 30 6 4 10 10 10 16 0 13 -34 11 -48 -3 -9 -9 -15 -9 -24 0 -14 14 -25 15 -33 3z"/>
<path d="M5854 6088 c-4 -6 -2 -14 5 -16 9 -3 9 -7 0 -18 -9 -11 -9 -20 1 -39 10 -19 10 -27 1 -39 -10 -12 -9 -20 5 -42 18 -26 18 -26 28 -5 5 11 17 21 27 21 31 0 32 20 0 26 -32 7 -33 29 -2 37 18 4 36 61 25 78 -8 13 -82 11 -90 -3z"/>
<path d="M5853 5823 c4 -40 8 -49 26 -51 18 -3 20 -6 10 -18 -6 -8 -18 -14 -25 -14 -8 0 -14 -7 -14 -15 0 -21 24 -19 45 5 10 11 26 22 36 25 30 10 23 41 -12 51 -35 10 -39 29 -6 29 13 0 23 7 25 18 3 14 -4 17 -43 17 l-46 0 4 -47z"/>
<path d="M2064 6267 c-2 -7 -3 -58 -2 -113 3 -85 5 -99 21 -102 15 -3 17 5 17 59 0 60 1 62 16 41 19 -28 31 -28 41 1 6 17 9 8 13 -38 4 -44 9 -60 20 -60 12 0 16 20 18 113 2 96 0 112 -13 112 -8 0 -23 -16 -32 -35 -9 -19 -20 -35 -25 -35 -5 0 -16 16 -25 35 -17 36 -40 46 -49 22z"/>
<path d="M2444 6257 c4 -19 1 -26 -14 -30 -22 -6 -28 -37 -6 -37 14 0 26 -29 26 -67 0 -16 -8 -25 -26 -29 -16 -4 -24 -12 -22 -23 5 -25 121 -23 126 2 2 11 -3 17 -17 17 -11 0 -22 4 -25 8 -6 10 -10 142 -5 162 3 9 -5 16 -20 18 -21 3 -23 1 -17 -21z"/>
<path d="M2890 6164 c0 -105 2 -115 18 -112 13 2 18 15 20 56 3 52 14 67 27 35 6 -17 7 -17 19 -1 18 25 26 12 26 -44 0 -41 3 -49 17 -46 14 3 17 18 17 113 1 91 -2 110 -14 113 -10 2 -23 -13 -36 -40 l-21 -43 -22 43 c-12 23 -28 42 -36 42 -12 0 -15 -20 -15 -116z"/>
<path d="M2256 6214 c-25 -25 -19 -33 25 -31 26 1 44 -3 46 -10 3 -9 -7 -13 -30 -13 -35 0 -67 -24 -67 -51 0 -8 7 -25 16 -38 14 -20 22 -22 68 -17 28 3 52 5 54 6 1 0 2 28 2 63 0 53 -4 67 -23 85 -27 26 -69 29 -91 6z m64 -104 c-11 -21 -35 -27 -45 -10 -10 16 4 30 31 30 22 0 23 -3 14 -20z"/>
<path d="M2590 6221 l-35 -6 3 -75 c2 -41 8 -79 12 -84 17 -17 30 7 30 55 0 33 6 56 16 67 15 15 18 14 36 -8 13 -16 17 -32 13 -51 -8 -36 2 -69 21 -69 16 0 17 4 15 82 -2 89 -22 105 -111 89z"/>
<path d="M3493 6223 c-8 -3 -13 -24 -13 -58 0 -60 -19 -87 -45 -65 -10 8 -15 31 -15 67 0 46 -3 54 -17 51 -29 -5 -30 -106 -3 -141 18 -23 28 -26 71 -26 l49 2 0 57 c0 32 2 64 5 72 7 18 -16 47 -32 41z"/>
<path d="M3077 6202 c-24 -26 -23 -113 1 -135 25 -23 84 -22 98 1 18 28 16 113 -3 134 -21 23 -75 23 -96 0z m73 -27 c11 -13 7 -15 -23 -15 -28 0 -35 3 -31 15 4 8 14 15 24 15 10 0 23 -7 30 -15z m8 -67 c-5 -15 -33 -22 -54 -14 -24 9 -6 26 27 26 20 0 29 -4 27 -12z"/>
<path d="M3225 6212 c-3 -3 -5 -41 -5 -84 0 -70 2 -79 18 -76 13 2 18 15 20 60 2 47 6 58 23 63 30 10 37 -3 41 -65 2 -41 7 -55 18 -55 11 0 16 15 18 64 4 82 -11 101 -79 99 -27 0 -51 -3 -54 -6z"/>
<path d="M2404 5967 c-2 -7 -3 -58 -2 -113 2 -80 6 -99 18 -99 11 0 16 13 18 48 4 68 24 62 68 -22 10 -20 22 -25 54 -27 l40 -2 0 48 0 49 48 3 c26 2 47 8 47 13 0 6 -21 11 -47 13 -46 3 -48 5 -48 33 0 29 1 29 55 29 49 0 55 2 55 20 0 19 -5 21 -67 18 l-68 -3 -5 -92 c-3 -50 -8 -94 -11 -98 -7 -7 -49 47 -49 63 0 5 7 15 15 22 20 17 19 65 -2 90 -21 24 -110 29 -119 7z m103 -42 c6 -18 -23 -44 -49 -45 -13 0 -18 8 -18 30 0 27 3 30 30 30 18 0 33 -6 37 -15z"/>
<path d="M2897 5974 c-4 -4 -7 -56 -7 -116 0 -99 2 -109 18 -106 12 2 18 16 22 48 5 42 7 45 35 45 28 0 30 -3 35 -45 3 -31 10 -45 20 -45 12 0 15 19 15 110 0 91 -3 110 -15 110 -10 0 -17 -14 -20 -45 -5 -42 -7 -45 -35 -45 -28 0 -30 3 -35 44 -5 42 -18 60 -33 45z"/>
<path d="M3430 5952 c0 -21 -6 -31 -20 -35 -11 -3 -20 -10 -20 -15 0 -5 9 -12 20 -15 17 -4 20 -14 20 -55 0 -54 20 -82 58 -82 27 0 50 39 31 51 -9 6 -18 3 -26 -8 -15 -19 -21 -8 -25 47 -3 29 1 36 25 48 29 14 28 32 -3 32 -13 0 -20 8 -22 27 -4 40 -38 44 -38 5z"/>
<path d="M3067 5914 c-4 -4 -7 -35 -7 -69 0 -79 16 -97 86 -92 l49 3 0 79 c0 64 -3 80 -15 80 -11 0 -16 -13 -18 -44 -4 -52 -34 -98 -50 -78 -6 7 -12 37 -14 67 -3 50 -15 70 -31 54z"/>
<path d="M3223 5904 c-2 -6 -3 -42 -1 -80 2 -53 6 -69 18 -69 10 0 16 12 18 40 4 55 21 87 46 83 18 -3 21 -11 24 -66 3 -53 6 -63 20 -60 14 3 17 15 16 66 -2 84 -19 103 -87 100 -27 -1 -51 -8 -54 -14z"/>
<path d="M3573 5903 c-32 -22 -33 -103 -1 -133 35 -32 118 -19 118 19 0 14 -32 15 -46 1 -14 -14 -44 -2 -44 17 0 11 10 14 43 11 41 -3 42 -2 45 30 6 63 -60 94 -115 55z m77 -38 c0 -16 -45 -21 -54 -6 -8 12 4 21 31 21 14 0 23 -6 23 -15z"/>
<path d="M3725 5912 c-3 -3 -5 -41 -5 -84 0 -71 2 -78 20 -78 17 0 20 7 20 48 1 68 31 102 60 67 18 -22 40 -18 40 6 0 34 -24 49 -79 48 -28 -1 -53 -4 -56 -7z"/>
<path d="M2732 5863 c2 -14 15 -19 56 -21 52 -3 88 11 76 29 -3 5 -34 9 -70 9 -57 0 -65 -2 -62 -17z"/>
<path d="M4246 5695 c-6 -17 16 -31 33 -21 13 9 2 36 -14 36 -7 0 -16 -7 -19 -15z"/>
<path d="M2407 5694 c-4 -4 -7 -51 -7 -104 0 -109 5 -119 60 -114 78 6 116 112 67 185 -19 29 -29 34 -68 37 -24 2 -48 0 -52 -4z m89 -51 c34 -45 9 -122 -38 -123 -15 0 -18 10 -18 63 0 35 3 67 7 70 12 12 36 7 49 -10z"/>
<path d="M3101 5677 c-6 -14 -18 -30 -27 -35 -19 -10 -11 -32 12 -32 10 0 14 -13 14 -48 0 -50 25 -92 55 -92 16 0 35 30 35 55 0 12 -4 14 -19 5 -29 -15 -31 -14 -31 34 0 36 4 45 21 49 22 6 18 27 -6 27 -7 0 -15 12 -17 27 -4 35 -25 41 -37 10z"/>
<path d="M3225 5688 c-3 -8 -4 -59 -3 -114 2 -80 6 -99 18 -99 11 0 16 13 18 45 3 60 20 92 46 88 18 -3 21 -11 24 -58 3 -73 8 -86 26 -71 17 14 10 129 -9 148 -20 20 -62 26 -71 11 -6 -9 -10 -2 -14 21 -5 36 -26 53 -35 29z"/>
<path d="M3886 5675 c-34 -51 -10 -95 63 -115 14 -3 27 -14 29 -23 3 -13 -4 -17 -31 -17 -22 0 -37 6 -41 15 -3 8 -10 15 -16 15 -20 0 -22 -29 -3 -54 38 -53 133 -20 133 46 0 28 -36 58 -68 58 -23 0 -46 25 -37 40 9 15 51 12 65 -5 16 -19 29 -19 37 1 3 8 -4 25 -17 40 -33 34 -91 34 -114 -1z"/>
<path d="M4400 5683 c0 -9 -10 -27 -22 -40 l-22 -24 22 -6 c19 -5 22 -12 22 -58 0 -76 44 -110 85 -65 20 22 13 62 -7 42 -25 -25 -38 -13 -38 32 0 39 3 45 23 48 12 2 22 8 22 13 0 6 -10 14 -22 20 -14 6 -23 18 -23 32 0 16 -6 23 -20 23 -12 0 -20 -7 -20 -17z"/>
<path d="M2586 5625 c-22 -34 -21 -107 2 -128 27 -24 84 -22 100 3 18 29 6 43 -22 25 -25 -17 -56 -11 -56 11 0 8 16 14 48 16 39 2 48 7 50 24 2 11 -7 32 -18 47 -29 36 -81 38 -104 2z m84 -30 c0 -16 -55 -22 -64 -6 -8 13 5 21 36 21 18 0 28 -5 28 -15z"/>
<path d="M2746 5625 c-16 -24 -16 -26 1 -32 9 -4 19 -1 21 5 6 18 62 15 62 -3 0 -10 -10 -15 -33 -15 -22 0 -41 -8 -53 -21 -17 -19 -17 -23 -3 -47 13 -24 21 -27 69 -27 l55 0 3 59 c3 49 0 62 -19 82 -31 33 -81 33 -103 -1z m82 -87 c-7 -21 -36 -34 -49 -21 -6 6 -8 16 -5 22 10 15 59 14 54 -1z"/>
<path d="M3000 5630 c-6 -11 -8 -29 -5 -39 8 -26 -15 -71 -36 -71 -21 0 -29 20 -29 76 0 32 -4 44 -14 44 -23 0 -26 -14 -20 -78 6 -50 11 -62 33 -74 16 -10 33 -13 46 -8 11 5 30 6 43 3 23 -5 23 -4 20 78 -3 85 -16 109 -38 69z"/>
<path d="M3412 5631 c-27 -23 -30 -99 -6 -136 20 -30 73 -34 96 -7 21 25 23 120 2 144 -22 23 -65 23 -92 -1z m76 -38 c2 -9 -8 -13 -32 -13 -34 0 -44 8 -29 24 11 11 56 2 61 -11z m2 -57 c0 -18 -22 -26 -49 -19 -38 10 -23 33 21 33 17 0 28 -5 28 -14z"/>
<path d="M3588 5643 l-38 -4 0 -79 c0 -81 9 -101 36 -79 11 9 14 22 9 47 -10 54 41 112 59 67 6 -17 32 -20 41 -5 10 17 -26 60 -49 58 -11 -1 -38 -3 -58 -5z"/>
<path d="M4143 5639 c-6 -6 -8 -29 -6 -52 4 -32 1 -46 -14 -59 -30 -27 -48 -8 -48 54 0 46 -3 53 -20 53 -18 0 -20 -6 -17 -65 5 -84 19 -100 84 -97 57 2 61 9 56 107 -3 63 -13 81 -35 59z"/>
<path d="M4217 5644 c-13 -14 -7 -32 13 -37 30 -8 29 -79 -2 -92 -13 -6 -23 -17 -23 -25 0 -12 14 -15 64 -15 73 0 93 18 42 38 -28 10 -30 14 -33 72 -3 56 -5 60 -28 63 -14 2 -29 0 -33 -4z"/>
<path d="M4544 5627 c-27 -28 -27 -106 1 -137 23 -25 76 -27 97 -2 22 25 23 116 1 142 -24 27 -72 26 -99 -3z m74 -34 c2 -9 -7 -13 -28 -13 -28 0 -31 2 -20 15 15 18 41 16 48 -2z m12 -62 c0 -12 -29 -19 -52 -13 -31 7 -19 22 17 22 19 0 35 -4 35 -9z"/>
<path d="M3714 5585 c-10 -25 6 -35 56 -35 61 0 80 7 80 31 0 17 -8 19 -65 19 -48 0 -67 -4 -71 -15z"/>
<path d="M3112 5428 c-13 -13 -4 -38 14 -38 15 0 19 35 6 44 -5 3 -14 0 -20 -6z"/>
<path d="M2400 5358 c0 -107 9 -148 31 -148 12 0 21 10 25 25 8 32 13 31 40 -2 34 -43 46 -20 52 96 5 98 4 101 -17 101 -19 0 -21 -5 -21 -66 0 -41 -4 -63 -10 -59 -5 3 -10 17 -10 30 0 23 -16 42 -27 32 -3 -4 -9 -21 -13 -39 -7 -27 -8 -21 -9 35 -1 60 -3 67 -21 67 -18 0 -20 -7 -20 -72z"/>
<path d="M2620 5415 c0 -8 7 -15 15 -15 8 0 15 7 15 15 0 8 -7 15 -15 15 -8 0 -15 -7 -15 -15z"/>
<path d="M2737 5423 c-4 -3 -7 -53 -7 -110 0 -96 1 -103 20 -103 17 0 20 7 20 45 0 43 1 45 28 45 39 0 72 30 72 66 -1 47 -21 64 -77 64 -27 0 -53 -3 -56 -7z m97 -42 c12 -19 -7 -41 -35 -41 -24 0 -29 4 -29 25 0 21 5 25 29 25 17 0 32 -4 35 -9z"/>
<path d="M2899 5423 c0 -5 -2 -54 -5 -111 -5 -103 -5 -104 18 -100 21 3 23 8 21 49 -3 51 22 87 52 75 13 -5 16 -18 13 -64 -3 -51 -1 -57 17 -57 17 0 20 8 23 59 3 50 0 62 -20 83 -16 17 -31 23 -53 21 -26 -3 -30 0 -33 25 -2 15 -9 27 -18 27 -8 0 -14 -3 -15 -7z"/>
<path d="M2070 5377 c0 -25 27 -44 70 -49 33 -4 28 -22 -7 -26 -34 -4 -63 -29 -63 -54 0 -22 27 -23 54 -3 11 8 29 15 41 15 21 0 65 38 65 56 0 17 -39 44 -64 44 -12 0 -31 9 -41 20 -25 28 -55 26 -55 -3z"/>
<path d="M2580 5366 c0 -8 7 -19 16 -24 21 -12 16 -97 -6 -97 -8 0 -16 -8 -18 -17 -3 -16 5 -18 62 -18 37 0 68 5 72 11 8 14 -14 29 -32 22 -13 -5 -21 25 -26 97 -3 32 -6 35 -35 38 -24 2 -33 -1 -33 -12z"/>
<path d="M3074 5368 c-4 -6 1 -17 10 -24 10 -7 20 -28 23 -48 4 -31 1 -36 -27 -51 -40 -21 -30 -31 37 -37 77 -7 112 20 53 41 -29 10 -30 12 -30 70 0 61 0 61 -29 61 -17 0 -33 -5 -37 -12z"/>
<path d="M7211 5296 c-8 -9 -11 -52 -9 -127 l3 -114 65 0 65 0 0 110 c0 103 -1 110 -20 110 -11 0 -21 8 -23 18 -4 21 -64 24 -81 3z m49 -40 c0 -9 9 -12 25 -8 l25 4 0 -86 0 -86 -35 0 -35 0 0 101 c0 64 4 98 10 94 6 -3 10 -12 10 -19z"/>
<path d="M7382 5302 c-9 -7 -12 -39 -10 -128 l3 -119 60 0 c60 0 60 0 72 35 11 35 18 31 25 -15 3 -17 12 -20 66 -23 62 -3 62 -3 63 25 3 58 -3 218 -7 225 -9 14 -89 9 -110 -6 -16 -12 -19 -27 -19 -83 0 -79 -19 -98 -21 -20 -2 81 -3 87 -19 87 -8 0 -15 7 -15 15 0 17 -65 21 -88 7z m90 -112 c2 -50 2 -95 0 -100 -2 -6 -19 -10 -38 -10 l-34 0 0 100 0 100 34 0 35 0 3 -90z m153 -10 l0 -95 -32 -3 -33 -3 0 101 0 101 33 -3 32 -3 0 -95z"/>
<path d="M5360 5286 c-13 -13 -13 -83 -1 -91 5 -3 16 8 24 25 10 20 12 32 5 36 -16 10 19 26 42 19 18 -6 19 -8 5 -35 -22 -42 -19 -50 20 -50 37 0 46 13 19 28 -15 8 -15 11 1 36 10 15 15 30 11 33 -10 11 -115 10 -126 -1z"/>
<path d="M5822 5288 c-8 -8 -12 -53 -12 -135 0 -137 3 -143 74 -143 59 0 66 15 61 147 -3 98 -6 119 -21 130 -22 16 -86 17 -102 1z m76 -25 c-10 -2 -28 -2 -40 0 -13 2 -5 4 17 4 22 1 32 -1 23 -4z m14 -43 c2 -5 1 -37 0 -70 -4 -60 -5 -61 -30 -58 -26 3 -27 6 -30 71 l-3 67 30 0 c16 0 31 -4 33 -10z"/>
<path d="M5986 5285 c-12 -12 -15 -41 -15 -132 0 -68 5 -123 11 -130 14 -17 102 -17 116 0 7 8 11 62 11 135 0 109 -2 123 -19 132 -28 15 -86 12 -104 -5z m72 -22 c-10 -2 -28 -2 -40 0 -13 2 -5 4 17 4 22 1 32 -1 23 -4z m13 -43 c0 -5 0 -32 0 -60 0 -27 0 -55 0 -61 -1 -6 -16 -9 -33 -7 -32 3 -33 4 -36 57 -2 29 -1 60 2 67 6 16 66 19 67 4z"/>
<path d="M6182 5288 c-8 -8 -12 -54 -12 -139 0 -117 2 -128 19 -134 28 -9 103 2 112 16 11 19 8 242 -3 257 -13 15 -100 16 -116 0z m76 -25 c-10 -2 -28 -2 -40 0 -13 2 -5 4 17 4 22 1 32 -1 23 -4z m12 -103 c0 -75 -14 -95 -49 -73 -15 9 -18 49 -12 131 1 7 14 12 31 12 l30 0 0 -70z m-20 -105 c11 4 20 2 20 -4 0 -6 -16 -11 -35 -11 -26 0 -35 4 -35 16 0 13 3 14 15 4 8 -6 23 -9 35 -5z"/>
<path d="M6366 5283 c-9 -32 -5 -236 5 -255 14 -26 124 -26 138 0 10 18 13 224 5 255 -4 14 -17 17 -74 17 -57 0 -70 -3 -74 -17z m111 -19 c-9 -10 -77 -11 -77 -1 0 4 19 7 42 7 23 0 38 -3 35 -6z m-12 -104 c0 -72 -10 -89 -42 -71 -11 6 -16 27 -18 75 l-2 66 31 0 31 0 0 -70z m-40 -100 c4 -6 15 -8 26 -5 11 4 19 2 19 -5 0 -15 -72 -9 -78 8 -5 15 24 16 33 2z"/>
<path d="M5556 5266 c-5 -19 -11 -22 -31 -18 -18 3 -25 0 -25 -12 0 -15 12 -21 34 -17 4 1 14 -6 22 -16 13 -17 15 -17 32 6 18 23 19 23 24 4 5 -18 13 -20 62 -18 31 1 59 5 62 8 3 3 3 24 -1 46 -7 43 -28 55 -40 24 -6 -17 -7 -17 -16 0 -6 9 -19 17 -31 17 -11 0 -27 -8 -34 -17 -13 -17 -15 -17 -25 0 -14 24 -26 21 -33 -7z"/>
<path d="M8677 5077 c-40 -32 -35 -83 9 -109 32 -18 32 -18 63 8 40 33 40 65 0 98 -37 31 -37 31 -72 3z m62 -40 c8 -11 7 -18 -7 -30 -16 -14 -21 -15 -37 -3 -11 8 -16 20 -12 30 8 19 40 21 56 3z"/>
<path d="M5604 5080 c-25 -10 -54 -52 -54 -78 0 -33 45 -72 83 -72 44 0 69 28 69 77 0 28 -7 43 -27 60 -28 25 -38 26 -71 13z m60 -52 c8 -13 8 -23 0 -35 -28 -45 -89 -9 -64 38 13 24 48 22 64 -3z"/>
<path d="M6894 5027 c-3 -8 -4 -45 -2 -83 l3 -69 130 0 130 0 8 60 c4 36 3 69 -3 83 -9 21 -15 22 -135 22 -96 0 -127 -3 -131 -13z m40 -82 c1 -26 -2 -49 -6 -51 -4 -3 -8 21 -8 52 0 67 11 66 14 -1z m127 28 c18 -49 -7 -92 -46 -77 -8 4 -15 13 -15 21 0 10 -6 12 -20 8 -17 -5 -20 -2 -20 20 0 24 3 26 25 21 20 -5 25 -3 25 14 0 31 38 26 51 -7z m69 -28 c0 -56 -2 -59 -31 -47 -15 6 -15 12 -2 55 7 26 18 47 23 47 6 0 10 -25 10 -55z"/>
<path d="M6256 4992 c-4 -7 -19 -9 -37 -5 -29 5 -30 4 -27 -23 3 -27 5 -29 43 -26 22 2 41 8 43 13 2 5 11 2 19 -7 21 -20 37 -13 41 19 4 33 -25 49 -42 24 -11 -14 -13 -14 -22 1 -7 11 -13 12 -18 4z"/>
<path d="M6357 4993 c-10 -10 -8 -51 3 -58 5 -3 18 -1 28 4 11 6 22 7 26 4 13 -13 96 -13 96 0 0 20 -21 36 -37 30 -8 -3 -20 3 -27 13 -11 14 -17 16 -28 7 -9 -8 -19 -9 -28 -3 -18 12 -25 12 -33 3z"/>
<path d="M6110 4956 c0 -21 5 -26 26 -26 21 0 25 4 22 23 -2 14 -11 23 -25 25 -19 3 -23 -1 -23 -22z"/>
<path d="M7301 4946 c-7 -8 -11 -32 -9 -53 l3 -38 138 -1 c123 -2 138 0 135 15 -2 9 -13 16 -26 15 -18 0 -22 5 -22 33 0 37 -21 53 -44 34 -10 -8 -16 -9 -21 -1 -4 6 -13 7 -23 2 -20 -9 -89 -8 -99 2 -10 10 -19 7 -32 -8z"/>
<path d="M7698 4900 c-14 -8 -16 -29 -16 -138 0 -71 3 -133 6 -139 11 -17 99 -22 119 -8 12 9 22 10 29 4 7 -5 59 -8 115 -7 l104 3 3 46 c3 52 -14 79 -51 79 -12 0 -28 4 -35 8 -16 11 -114 -9 -137 -28 -17 -14 -18 -12 -12 41 4 30 9 68 12 85 3 16 1 35 -4 43 -11 17 -109 26 -133 11z m68 -39 c-41 -9 -46 -31 -7 -31 l31 0 0 -80 c0 -57 -4 -80 -12 -81 -10 0 -10 -2 0 -6 26 -10 10 -23 -29 -23 -33 0 -40 3 -35 16 3 9 6 60 6 115 l0 99 38 -1 c35 -1 35 -2 8 -8z m261 -198 c-3 -10 -5 -2 -5 17 0 19 2 27 5 18 2 -10 2 -26 0 -35z m-32 27 c3 -6 4 -19 0 -29 -5 -16 -14 -19 -46 -16 -46 3 -64 16 -56 39 7 18 92 23 102 6z"/>
<path d="M8073 4753 l2 -148 60 -3 c76 -4 84 6 74 88 -4 34 -4 87 1 118 12 88 9 92 -71 92 l-68 0 2 -147z m117 107 c0 -5 -13 -10 -29 -10 -16 0 -36 -3 -45 -6 -11 -4 -16 -1 -16 10 0 12 10 16 45 16 25 0 45 -4 45 -10z m-15 -115 l0 -70 -30 0 c-30 0 -30 1 -31 55 -2 80 3 92 34 88 26 -3 27 -5 27 -73z m-12 -95 c22 0 28 -3 18 -9 -19 -12 -74 -6 -79 9 -3 9 1 11 12 7 10 -4 32 -7 49 -7z"/>
<path d="M6079 4888 c-1 -2 -3 -56 -4 -120 l-3 -118 32 0 32 0 0 118 -1 117 -27 3 c-16 2 -29 2 -29 0z"/>
<path d="M6527 4879 c-23 -13 -13 -29 19 -29 13 0 24 -4 24 -8 0 -4 -12 -8 -27 -7 -22 0 -29 -5 -31 -24 -6 -38 16 -50 39 -22 l19 23 0 -26 c0 -21 -5 -26 -25 -26 -26 0 -42 -21 -31 -39 5 -7 15 -7 31 -1 20 7 25 6 25 -5 0 -9 -10 -15 -25 -15 -29 0 -44 -25 -26 -43 9 -9 16 -9 31 1 17 10 20 10 20 -3 0 -9 -9 -15 -25 -15 -14 0 -26 -4 -26 -10 -6 -33 -3 -35 64 -37 55 -1 73 3 88 18 18 18 18 16 21 -69 l3 -87 60 0 60 0 3 108 3 107 -27 10 c-15 6 -35 8 -45 5 -11 -3 -28 -8 -39 -11 -15 -4 -20 -1 -20 15 0 24 -18 28 -26 7 -5 -14 -11 -41 -13 -58 -1 -5 -12 -8 -26 -8 l-25 0 0 101 0 100 28 -3 c24 -3 28 -8 32 -48 4 -37 9 -45 30 -51 41 -12 185 -10 197 2 7 7 23 8 45 3 18 -4 37 -7 42 -5 6 1 20 0 34 -4 20 -5 23 -10 17 -38 -4 -18 -14 -43 -22 -56 -20 -31 -6 -43 48 -39 l44 3 3 43 c2 24 -2 50 -9 58 -9 12 -6 14 24 14 40 0 47 11 47 74 0 60 -18 81 -61 72 -19 -4 -64 -10 -100 -14 -36 -4 -73 -13 -82 -21 -15 -12 -17 -11 -17 7 0 11 -7 23 -16 26 -27 10 -154 7 -176 -5 -14 -8 -23 -8 -31 0 -6 6 -28 11 -49 11 -21 0 -49 6 -61 14 -16 11 -27 12 -40 5z m601 -97 c2 -30 -1 -42 -10 -42 -9 0 -13 15 -13 45 0 56 19 54 23 -3z m-410 8 c-1 -16 -5 -30 -10 -30 -4 0 -8 14 -8 30 0 17 4 30 9 30 5 0 9 -13 9 -30z m160 -11 c-1 -13 -7 -23 -13 -22 -13 3 -18 30 -11 50 10 24 29 1 24 -28z m-48 0 c0 -28 -3 -31 -22 -25 -13 3 -35 6 -50 6 -20 0 -28 5 -28 18 0 27 9 32 57 32 42 0 43 -1 43 -31z m253 11 c8 -30 -16 -41 -80 -38 -55 3 -58 4 -61 31 l-3 27 69 0 c61 0 70 -2 75 -20z m-13 -140 c0 -20 -5 -30 -15 -30 -10 0 -15 10 -15 30 0 20 5 30 15 30 10 0 15 -10 15 -30z m-276 -18 c3 -14 2 -93 -3 -145 -1 -5 -16 -7 -33 -5 l-33 3 -1 78 c-1 71 1 79 20 87 26 9 44 3 50 -18z"/>
<path d="M7227 4884 c-4 -4 -4 -17 -1 -29 4 -17 0 -24 -14 -27 -16 -5 -20 -13 -18 -44 1 -22 5 -44 9 -51 4 -6 4 -14 -1 -17 -5 -3 -9 -28 -10 -57 -1 -41 3 -52 16 -56 10 -2 22 -14 27 -26 6 -12 20 -23 32 -25 15 -2 23 -11 25 -30 l3 -27 110 0 110 0 3 28 c2 15 7 27 12 27 5 0 15 3 23 6 9 3 16 -3 20 -17 5 -18 10 -21 39 -15 18 4 46 7 61 7 26 0 28 2 25 37 -3 35 -5 37 -40 37 -20 0 -39 3 -44 7 -4 4 -13 3 -20 -3 -8 -7 -14 -6 -20 2 -5 8 -12 5 -24 -10 -15 -21 -23 -23 -145 -22 -71 1 -133 5 -138 10 -8 8 -11 225 -5 276 3 19 -21 32 -35 19z"/>
<path d="M5610 4828 c-30 -11 -59 -46 -60 -71 0 -27 28 -64 60 -77 25 -10 33 -9 60 10 16 12 32 31 36 44 13 55 -45 113 -96 94z m55 -57 c9 -30 -5 -51 -35 -51 -31 0 -44 25 -28 54 12 22 55 21 63 -3z"/>
<path d="M7552 4748 c0 -46 -2 -91 -4 -98 -2 -11 8 -16 34 -18 l38 -3 -3 98 -3 98 -30 3 -31 3 -1 -83z"/>
<path d="M6872 4698 c-7 -7 -12 -27 -12 -45 0 -20 -7 -36 -17 -42 -14 -8 0 -10 52 -8 l70 2 3 38 c2 21 -2 45 -9 53 -14 17 -70 19 -87 2z m67 -31 c8 -10 7 -18 -2 -32 -11 -14 -17 -16 -35 -6 -22 12 -28 31 -15 44 11 12 40 8 52 -6z"/>
<path d="M5992 4628 c-16 -16 -15 -73 2 -87 10 -8 22 -7 50 4 20 8 36 19 36 25 0 5 12 8 27 7 31 -2 43 24 23 48 -9 11 -17 12 -31 4 -11 -5 -30 -7 -42 -4 -12 4 -29 8 -37 11 -9 2 -21 -1 -28 -8z"/>
<path d="M5604 4580 c-28 -11 -54 -48 -54 -76 0 -33 47 -74 85 -74 44 0 70 31 69 80 -2 59 -49 92 -100 70z m54 -42 c17 -17 15 -49 -5 -63 -33 -25 -73 18 -53 56 12 21 40 25 58 7z"/>
<path d="M6485 4570 c-8 -12 20 -24 35 -15 6 3 8 11 5 16 -8 12 -32 12 -40 -1z"/>
<path d="M6187 4546 c-9 -23 7 -33 48 -32 33 1 40 5 40 21 0 17 -7 20 -42 22 -25 1 -43 -4 -46 -11z"/>
<path d="M6294 4545 c-4 -9 -2 -21 4 -27 15 -15 44 -1 40 19 -4 23 -36 29 -44 8z"/>
<path d="M6353 4545 c-9 -24 6 -33 50 -32 35 2 42 5 42 22 0 17 -7 20 -43 22 -29 1 -45 -3 -49 -12z"/>
<path d="M6847 4549 c-22 -13 -23 -82 -1 -103 11 -12 35 -16 87 -16 40 0 86 -4 103 -9 50 -14 66 5 62 75 l-3 59 -115 2 c-64 0 -123 -3 -133 -8z m25 -54 c-2 -19 -6 -35 -8 -35 -2 0 -4 16 -4 35 0 19 4 35 8 35 4 0 6 -16 4 -35z m198 -7 c0 -49 -5 -47 -13 5 -3 20 -2 37 4 37 5 0 9 -19 9 -42z m-45 2 c0 -24 -3 -25 -60 -25 -51 0 -60 3 -63 19 -6 27 16 37 73 34 46 -3 50 -5 50 -28z"/>
<path d="M6254 4488 c-10 -17 -13 -114 -3 -129 6 -10 33 -14 91 -15 46 0 96 -3 113 -7 47 -9 65 14 65 84 0 32 -4 61 -10 64 -18 11 -250 14 -256 3z m45 -44 c-5 -15 -7 -35 -4 -45 4 -13 1 -19 -9 -19 -11 0 -16 9 -16 29 0 39 9 61 26 61 10 0 11 -6 3 -26z m189 -23 c2 -18 -1 -38 -7 -44 -14 -14 -17 -9 -24 41 -4 37 -3 43 11 40 11 -2 18 -15 20 -37z m-60 -13 c3 -28 2 -28 -52 -28 -53 0 -56 1 -56 24 0 27 16 35 70 33 30 -2 35 -6 38 -29z"/>
<path d="M6832 4343 l3 -68 130 0 130 0 3 63 c2 51 0 62 -13 62 -11 0 -15 -12 -17 -52 l-1 -53 -6 50 -6 50 -82 3 c-75 3 -83 1 -93 -19 -7 -12 -10 -34 -8 -50 3 -16 1 -29 -4 -29 -4 0 -8 25 -8 55 0 43 -3 55 -15 55 -13 0 -15 -12 -13 -67z m198 3 c0 -21 -6 -25 -32 -28 -18 -2 -48 -1 -65 1 -27 3 -33 8 -33 27 0 23 3 24 65 24 62 0 65 -1 65 -24z"/>
<path d="M7166 4352 c-2 -4 -8 -67 -11 -139 -8 -156 -4 -163 80 -163 80 0 83 5 81 167 l-1 138 -72 3 c-39 2 -74 -1 -77 -6z m114 -36 c0 -15 -78 -28 -86 -14 -11 17 9 28 47 28 27 0 39 -4 39 -14z m-21 -99 c-1 -29 1 -58 4 -64 9 -14 -21 -25 -46 -17 -20 6 -20 7 -2 20 10 8 13 14 7 14 -8 0 -12 18 -12 50 0 47 2 50 26 50 24 0 25 -2 23 -53z m17 -116 c-7 -11 -76 -10 -76 1 0 4 18 8 41 8 22 0 38 -4 35 -9z"/>
<path d="M7377 4353 c-13 -12 -8 -278 5 -291 12 -12 95 -16 122 -6 14 5 16 28 16 155 l0 149 -68 0 c-38 0 -72 -3 -75 -7z m113 -37 c0 -9 -15 -15 -45 -18 -38 -3 -45 0 -45 14 0 15 9 18 45 18 32 0 45 -4 45 -14z m-35 -44 c6 -4 11 -35 11 -69 2 -52 -1 -62 -17 -66 -31 -8 -49 19 -49 73 0 36 5 52 18 59 21 12 24 13 37 3z m29 -173 c-8 -14 -84 -11 -84 4 0 8 14 11 45 9 25 -2 42 -8 39 -13z"/>
<path d="M5577 4312 c-15 -15 -27 -39 -27 -53 0 -37 43 -73 85 -72 46 1 67 25 69 75 2 74 -75 105 -127 50z m87 -34 c23 -38 -35 -78 -61 -42 -17 23 -16 29 3 49 20 19 43 16 58 -7z"/>
<path d="M5937 4333 c-4 -3 -7 -68 -7 -144 0 -156 -5 -147 88 -150 36 -2 56 2 62 11 8 14 12 243 3 273 -4 14 -16 17 -72 17 -37 0 -71 -3 -74 -7z m113 -35 c0 -9 -16 -13 -45 -13 -43 0 -52 4 -38 18 12 13 83 8 83 -5z m-2 -110 l3 -68 -36 0 -35 0 0 63 c0 72 4 79 40 75 24 -3 25 -7 28 -70z m1 -104 c2 -2 -17 -4 -42 -4 -26 0 -47 4 -47 9 0 8 79 3 89 -5z"/>
<path d="M6601 4322 c-7 -13 -7 -39 -1 -78 7 -39 6 -78 -1 -117 -14 -80 -5 -89 80 -85 l66 3 0 145 0 145 -67 3 c-57 2 -68 0 -77 -16z m109 -20 c0 -4 -16 -8 -35 -8 -19 0 -35 4 -35 8 0 4 16 8 35 8 19 0 35 -4 35 -8z m-2 -115 l3 -68 -33 3 c-24 2 -33 8 -32 21 0 9 1 40 2 68 2 49 3 50 30 47 26 -3 27 -5 30 -71z m-2 -105 c-5 -9 -64 -7 -73 2 -4 3 13 6 36 6 23 0 40 -4 37 -8z"/>
<path d="M6183 4324 c-17 -7 -17 -98 -1 -124 10 -15 10 -26 0 -53 -18 -51 -15 -95 7 -107 25 -13 98 -13 106 0 9 14 108 13 122 -1 9 -9 22 -7 52 8 33 17 41 18 45 6 3 -8 10 -11 16 -8 15 9 12 72 -6 106 -12 24 -13 34 -3 45 16 19 21 94 8 111 -15 17 -93 17 -108 -1 -13 -16 -109 -10 -127 9 -12 12 -89 18 -111 9z m287 -154 l0 -90 -114 0 c-95 0 -115 3 -120 16 -8 21 -8 149 1 157 3 4 57 7 120 7 l113 0 0 -90z"/>
<path d="M8600 4744 c-37 -7 -85 -31 -118 -59 -75 -63 -97 -211 -45 -307 49 -90 160 -142 251 -118 65 18 93 33 131 72 108 110 84 299 -49 380 -45 27 -119 41 -170 32z m123 -49 c45 -18 94 -67 112 -112 40 -96 -6 -222 -99 -268 -39 -20 -144 -19 -184 1 -60 29 -112 116 -112 184 0 70 62 167 124 195 42 18 116 18 159 0z"/>
<path d="M2910 3960 c0 -36 4 -50 14 -50 8 0 16 6 19 13 3 9 9 9 23 1 16 -10 122 -18 174 -15 8 1 25 1 36 1 13 0 30 12 39 27 l18 27 24 -30 c23 -28 24 -28 38 -10 13 17 15 18 15 3 0 -9 7 -17 15 -17 11 0 15 12 15 49 l0 49 -35 0 c-19 0 -35 -3 -35 -7 0 -4 -20 -5 -45 -1 -76 12 -90 8 -93 -29 -4 -41 -35 -40 -40 2 -2 19 -9 27 -23 27 -24 0 -49 -22 -49 -44 0 -9 -4 -16 -9 -16 -18 0 -22 19 -9 39 18 29 2 38 -32 17 -26 -15 -30 -15 -30 -2 0 9 -7 16 -15 16 -11 0 -15 -12 -15 -50z"/>
<path d="M3390 3961 c0 -50 15 -76 26 -47 7 18 34 22 34 5 0 -6 12 -9 28 -8 15 1 41 -1 59 -5 17 -4 40 -3 50 2 10 5 26 6 37 3 10 -4 37 -4 60 -1 22 3 51 2 63 -3 12 -5 38 -6 57 -3 33 6 36 10 36 43 0 28 3 34 16 29 9 -3 18 -6 20 -6 2 0 4 -13 4 -29 0 -27 20 -47 34 -34 3 4 6 21 6 40 0 23 5 33 15 33 10 0 15 -11 15 -35 0 -39 -9 -37 143 -39 99 -2 113 7 101 60 l-10 39 -187 1 -187 2 0 -34 c0 -30 -3 -34 -25 -34 -21 0 -25 5 -25 29 0 30 -20 55 -27 34 -3 -8 -12 -8 -31 -1 -16 6 -48 8 -75 4 -44 -7 -47 -9 -47 -37 0 -22 -5 -29 -20 -29 -13 0 -20 7 -20 19 0 52 -44 68 -95 35 -23 -15 -25 -15 -25 0 0 9 -7 16 -15 16 -11 0 -15 -12 -15 -49z m110 -7 c0 -16 -16 -19 -25 -4 -8 13 4 32 16 25 5 -4 9 -13 9 -21z m597 -16 c-16 -10 -29 5 -21 26 6 15 7 15 19 -1 10 -13 10 -20 2 -25z"/>
<path d="M3416 3762 c-2 -4 -5 -116 -5 -249 0 -241 0 -241 22 -245 18 -4 159 -3 215 1 9 1 12 31 12 114 0 63 -3 117 -7 120 -3 4 -12 2 -20 -4 -10 -9 -13 -5 -13 20 0 25 4 31 20 31 20 0 21 5 18 108 l-3 107 -117 3 c-64 1 -119 -1 -122 -6z m206 -64 l3 -33 -92 0 -93 0 0 33 0 32 89 0 89 0 4 -32z m-31 -145 c1 -93 -1 -146 -6 -151 -2 -2 -25 -5 -53 -8 l-50 -4 -5 47 c-7 68 -8 184 -1 194 3 5 30 9 60 9 l54 0 1 -87z m-35 -189 l65 3 -3 -31 -3 -31 -73 -3 c-83 -3 -102 6 -102 49 0 27 2 28 26 19 14 -6 55 -8 90 -6z"/>
<path d="M3495 3570 c-3 -5 0 -13 9 -16 21 -8 71 -1 71 11 0 14 -72 19 -80 5z"/>
<path d="M3495 3529 c-3 -4 -2 -20 1 -36 5 -25 10 -29 39 -29 28 0 34 4 38 25 3 14 3 30 0 38 -5 13 -70 15 -78 2z"/>
<path d="M2463 3718 c-21 -21 -23 -21 -42 -4 -16 15 -31 17 -87 12 -37 -3 -71 -9 -76 -14 -5 -5 -8 -29 -6 -53 l3 -44 95 -1 95 -2 3 -176 2 -176 -37 20 c-41 22 -112 26 -144 10 -15 -8 -19 -21 -19 -60 0 -27 5 -52 11 -56 12 -7 129 -9 164 -3 13 3 20 -2 23 -16 2 -11 11 -28 20 -37 14 -16 41 -18 297 -18 270 0 283 1 309 21 14 11 26 27 26 36 0 13 8 15 42 10 23 -3 72 -3 110 0 l68 6 0 53 c0 44 -4 55 -21 65 -29 15 -138 3 -162 -18 -9 -9 -20 -13 -24 -10 -3 4 -12 2 -20 -4 -11 -10 -13 19 -13 169 0 173 1 180 21 185 11 3 32 1 47 -4 15 -4 59 -5 97 -1 l70 7 3 45 c3 33 -1 47 -14 57 -26 19 -130 16 -165 -4 -28 -17 -30 -17 -45 5 -15 22 -17 22 -312 22 -293 0 -298 0 -319 -22z m610 -22 c8 -22 -4 -28 -23 -11 -13 12 -64 15 -286 18 l-269 2 286 3 c238 2 288 0 292 -12z m-668 -14 c26 -5 41 -13 43 -25 3 -15 -6 -17 -70 -17 -75 0 -101 11 -91 36 6 15 52 17 118 6z m875 -7 c0 -24 -49 -37 -115 -31 -72 6 -65 4 -65 14 0 11 76 29 133 31 36 1 47 -3 47 -14z m-243 -17 c6 -8 10 -112 9 -263 l-1 -250 -30 -3 -30 -3 28 18 c33 22 36 58 5 84 -29 24 -51 24 -72 0 -25 -27 -17 -72 14 -88 21 -11 -7 -13 -175 -14 -110 0 -219 -1 -242 -1 -22 0 -46 3 -52 6 -12 8 -16 507 -4 519 3 4 127 7 273 7 202 0 270 -3 277 -12z m-629 -420 c27 -6 42 -15 42 -25 0 -13 -13 -15 -76 -11 -70 3 -93 13 -94 40 0 9 51 16 70 10 8 -2 34 -9 58 -14z m882 3 c0 -23 -47 -41 -106 -41 -34 0 -69 3 -78 6 -27 10 -18 24 17 25 17 1 43 5 57 9 36 11 110 12 110 1z m-284 -50 c-10 -15 -46 -14 -46 2 0 7 5 18 12 25 10 10 15 9 26 -2 8 -8 11 -19 8 -25z"/>
<path d="M2508 3635 c-23 -31 -23 -37 6 -64 32 -30 72 -22 87 16 23 60 -55 101 -93 48z m60 -27 c-2 -13 -10 -23 -18 -23 -8 0 -16 10 -18 23 -3 17 2 22 18 22 16 0 21 -5 18 -22z"/>
<path d="M2947 3642 c-33 -36 -16 -92 28 -92 24 1 65 33 65 52 0 19 -42 58 -62 58 -8 0 -22 -8 -31 -18z m50 -28 c8 -21 -13 -42 -28 -27 -13 13 -5 43 11 43 6 0 13 -7 17 -16z"/>
<path d="M2695 3556 c-72 -36 -105 -86 -105 -161 0 -66 18 -105 62 -138 71 -53 151 -55 221 -5 64 45 86 156 47 227 -42 73 -154 111 -225 77z m130 -40 c38 -20 59 -45 73 -91 39 -120 -125 -220 -221 -135 -57 50 -67 133 -23 189 37 47 118 64 171 37z"/>
<path d="M2512 3237 c-12 -13 -22 -30 -22 -39 0 -37 70 -64 98 -36 18 18 14 63 -6 81 -25 23 -45 21 -70 -6z m58 -38 c0 -12 -7 -19 -19 -19 -22 0 -34 23 -19 38 15 15 38 3 38 -19z"/>
<path d="M4326 3724 c-3 -8 -6 -62 -6 -119 0 -76 4 -106 14 -114 20 -16 483 -3 490 14 2 6 3 61 3 121 l-2 109 -246 3 c-218 2 -247 1 -253 -14z m125 -30 c-21 -15 -23 -22 -19 -95 l3 -79 -37 0 -38 0 0 88 c0 49 3 92 7 95 3 4 29 7 57 7 49 0 50 0 27 -16z m337 -81 l3 -93 -33 0 -33 0 0 95 0 96 30 -3 30 -3 3 -92z m-134 61 l46 -7 0 -51 c-1 -81 -19 -96 -121 -96 -106 0 -119 10 -119 91 0 52 2 58 23 62 37 7 121 7 171 1z"/>
<path d="M4616 3643 c-4 -4 -19 -7 -34 -8 -23 0 -27 -5 -29 -33 -3 -37 17 -52 42 -32 10 9 15 9 15 1 0 -6 7 -11 15 -11 11 0 15 11 15 39 0 39 -10 57 -24 44z"/>
<path d="M4510 3601 c0 -30 4 -41 16 -41 11 0 14 9 12 37 -4 52 -28 56 -28 4z"/>
<path d="M4807 3436 c-20 -21 -25 -22 -42 -10 -19 14 -129 20 -159 8 -24 -9 -22 -100 2 -112 19 -11 112 -9 155 3 l27 7 0 -176 c0 -97 -4 -176 -8 -176 -4 0 -13 5 -18 10 -6 6 -44 10 -90 8 l-79 -3 -3 -52 c-3 -49 -2 -53 24 -59 14 -4 59 -4 100 -1 72 5 74 5 74 -17 0 -13 8 -30 18 -39 16 -15 52 -17 293 -17 296 0 310 2 323 53 5 22 9 23 94 23 108 -1 124 8 120 68 l-3 41 -74 3 c-42 2 -79 -2 -85 -8 -5 -5 -17 -10 -26 -10 -14 0 -18 17 -23 113 -13 220 -9 249 30 229 11 -6 51 -5 101 1 l83 10 -3 51 -3 51 -75 3 c-47 2 -83 -2 -99 -10 -21 -11 -25 -10 -39 10 -14 22 -15 22 -304 22 l-289 0 -22 -24z m583 -13 c0 -5 -93 -7 -207 -5 -339 4 -366 8 -70 10 152 1 277 -1 277 -5z m-653 -25 c69 -16 69 -35 1 -40 -81 -5 -118 1 -118 21 0 35 28 39 117 19z m837 6 c9 -3 16 -14 16 -24 0 -15 -10 -19 -52 -22 -76 -4 -120 1 -115 15 2 7 21 13 43 15 21 2 43 8 49 13 10 10 36 12 59 3z m-717 -42 c-32 -33 -33 -45 -10 -72 24 -28 69 -26 88 4 17 26 12 48 -18 78 -11 11 20 13 185 13 109 0 198 -3 198 -6 0 -4 -7 -12 -15 -19 -18 -15 -20 -61 -3 -78 16 -16 59 -15 81 2 34 26 10 86 -40 99 -10 3 -5 5 14 6 17 0 35 -5 40 -11 4 -7 9 -126 9 -265 2 -218 0 -252 -13 -258 -24 -9 -28 3 -9 24 23 25 18 49 -16 74 -25 19 -28 19 -52 3 -31 -20 -36 -69 -8 -85 9 -6 15 -11 12 -12 -3 -1 -90 -2 -193 -3 -176 -1 -220 3 -181 18 11 4 14 17 12 43 -2 31 -8 39 -30 47 -23 8 -32 6 -53 -14 -31 -29 -32 -51 -4 -68 16 -11 19 -16 10 -25 -10 -9 -15 -8 -25 5 -9 13 -12 78 -11 261 1 135 5 250 9 256 4 6 17 11 28 11 21 0 21 -1 -5 -28z m50 -23 c14 -14 6 -39 -12 -39 -18 0 -28 17 -21 35 6 18 18 19 33 4z m439 -28 c-4 -6 -16 -11 -27 -11 -21 0 -27 35 -6 43 16 6 41 -18 33 -32z m-603 -356 c30 -5 47 -12 47 -21 0 -11 -18 -14 -85 -13 -73 1 -85 3 -85 18 0 31 10 33 123 16z m852 5 c4 -6 1 -17 -5 -25 -16 -20 -164 -22 -158 -2 3 6 28 14 56 17 28 3 54 9 58 13 11 11 42 9 49 -3z m-255 -60 c-21 -14 -30 -12 -37 6 -9 23 19 37 37 18 13 -13 13 -16 0 -24z m-432 13 c-2 -10 -10 -18 -18 -18 -8 0 -16 8 -18 18 -2 12 3 17 18 17 15 0 20 -5 18 -17z"/>
<path d="M5010 3254 c-116 -82 -105 -240 22 -305 84 -43 183 -6 236 88 6 13 12 45 12 73 0 68 -34 126 -92 156 -45 23 -137 17 -178 -12z m156 -24 c32 -16 48 -32 64 -67 20 -42 21 -51 9 -86 -17 -50 -59 -92 -100 -101 -106 -21 -184 60 -163 169 7 41 39 74 86 91 46 17 56 17 104 -6z"/>
<path d="M3816 3284 c-3 -9 -6 -62 -6 -119 0 -91 2 -106 18 -114 27 -14 461 -14 478 0 19 16 20 208 1 233 -11 15 -26 17 -102 14 -50 -2 -105 -11 -122 -18 -29 -13 -36 -12 -62 3 -40 24 -196 25 -205 1z m114 -32 c0 -4 -5 -13 -11 -19 -7 -7 -10 -38 -7 -82 l4 -71 -33 0 -33 0 0 83 c0 46 3 87 7 90 9 10 73 9 73 -1z m340 -82 l0 -90 -34 0 -35 0 -3 86 c-2 47 -1 88 1 90 2 2 19 4 38 4 l33 0 0 -90z m-100 -4 c0 -39 -5 -68 -13 -74 -7 -6 -47 -13 -90 -15 -66 -4 -81 -2 -102 15 -20 16 -25 28 -25 67 0 26 5 52 12 59 8 8 48 12 115 12 l103 0 0 -64z"/>
<path d="M3985 3192 c-3 -3 -5 -20 -5 -39 0 -26 4 -33 19 -33 12 0 21 8 24 23 l4 22 2 -22 c2 -37 38 -30 50 10 l9 32 1 -31 c1 -35 8 -45 25 -38 9 3 11 17 7 41 l-6 37 -63 1 c-34 1 -64 -1 -67 -3z"/>
<path d="M2690 3052 c-47 -1 -88 -6 -92 -10 -7 -7 -12 -181 -9 -328 l1 -82 56 -7 c31 -4 83 -4 115 0 l59 7 0 181 c1 100 2 192 2 205 0 13 -2 25 -3 26 -10 9 -52 11 -129 8z m100 -73 c0 -33 -3 -39 -13 -31 -15 12 -128 19 -145 8 -8 -5 -12 4 -12 28 l0 36 85 0 85 0 0 -41z m-26 -117 c3 -31 2 -75 -2 -97 -8 -44 -26 -52 -87 -41 -29 6 -33 11 -37 41 -2 19 -2 64 0 99 l4 65 47 3 c25 2 51 -1 58 -5 6 -4 14 -34 17 -65z m26 -177 c0 -33 -36 -40 -157 -26 -7 0 -13 10 -13 22 0 19 5 20 70 18 39 -1 73 1 77 4 13 14 23 6 23 -18z"/>
<path d="M2661 2808 l-1 -48 34 0 c37 0 43 8 41 60 -2 33 -4 35 -37 35 l-35 1 -2 -48z"/>
<path d="M1602 2978 c-17 -17 -24 -20 -34 -10 -16 16 -150 16 -166 0 -19 -19 -15 -86 6 -97 18 -10 110 -16 147 -9 19 3 19 -3 18 -170 -1 -96 -3 -176 -6 -178 -2 -3 -10 2 -17 11 -8 10 -31 15 -70 15 -66 0 -90 -18 -90 -68 0 -52 22 -64 109 -60 72 3 76 2 79 -20 7 -50 27 -53 327 -50 l277 3 32 36 33 36 87 -5 c73 -4 90 -2 106 13 23 21 27 84 8 103 -18 18 -142 16 -158 -3 -15 -18 -42 -19 -57 -4 -13 13 -19 -5 -26 -71 -2 -19 -5 76 -5 211 -2 227 -3 247 -21 263 -17 15 -48 17 -285 17 -230 -1 -266 1 -266 14 0 22 568 23 576 0 3 -8 7 -100 7 -205 2 -236 21 -262 25 -34 l3 156 27 -7 c58 -15 109 -16 147 -3 40 13 40 14 40 63 l0 50 -79 3 c-46 2 -84 -2 -90 -8 -16 -16 -44 -12 -56 10 -10 19 -21 20 -308 20 -294 0 -298 0 -320 -22z m-63 -45 c56 -14 50 -33 -11 -35 -57 -1 -101 1 -106 7 -2 2 -1 13 3 25 7 23 32 24 114 3z m878 1 c9 -24 -9 -34 -63 -36 -88 -3 -114 1 -114 17 0 11 11 15 43 15 23 0 49 5 57 10 24 15 70 12 77 -6z m-774 -42 c-10 -11 -22 -16 -27 -11 -12 11 2 29 25 29 18 0 18 -1 2 -18z m429 2 c-33 -23 -30 -69 5 -88 62 -32 118 49 61 88 l-22 16 27 0 27 0 -2 -262 -3 -263 -271 -3 c-245 -2 -272 -1 -278 14 -9 25 1 30 22 11 30 -27 69 -22 86 12 14 27 14 31 -5 55 -24 31 -62 34 -82 6 -8 -11 -16 -18 -18 -16 -5 5 -2 348 3 355 2 3 15 -3 30 -13 21 -14 31 -15 47 -6 46 24 47 74 3 99 -12 7 45 10 188 11 188 0 203 -1 182 -16z m-374 -43 c-5 -24 -38 -27 -38 -3 0 10 3 21 6 25 11 11 35 -5 32 -22z m430 0 c-2 -9 -11 -17 -21 -19 -21 -4 -35 27 -17 38 19 12 42 0 38 -19z m-603 -365 c54 -14 60 -27 17 -39 -63 -17 -152 18 -111 44 18 12 34 11 94 -5z m892 -2 c9 -25 -16 -34 -99 -34 -63 0 -78 3 -78 15 0 10 11 15 38 16 20 1 48 5 62 9 41 13 70 11 77 -6z m-723 -30 c7 -19 -1 -34 -19 -34 -18 0 -26 25 -12 39 15 15 24 14 31 -5z"/>
<path d="M1835 2808 c-65 -23 -125 -104 -125 -169 0 -39 37 -115 68 -139 57 -45 147 -49 208 -8 52 36 74 80 74 151 0 60 -2 67 -39 109 -54 61 -117 80 -186 56z m136 -59 c55 -39 73 -118 40 -174 -69 -118 -242 -87 -252 45 -5 59 2 81 36 115 32 32 41 35 91 35 41 0 64 -6 85 -21z"/>
<path d="M2067 2482 c-20 -22 -22 -63 -5 -80 17 -17 64 -15 82 4 21 21 20 57 -2 77 -24 22 -55 21 -75 -1z m61 -40 c3 -16 -2 -22 -17 -22 -26 0 -36 17 -20 36 16 19 33 13 37 -14z"/>
<path d="M3360 2980 c-11 -20 -50 -28 -50 -10 0 6 -33 10 -80 10 -68 0 -81 -3 -90 -19 -15 -28 -12 -77 4 -90 17 -14 130 -19 167 -8 19 6 27 5 30 -5 2 -7 3 -88 1 -180 -2 -132 -6 -168 -16 -168 -8 0 -19 7 -26 15 -19 23 -132 21 -153 -3 -23 -25 -21 -75 2 -96 16 -15 35 -17 101 -15 l82 3 13 -30 c7 -17 20 -34 30 -38 24 -9 557 -7 572 2 6 4 19 21 27 37 l15 29 86 -3 c71 -2 90 0 106 15 24 22 25 75 1 97 -25 23 -144 24 -162 2 -7 -8 -19 -15 -26 -15 -11 0 -14 34 -14 181 l0 181 23 -8 c28 -10 124 -11 159 -1 32 9 46 46 32 86 -9 25 -13 26 -88 29 -60 2 -82 -1 -96 -13 -16 -14 -19 -14 -34 9 l-16 25 -295 1 c-285 0 -295 -1 -305 -20z m593 -23 c7 -19 -8 -43 -17 -28 -5 8 -92 11 -282 11 -246 0 -306 5 -261 23 6 3 134 6 283 6 219 1 273 -2 277 -12z m-655 -24 c44 -6 63 -20 43 -33 -14 -8 -145 -5 -160 4 -5 3 -7 15 -4 27 5 18 11 20 42 14 20 -3 55 -9 79 -12z m852 -7 c0 -21 -6 -26 -42 -31 -65 -10 -123 -3 -123 15 0 10 14 17 47 20 26 3 50 9 54 13 4 4 20 7 36 7 23 0 28 -4 28 -24z m-728 -28 c-42 -21 -37 -89 8 -103 55 -17 95 66 48 100 -21 14 -4 15 217 13 l239 -3 2 -220 c1 -121 0 -224 -3 -228 -3 -4 -14 4 -25 18 -25 32 -51 32 -77 -1 -25 -32 -26 -42 -4 -66 22 -25 68 -23 86 3 16 22 33 10 23 -16 -4 -13 -49 -15 -280 -15 l-275 0 -3 253 c-2 138 -1 258 1 265 2 6 17 12 35 11 30 0 30 -1 8 -11z m43 -48 c0 -22 -39 -19 -43 3 -3 15 1 18 20 15 12 -2 23 -10 23 -18z m-212 -359 c23 -6 55 -13 71 -16 51 -11 13 -28 -64 -29 -74 0 -101 14 -78 41 13 16 17 16 71 4z m895 -12 c4 -21 -45 -39 -102 -39 -74 0 -91 39 -18 41 20 0 46 4 57 9 29 13 59 7 63 -11z m-255 -25 c9 -10 -4 -34 -18 -34 -17 0 -28 17 -20 30 7 11 28 13 38 4z"/>
<path d="M3824 2875 c-15 -23 -15 -27 0 -49 22 -34 53 -42 77 -20 21 19 25 64 7 82 -21 21 -66 14 -84 -13z m66 -26 c0 -25 -33 -22 -38 4 -2 12 3 17 17 17 15 0 21 -6 21 -21z"/>
<path d="M3600 2805 c-47 -16 -97 -69 -111 -116 -20 -64 -4 -125 45 -174 48 -47 95 -62 161 -49 69 13 145 102 145 170 0 38 -40 113 -74 139 -29 21 -98 46 -121 44 -5 -1 -26 -7 -45 -14z m123 -47 c46 -24 67 -64 67 -128 0 -45 -4 -54 -40 -90 -35 -35 -45 -40 -87 -40 -58 0 -105 26 -127 71 -32 64 -11 144 48 180 35 21 106 25 139 7z"/>
<path d="M3407 2482 c-33 -37 -11 -92 37 -92 48 0 73 62 38 93 -24 22 -55 21 -75 -1z m56 -48 c-7 -18 -43 -19 -43 -1 0 7 5 18 12 25 15 15 39 -3 31 -24z"/>
<path d="M4315 2808 c-3 -8 -4 -121 -3 -253 l3 -240 110 0 110 0 3 110 c2 71 -1 118 -9 132 -9 17 -9 26 0 37 8 9 11 48 9 117 l-3 104 -108 3 c-81 2 -109 -1 -112 -10z m193 -68 l3 -35 -86 0 -85 0 0 32 c0 39 8 42 95 40 l70 -2 3 -35z m-20 -154 c2 -49 0 -97 -4 -105 -4 -9 -6 -21 -5 -27 1 -7 -17 -13 -45 -16 -42 -3 -47 -1 -56 22 -15 39 -19 191 -6 207 7 9 28 13 62 11 l51 -3 3 -89z m-50 -174 l73 3 -3 -30 -3 -30 -80 0 -80 0 -3 45 c-3 40 -2 43 10 27 12 -16 25 -18 86 -15z"/>
<path d="M4395 2612 c-3 -8 3 -16 17 -20 l22 -5 -22 -8 c-24 -9 -29 -38 -10 -57 30 -30 77 4 56 42 -7 12 -7 21 1 29 18 18 13 25 -24 29 -23 3 -36 -1 -40 -10z"/>
<path d="M2765 2560 l-200 -5 0 -110 0 -110 195 -5 c107 -3 215 -3 240 0 l45 5 0 110 0 110 -40 5 c-22 3 -130 3 -240 0z m-91 -44 c-16 -12 -19 -27 -19 -85 0 -71 0 -71 -27 -71 l-28 0 0 85 0 85 47 0 c43 0 45 -1 27 -14z m336 -61 c0 -41 1 -78 3 -82 1 -5 -15 -9 -35 -11 l-38 -3 0 75 c0 61 -3 77 -17 85 -14 8 -6 10 35 11 l52 0 0 -75z m-105 -25 l0 -65 -99 -3 c-85 -2 -100 0 -112 15 -17 23 -18 109 -1 117 6 2 57 4 112 3 l100 -2 0 -65z"/>
<path d="M2734 2456 c-3 -8 -4 -25 -2 -38 3 -21 8 -23 66 -24 49 0 65 4 72 16 13 25 1 60 -21 60 -20 0 -26 -15 -9 -25 15 -9 12 -25 -4 -25 -8 0 -16 10 -18 23 -4 31 -40 29 -49 -3 -6 -23 -7 -23 -8 -3 -1 27 -19 40 -27 19z"/>
<path d="M4807 2490 c-22 -17 -26 -18 -37 -5 -14 17 -120 21 -150 5 -27 -15 -35 -65 -15 -96 16 -25 20 -26 101 -22 l84 3 0 -179 c0 -178 0 -179 -20 -161 -24 22 -128 32 -159 16 -17 -10 -21 -21 -21 -61 0 -27 4 -51 9 -55 6 -3 51 -6 100 -6 l91 -1 0 -28 c0 -49 26 -60 146 -65 60 -2 187 -1 283 2 151 5 177 9 193 25 10 10 18 29 18 42 0 23 2 24 97 24 82 1 99 4 111 19 16 22 10 92 -10 104 -24 16 -140 3 -154 -16 -7 -10 -19 -15 -26 -13 -10 4 -13 46 -13 178 l0 173 97 -2 c107 -2 118 4 118 67 0 46 -27 62 -101 62 -53 0 -68 -4 -82 -21 l-18 -21 -24 26 -24 26 -284 0 c-268 0 -286 -1 -310 -20z m591 -39 c3 -16 0 -21 -8 -16 -7 4 -136 7 -286 6 -230 -1 -274 1 -274 13 0 8 5 16 10 18 6 2 133 3 283 3 l272 0 3 -24z m-671 -2 c53 -9 63 -14 63 -31 0 -20 -4 -21 -72 -14 -77 7 -94 15 -85 40 8 19 12 19 94 5z m867 5 c9 -3 16 -12 16 -18 0 -32 -162 -51 -174 -21 -6 17 -4 18 69 33 68 13 71 13 89 6z m-209 -309 l0 -260 -25 -3 -25 -4 23 24 c26 29 28 45 5 70 -18 20 -45 23 -74 8 -27 -15 -25 -64 3 -84 21 -15 6 -16 -182 -16 -173 1 -202 3 -187 14 44 33 1 120 -47 94 -53 -28 -59 -56 -20 -87 l27 -21 -26 0 c-13 0 -27 6 -29 13 -3 9 -2 466 1 510 1 4 126 6 279 5 l277 -3 0 -260z m-628 -147 c18 -7 33 -18 33 -25 0 -19 -157 -14 -165 5 -3 8 -3 18 1 23 8 13 92 11 131 -3z m853 -3 c0 -24 -35 -35 -109 -35 -56 0 -71 3 -71 15 0 11 11 15 38 15 20 0 44 5 52 10 24 16 90 12 90 -5z m-702 -58 c2 -12 -3 -17 -17 -17 -12 0 -21 6 -21 13 0 31 32 34 38 4z m439 -1 c-6 -17 -47 -20 -47 -3 0 9 6 17 13 20 18 6 38 -4 34 -17z"/>
<path d="M4850 2378 c-26 -28 -25 -40 3 -66 26 -25 45 -27 68 -9 25 20 31 48 14 73 -20 30 -58 31 -85 2z m60 -28 c0 -11 -6 -20 -14 -20 -18 0 -29 16 -21 30 11 18 35 11 35 -10z"/>
<path d="M5288 2389 c-37 -21 -10 -99 34 -99 19 0 58 41 58 62 0 37 -55 59 -92 37z m57 -29 c9 -15 -14 -40 -31 -33 -22 8 -18 43 5 43 11 0 23 -5 26 -10z"/>
<path d="M5052 2302 c-35 -11 -89 -58 -106 -93 -64 -128 63 -287 198 -249 115 32 171 159 115 259 -38 69 -132 106 -207 83z m135 -58 c75 -57 77 -155 4 -214 -29 -25 -45 -30 -88 -30 -44 0 -58 5 -87 30 -70 62 -55 176 29 227 36 22 105 16 142 -13z"/>
<path d="M2268 2246 c-22 -17 -24 -88 -3 -106 9 -8 43 -11 97 -9 l83 4 3 -180 2 -179 -23 22 c-19 18 -35 22 -89 22 -79 0 -90 -10 -86 -76 3 -47 4 -48 43 -57 22 -5 66 -6 98 -3 54 5 57 5 57 -17 0 -12 7 -30 14 -39 12 -16 39 -18 303 -18 288 0 290 0 310 23 11 12 23 30 27 40 5 15 12 17 36 12 17 -4 64 -4 105 0 l75 7 0 59 c0 53 -2 59 -22 64 -45 10 -137 -1 -156 -18 -11 -10 -26 -15 -35 -11 -22 8 -29 65 -25 217 l3 129 115 1 115 2 3 49 c2 27 -1 53 -7 59 -6 6 -45 12 -86 13 -65 2 -78 -1 -88 -17 -15 -25 -34 -24 -47 1 -10 19 -21 20 -309 20 -298 0 -299 0 -314 -22 l-15 -23 -24 23 c-20 18 -36 22 -84 22 -33 0 -67 -6 -76 -14z m795 -23 c4 -2 7 -11 7 -20 0 -11 -5 -13 -17 -8 -10 5 -137 10 -283 12 -156 2 -266 7 -268 13 -6 16 534 20 561 3z m-663 -24 c73 -16 68 -39 -10 -39 -55 0 -110 15 -110 30 0 23 41 26 120 9z m875 2 c3 -5 -5 -17 -17 -25 -29 -21 -158 -23 -158 -3 0 22 162 48 175 28z m-751 -30 c3 -4 -3 -16 -14 -26 -27 -24 -25 -51 5 -71 54 -35 116 18 81 71 l-16 25 192 0 c166 -1 190 -3 175 -14 -27 -21 -19 -77 12 -92 20 -10 29 -10 47 3 37 24 41 53 11 79 -20 17 -23 23 -12 28 8 3 22 3 30 0 13 -5 15 -42 13 -268 l-3 -261 -269 -3 c-190 -2 -273 1 -282 9 -19 16 -21 498 -2 517 14 14 25 15 32 3z m46 -50 c0 -11 -5 -23 -11 -27 -15 -9 -33 12 -26 30 9 23 37 20 37 -3z m427 3 c8 -21 -13 -42 -28 -27 -13 13 -5 43 11 43 6 0 13 -7 17 -16z m-643 -353 c3 -5 26 -12 51 -15 29 -5 45 -12 45 -22 0 -18 -140 -20 -158 -2 -20 20 -14 36 16 41 15 2 30 5 34 6 4 0 9 -3 12 -8z m921 -11 c4 -6 1 -17 -5 -25 -18 -22 -180 -21 -180 0 0 10 11 15 38 16 20 1 48 5 62 9 37 12 78 12 85 0z"/>
<path d="M2677 2057 c-58 -35 -87 -85 -87 -152 0 -138 145 -221 264 -151 153 90 88 326 -90 326 -33 0 -61 -7 -87 -23z m175 -50 c60 -45 65 -139 11 -199 -41 -46 -139 -47 -192 -2 -69 58 -41 205 44 227 41 11 105 -1 137 -26z"/>
<path d="M2516 1749 c-32 -25 -33 -49 -3 -77 28 -27 49 -28 70 -4 24 26 21 68 -5 86 -29 20 -30 20 -62 -5z m54 -38 c0 -22 -23 -34 -38 -19 -15 15 -3 38 19 38 12 0 19 -7 19 -19z"/>
<path d="M2942 1748 c-7 -7 -12 -26 -12 -43 0 -38 16 -55 50 -55 31 0 60 28 60 57 0 42 -68 71 -98 41z m61 -32 c8 -20 -20 -43 -35 -28 -14 14 -3 42 16 42 7 0 16 -6 19 -14z"/>
<path d="M3505 2150 c-18 -34 -20 -99 -4 -133 16 -36 51 -52 77 -36 25 16 32 38 32 107 0 72 -12 92 -55 92 -28 0 -37 -6 -50 -30z m65 -70 c0 -47 -3 -60 -15 -60 -12 0 -15 13 -15 60 0 47 3 60 15 60 12 0 15 -13 15 -60z"/>
<path d="M4361 2166 c-8 -9 -11 -43 -9 -92 3 -73 5 -79 30 -93 25 -15 29 -14 52 8 23 22 26 33 26 91 0 52 -4 71 -18 83 -23 21 -65 22 -81 3z m55 -78 c2 -50 -8 -74 -25 -64 -12 8 -15 98 -4 110 16 15 28 -4 29 -46z"/>
<path d="M1575 1962 c-40 -14 -81 -44 -105 -80 -36 -54 -35 -150 2 -208 60 -93 198 -110 285 -36 56 49 79 143 51 209 -38 87 -149 142 -233 115z m108 -47 c54 -23 89 -75 90 -135 1 -60 -13 -88 -58 -117 -39 -26 -111 -31 -148 -10 -62 35 -94 107 -75 172 14 47 26 61 76 86 45 22 69 23 115 4z"/>
<path d="M3529 1767 c-40 -31 -52 -113 -24 -167 29 -56 89 -47 101 16 20 107 -23 192 -77 151z m39 -99 c-2 -35 -7 -63 -13 -63 -5 0 -11 28 -13 63 -2 51 0 62 13 62 13 0 15 -11 13 -62z"/>
<path d="M4367 1762 c-25 -27 -24 -159 1 -178 24 -19 56 -17 75 4 26 28 24 145 -3 172 -25 25 -52 26 -73 2z m48 -87 c4 -57 0 -66 -20 -58 -16 5 -22 93 -8 107 15 15 25 -2 28 -49z"/>
</g>
</svg>