<svg xmlns:xlink="http://www.w3.org/1999/xlink" xmlns="http://www.w3.org/2000/svg" version="1.0" width="1200" height="1200" viewBox="0 0 1200.000000 1200.000000" preserveAspectRatio="xMidYMid meet">
<g transform="translate(0.000000,1200.000000) scale(0.100000,-0.100000)" fill="#000000" stroke="none">
<path d="M4880 11864 c-8 -3 -24 -9 -35 -14 -11 -5 -58 -23 -105 -40 -47 -18 -132 -50 -190 -72 -138 -52 -141 -54 -170 -66 -14 -5 -63 -24 -110 -42 -47 -18 -94 -36 -105 -40 -11 -4 -57 -22 -102 -39 -46 -17 -120 -45 -165 -62 -46 -17 -92 -35 -103 -39 -11 -4 -47 -18 -80 -30 -71 -26 -92 -34 -125 -48 -65 -27 -186 -72 -193 -72 -4 0 -26 -8 -50 -19 -23 -10 -58 -24 -77 -31 -43 -15 -80 -30 -102 -41 -10 -5 -23 -9 -29 -9 -18 0 -113 -50 -130 -69 -19 -20 -32 -57 -54 -152 -20 -85 -20 -80 19 -162 19 -40 59 -124 89 -187 30 -63 75 -158 100 -210 24 -52 69 -147 100 -210 30 -63 75 -158 99 -210 54 -112 152 -319 213 -445 123 -255 175 -366 175 -372 0 -3 -7 -14 -16 -24 -18 -20 -63 -170 -64 -211 0 -15 33 -96 74 -180 41 -84 93 -193 116 -243 59 -124 125 -264 172 -365 22 -47 60 -125 83 -175 23 -49 66 -139 95 -200 29 -60 73 -153 97 -205 25 -52 70 -147 100 -210 31 -63 77 -161 104 -217 27 -57 72 -151 100 -210 29 -60 67 -142 86 -183 19 -41 59 -124 88 -185 56 -116 126 -264 206 -432 118 -248 150 -316 209 -438 117 -244 182 -380 220 -460 21 -44 58 -123 83 -175 25 -52 66 -140 92 -195 26 -55 81 -170 122 -255 41 -85 87 -182 103 -215 15 -33 69 -145 119 -249 51 -104 90 -190 88 -193 -3 -2 -38 5 -78 15 -41 10 -99 24 -129 31 -63 14 -99 22 -225 50 -49 11 -126 27 -170 36 -44 9 -106 23 -137 32 -57 15 -71 15 -158 -7 -88 -22 -100 -22 -187 -1 -49 12 -104 26 -123 31 -19 4 -78 18 -130 30 -152 34 -183 41 -220 50 -19 4 -78 18 -130 30 -52 11 -115 26 -140 31 -25 6 -63 14 -85 19 -22 5 -78 18 -125 28 -47 11 -128 30 -180 41 -52 12 -113 26 -135 31 -22 5 -65 14 -95 20 -30 7 -71 16 -90 20 -19 5 -55 13 -80 19 -25 5 -67 15 -95 21 -27 6 -69 16 -92 21 -76 16 -137 30 -173 39 -19 4 -60 13 -90 20 -30 6 -75 16 -100 21 -25 6 -64 15 -87 20 -124 27 -174 38 -249 58 -23 6 -60 11 -83 11 -66 0 -89 -33 -120 -172 -6 -27 -15 -67 -20 -90 -6 -24 -19 -81 -30 -128 -11 -47 -22 -98 -26 -115 -3 -16 -10 -46 -14 -65 -5 -19 -14 -60 -21 -90 -7 -30 -16 -72 -21 -92 -5 -21 -13 -55 -18 -75 -5 -21 -14 -63 -21 -93 -7 -30 -16 -73 -22 -95 -10 -44 -23 -102 -37 -167 -10 -45 -32 -139 -58 -243 -20 -79 -31 -129 -43 -190 -5 -27 -14 -68 -19 -90 -44 -185 -58 -271 -49 -302 9 -34 63 -83 92 -83 9 0 49 -8 89 -19 39 -10 115 -28 167 -40 52 -12 133 -31 180 -42 47 -11 105 -25 130 -30 25 -6 61 -14 80 -19 19 -5 76 -18 125 -30 50 -11 104 -25 121 -30 17 -6 39 -10 49 -10 10 0 32 -4 49 -10 28 -8 131 -33 256 -61 25 -6 61 -14 80 -19 19 -5 55 -13 80 -19 42 -9 102 -23 305 -71 47 -11 124 -29 173 -40 48 -12 103 -25 122 -30 19 -5 55 -13 80 -19 25 -5 86 -19 135 -31 50 -12 108 -25 130 -30 136 -31 145 -34 180 -71 19 -21 45 -39 58 -41 24 -3 24 -1 6 -99 -11 -60 -11 -70 5 -93 19 -30 37 -39 111 -54 106 -23 241 -53 275 -62 19 -5 78 -19 130 -30 52 -12 133 -30 180 -41 107 -25 191 -44 305 -69 99 -22 223 -51 251 -60 17 -6 40 -10 52 -10 11 0 31 -4 44 -9 13 -5 48 -14 78 -20 56 -12 81 -18 203 -46 37 -8 97 -22 135 -30 37 -9 83 -20 102 -25 19 -5 98 -23 175 -40 77 -17 178 -40 225 -51 47 -11 105 -25 130 -30 25 -6 61 -14 80 -19 19 -5 65 -16 103 -25 37 -8 97 -22 135 -30 37 -9 85 -20 107 -25 22 -5 78 -18 125 -29 47 -11 146 -34 220 -51 74 -18 173 -40 220 -51 47 -11 103 -24 125 -29 76 -16 140 -31 175 -40 19 -5 65 -16 103 -25 37 -8 96 -22 132 -30 36 -8 94 -22 130 -30 -504 116 916 -211 260 -60 36 -8 95 -22 133 -31 37 -8 108 -24 157 -36 50 -11 106 -24 125 -28 19 -5 55 -13 80 -19 25 -6 94 -22 154 -37 156 -37 193 -27 215 56 12 49 74 356 114 570 4 23 19 94 48 240 6 30 15 69 19 85 4 17 14 63 21 103 l13 74 30 -6 c17 -4 56 -9 86 -12 70 -8 77 0 96 103 7 43 21 109 29 148 19 87 20 78 -10 107 -19 19 -40 27 -85 32 -33 4 -62 12 -66 18 -4 6 -1 36 5 67 7 31 16 79 22 106 5 28 14 68 19 90 5 22 14 69 20 105 6 36 20 103 30 150 10 47 30 147 45 223 37 188 26 213 -100 237 -33 7 -76 16 -95 20 -19 4 -60 13 -90 20 -53 11 -105 23 -180 40 -19 4 -71 15 -115 24 -44 9 -99 21 -122 26 -63 15 -133 30 -178 40 -22 5 -62 14 -90 20 -27 6 -69 16 -92 21 -24 5 -64 14 -90 20 -27 6 -67 15 -90 20 -24 5 -64 14 -90 20 -27 6 -67 15 -90 20 -24 5 -62 13 -85 19 -24 5 -108 23 -188 40 -80 17 -158 35 -175 40 -16 4 -57 13 -90 20 -33 7 -87 18 -120 26 -33 7 -103 23 -155 34 -52 11 -135 30 -185 41 -227 50 -283 62 -320 70 -22 4 -58 12 -80 17 -22 6 -85 20 -140 31 -235 51 -362 79 -415 91 -19 5 -77 16 -128 26 -51 10 -91 23 -89 29 2 5 33 22 68 37 129 54 145 60 186 79 24 10 45 19 48 19 2 0 34 13 70 30 36 17 68 30 70 30 2 0 28 11 57 24 30 14 78 34 108 46 30 12 70 28 88 36 17 8 49 21 70 30 20 9 60 26 87 39 28 12 66 29 85 36 19 7 50 21 68 31 18 10 37 18 41 18 5 0 42 15 83 34 40 19 97 44 127 56 52 20 75 30 199 86 29 13 55 24 57 24 2 0 34 13 70 30 36 16 68 30 70 30 2 0 28 11 57 24 29 13 94 41 143 62 151 63 185 85 232 146 66 84 67 114 9 233 -26 53 -173 351 -328 663 -642 1299 -747 1510 -1703 3437 -183 369 -364 736 -403 816 -70 143 -73 147 -119 169 -53 25 -61 23 -197 -32 -83 -34 -103 -35 -112 -5 -11 35 -354 738 -816 1675 -28 56 -57 107 -64 113 -15 13 -82 21 -104 13z m60 -44 c10 -5 67 -110 128 -232 169 -342 438 -890 547 -1113 53 -110 126 -257 161 -327 69 -138 69 -136 -1 -158 -22 -6 -59 -20 -82 -31 -24 -10 -47 -19 -53 -19 -6 0 -18 -4 -28 -9 -32 -16 -69 -31 -202 -81 -47 -18 -94 -36 -105 -40 -11 -5 -63 -25 -115 -45 -52 -20 -111 -44 -130 -52 -120 -52 -146 -59 -164 -44 -14 12 -16 10 -16 -7 0 -15 -17 -27 -77 -51 -43 -17 -81 -31 -86 -31 -4 0 -26 -9 -50 -19 -23 -10 -62 -26 -87 -36 -25 -9 -58 -22 -75 -30 -16 -7 -46 -18 -65 -25 -33 -11 -47 -17 -102 -39 -13 -5 -54 -21 -93 -36 -38 -15 -83 -33 -100 -40 -16 -7 -57 -23 -90 -35 -33 -13 -65 -27 -72 -32 -12 -9 -19 4 -115 212 -17 36 -54 115 -83 175 -29 61 -66 139 -83 175 -67 144 -180 382 -292 615 -32 66 -81 170 -110 230 -29 61 -85 178 -126 262 -40 83 -75 157 -76 164 -3 12 16 20 170 78 45 17 119 45 165 62 45 17 91 35 102 39 11 4 58 22 105 40 47 18 94 36 105 40 11 4 58 22 105 40 47 18 94 36 105 40 11 4 57 22 103 39 198 75 249 94 280 108 35 15 179 69 222 83 14 4 57 20 95 35 39 15 79 30 90 35 11 4 31 12 45 18 46 18 125 50 128 51 2 1 12 -3 22 -9z m-1845 -795 c19 -40 35 -75 35 -78 0 -3 36 -81 81 -174 44 -92 103 -215 131 -273 27 -58 71 -150 98 -205 114 -237 228 -478 285 -600 80 -172 166 -351 180 -377 24 -42 18 -51 -48 -80 -66 -28 -80 -26 -93 15 -8 25 -48 114 -104 232 -21 44 -61 127 -88 185 -100 212 -142 298 -216 452 -41 86 -94 196 -117 245 -50 108 -123 261 -196 411 -48 100 -54 118 -48 155 15 103 41 181 57 171 4 -3 24 -38 43 -79z m3080 -979 c13 -13 62 -104 110 -202 144 -294 371 -756 652 -1324 311 -627 328 -661 342 -686 5 -10 132 -266 282 -569 251 -510 393 -796 959 -1937 144 -291 209 -434 205 -447 -5 -15 -79 -61 -100 -61 -3 0 -27 -10 -53 -21 -79 -36 -105 -47 -162 -69 -30 -12 -78 -32 -108 -46 -29 -13 -54 -24 -56 -24 -2 0 -131 -54 -286 -120 -154 -66 -283 -120 -285 -120 -3 0 -33 -14 -67 -30 -34 -17 -66 -30 -70 -30 -5 0 -37 -13 -71 -29 -97 -45 -156 -71 -162 -71 -2 0 -34 -13 -70 -30 -36 -16 -68 -30 -70 -30 -2 0 -34 -13 -70 -30 -36 -16 -68 -30 -70 -30 -3 0 -27 -10 -53 -21 -26 -12 -62 -28 -79 -35 -18 -8 -48 -20 -65 -28 -18 -7 -54 -23 -80 -35 -26 -11 -50 -21 -53 -21 -6 0 -37 -14 -179 -79 -49 -23 -101 -41 -115 -41 -41 0 -115 25 -119 41 -5 14 -26 62 -76 172 -65 143 -108 234 -221 472 -29 61 -69 146 -90 190 -45 97 -111 235 -175 370 -122 255 -155 326 -190 400 -21 44 -63 134 -95 200 -57 119 -109 229 -200 420 -26 55 -70 147 -97 205 -124 259 -209 438 -273 578 -25 53 -50 105 -55 115 -21 37 -30 54 -61 122 -17 39 -55 120 -84 180 -29 61 -72 151 -95 200 -78 167 -132 279 -187 395 -64 133 -134 281 -170 360 -14 30 -63 132 -108 225 -45 94 -99 206 -120 250 -21 44 -67 141 -102 214 -85 179 -84 182 26 227 47 19 89 34 93 34 5 0 27 8 51 19 60 27 201 81 210 81 4 0 26 9 50 19 23 10 125 51 227 91 102 39 193 76 202 81 10 5 22 9 28 9 5 0 38 13 72 29 35 15 74 32 88 36 14 4 41 14 60 22 61 26 73 31 160 63 47 17 94 35 105 39 11 5 70 28 130 51 61 23 129 51 152 61 24 11 47 19 53 19 6 0 18 4 28 9 24 12 51 23 177 71 61 23 119 46 130 50 199 80 213 83 250 46z m-2379 -963 c37 -81 79 -173 129 -278 24 -49 58 -124 78 -165 19 -41 51 -110 71 -152 20 -43 52 -113 72 -155 92 -196 109 -234 164 -347 64 -134 133 -279 190 -401 21 -44 58 -123 83 -175 24 -52 64 -135 87 -185 23 -49 69 -146 102 -215 75 -156 131 -275 196 -410 27 -58 70 -148 95 -200 25 -52 64 -135 87 -185 23 -49 73 -153 110 -230 71 -148 125 -261 183 -385 35 -76 136 -288 207 -435 66 -137 161 -337 190 -400 15 -33 52 -112 83 -175 30 -63 71 -151 92 -195 109 -231 140 -298 181 -380 30 -62 40 -91 31 -93 -12 -3 -136 23 -142 30 -3 3 -38 78 -120 253 -13 28 -48 102 -78 165 -30 63 -71 150 -91 192 -20 43 -66 140 -102 215 -68 144 -111 233 -187 393 -44 92 -89 187 -217 455 -34 72 -91 191 -127 265 -35 74 -79 167 -98 205 -42 88 -132 278 -197 415 -28 58 -72 150 -98 205 -26 55 -66 138 -88 185 -22 47 -63 133 -91 193 -28 59 -74 155 -102 215 -28 59 -77 161 -109 227 -32 66 -77 161 -100 210 -55 118 -145 308 -273 575 -68 142 -182 385 -253 538 -19 39 -34 80 -34 89 0 46 35 193 46 193 3 0 16 -26 30 -57z m4858 -4314 c-10 -12 -39 -31 -64 -42 -73 -32 -122 -53 -170 -75 -25 -11 -101 -43 -170 -72 -69 -29 -149 -63 -178 -76 -29 -13 -55 -24 -57 -24 -2 0 -28 -11 -57 -24 -29 -13 -100 -44 -158 -69 -58 -24 -125 -53 -150 -64 -25 -11 -74 -33 -110 -48 -36 -15 -85 -37 -110 -47 -25 -11 -63 -28 -85 -38 -22 -10 -85 -36 -140 -60 -55 -23 -124 -53 -153 -66 -29 -13 -55 -24 -57 -24 -2 0 -28 -11 -57 -24 -29 -13 -82 -36 -118 -51 -36 -15 -108 -48 -160 -72 -56 -27 -109 -46 -129 -45 -68 0 -52 19 56 64 258 110 375 158 379 158 2 0 33 14 69 30 36 17 68 30 70 30 4 0 194 83 313 136 29 13 57 24 62 24 5 0 38 13 72 29 35 16 79 36 98 44 125 54 804 343 890 381 121 52 142 56 114 25z m-6150 -143 c127 -30 333 -76 381 -86 50 -11 98 -22 178 -40 23 -5 85 -19 137 -30 152 -34 183 -41 220 -50 37 -9 68 -16 220 -50 52 -11 113 -25 135 -30 83 -19 212 -48 270 -60 33 -7 71 -16 85 -20 14 -4 52 -13 85 -20 33 -7 105 -23 160 -36 55 -13 123 -29 150 -34 28 -6 66 -15 85 -20 19 -4 55 -12 80 -18 86 -18 285 -63 325 -72 54 -12 260 -58 363 -80 45 -9 85 -20 88 -23 3 -3 0 -22 -7 -42 -12 -32 -17 -36 -39 -30 -14 3 -43 10 -65 15 -22 5 -58 13 -80 20 -22 6 -62 15 -90 21 -61 12 -115 24 -175 39 -25 6 -65 15 -90 20 -46 10 -107 24 -170 39 -19 5 -60 14 -90 21 -30 7 -73 16 -95 22 -22 5 -58 13 -80 18 -22 5 -60 14 -85 20 -25 6 -61 15 -80 19 -19 5 -51 12 -70 16 -52 9 -121 26 -150 35 -14 4 -52 13 -85 20 -33 6 -76 15 -95 20 -19 5 -56 14 -82 19 -27 6 -69 16 -95 22 -27 5 -64 14 -83 19 -19 4 -60 13 -90 20 -52 10 -68 14 -165 38 -22 6 -67 16 -100 22 -33 7 -71 16 -85 20 -14 4 -52 13 -85 20 -33 6 -76 15 -95 20 -38 9 -109 26 -177 41 -55 12 -120 26 -180 40 -57 12 -122 27 -183 40 -118 26 -120 27 -108 54 6 13 18 26 27 28 9 3 18 5 20 6 3 0 32 -5 65 -13z m-100 -85 c3 -4 20 -11 38 -15 18 -3 53 -11 78 -17 25 -5 65 -14 90 -18 25 -5 70 -15 100 -23 30 -8 82 -21 115 -27 33 -7 76 -16 95 -21 39 -10 139 -32 263 -59 82 -18 133 -30 197 -47 36 -9 85 -20 110 -24 25 -5 64 -14 88 -19 90 -23 157 -38 247 -56 17 -3 46 -10 65 -15 44 -11 195 -47 235 -55 87 -18 115 -24 165 -37 30 -8 82 -20 115 -27 33 -7 74 -16 90 -21 17 -4 55 -13 85 -20 30 -6 69 -16 86 -21 17 -5 39 -9 49 -9 10 0 32 -4 49 -9 41 -13 98 -27 166 -41 30 -6 71 -15 90 -20 19 -4 60 -13 90 -20 30 -6 72 -15 93 -20 76 -20 113 -28 171 -39 32 -6 61 -12 63 -15 2 -2 -3 -35 -12 -73 -23 -96 -32 -140 -45 -203 -7 -30 -16 -71 -20 -90 -12 -48 -27 -113 -60 -265 -5 -22 -16 -69 -24 -105 -8 -36 -22 -99 -31 -140 -9 -41 -23 -104 -31 -140 -33 -140 -44 -188 -63 -275 -12 -49 -34 -146 -50 -215 -15 -69 -36 -160 -46 -202 -9 -43 -21 -78 -25 -78 -4 0 -52 12 -106 26 -55 14 -119 30 -144 34 -25 5 -65 13 -90 20 -25 6 -74 18 -110 26 -186 43 -238 56 -271 64 -20 6 -48 10 -62 10 -14 0 -29 4 -32 10 -3 6 -18 10 -32 10 -14 0 -44 5 -67 11 -54 14 -101 25 -156 38 -96 22 -317 73 -350 82 -19 5 -78 18 -130 30 -52 11 -142 32 -200 45 -96 23 -165 39 -275 64 -22 5 -78 18 -125 29 -47 11 -119 28 -160 36 -41 9 -92 21 -112 26 -65 16 -121 29 -168 39 -25 5 -63 13 -85 18 -22 6 -65 15 -95 22 -30 7 -71 16 -90 20 -19 4 -71 15 -115 25 -44 9 -81 18 -82 18 -1 1 3 20 7 42 18 84 52 232 61 270 6 22 14 58 18 80 4 22 20 92 36 155 71 297 85 360 85 383 0 14 4 28 9 31 5 3 11 23 14 43 3 21 10 58 17 83 13 53 25 107 40 175 10 49 18 87 40 175 6 25 15 65 20 90 5 25 13 63 18 85 6 22 15 63 20 90 17 80 30 102 46 76z m2910 -481 c46 -11 87 -26 99 -39 l20 -20 -54 13 c-30 8 -90 22 -134 32 -44 9 -89 24 -100 32 -18 13 -14 13 35 7 30 -3 90 -15 134 -25z m184 -37 c4 -30 -9 -29 -39 3 l-24 26 30 -4 c22 -2 31 -9 33 -25z m98 -2 c5 -5 23 -11 39 -14 27 -4 26 -4 -7 -6 -21 0 -38 3 -38 8 0 6 -17 12 -37 14 l-38 4 36 1 c19 1 39 -2 45 -7z m76 -62 c73 -16 171 -39 218 -49 47 -10 126 -28 175 -39 50 -11 137 -30 195 -42 58 -12 107 -24 108 -25 2 -1 1 -12 -3 -23 -4 -13 -16 -21 -38 -23 -39 -4 -56 -34 -59 -104 -3 -42 0 -50 20 -59 13 -6 22 -19 22 -32 0 -18 -6 -23 -27 -23 -40 0 -48 -9 -61 -62 -19 -75 -16 -96 16 -112 23 -12 28 -20 25 -43 -7 -47 14 -61 127 -88 58 -14 121 -30 140 -35 19 -4 80 -18 135 -30 55 -12 113 -26 129 -31 52 -16 94 -11 110 13 9 12 16 30 16 40 0 13 8 18 29 18 38 0 47 14 62 92 13 74 9 98 -20 98 -10 0 -21 7 -25 15 -4 12 3 15 30 15 30 0 37 4 48 33 24 59 28 103 11 121 -9 9 -23 16 -31 16 -8 0 -14 10 -14 25 0 31 14 32 113 7 39 -11 97 -24 127 -31 30 -7 75 -17 100 -22 25 -6 63 -14 85 -19 22 -5 61 -13 88 -19 52 -12 87 -20 227 -51 100 -22 134 -29 240 -54 36 -9 90 -21 120 -27 30 -6 71 -15 90 -19 19 -4 85 -18 145 -30 124 -25 127 -25 320 -70 77 -18 156 -36 175 -40 19 -4 78 -18 130 -29 52 -12 118 -26 145 -32 28 -6 68 -15 90 -20 22 -5 63 -13 90 -19 28 -5 68 -14 90 -20 22 -6 83 -19 135 -30 113 -24 210 -46 424 -94 88 -20 168 -36 178 -36 37 0 35 -38 -12 -240 -9 -41 -23 -106 -29 -145 -7 -38 -26 -137 -42 -219 -17 -82 -28 -155 -25 -163 3 -7 12 -13 21 -13 16 0 19 -26 9 -79 -5 -24 -12 -31 -29 -31 -43 0 -46 18 -25 146 24 142 24 163 5 184 -12 14 -12 23 1 73 19 72 10 89 -53 104 -141 34 -148 32 -164 -48 -6 -33 -15 -62 -19 -64 -4 -3 -33 2 -64 10 -31 8 -66 15 -78 15 -22 0 -21 -5 -3 107 9 50 2 55 -110 78 -95 20 -103 15 -114 -70 -6 -45 -14 -63 -34 -79 -14 -12 -29 -33 -32 -49 -10 -37 -15 -39 -75 -21 -50 15 -54 15 -71 -3 -25 -25 -47 -157 -29 -178 7 -8 20 -15 29 -15 9 0 33 -5 55 -11 36 -10 38 -12 31 -42 -4 -18 -10 -50 -14 -72 -7 -44 -3 -42 -92 -29 -30 4 -49 2 -53 -5 -12 -18 -36 -120 -36 -150 0 -30 12 -38 90 -58 39 -10 40 -17 18 -126 -11 -51 -15 -57 -33 -52 -49 15 -96 17 -110 5 -8 -6 -17 -28 -21 -49 -3 -20 -10 -51 -16 -69 -13 -42 7 -67 60 -77 20 -3 44 -8 53 -11 25 -7 32 -88 14 -159 -15 -55 -15 -60 2 -75 25 -24 171 -56 192 -43 8 5 22 39 31 74 12 53 18 64 35 63 36 -3 140 -27 148 -34 8 -7 -4 -89 -18 -122 -12 -29 25 -52 109 -67 52 -9 84 -11 94 -4 9 5 22 40 30 79 7 38 19 76 27 84 36 42 76 171 104 335 10 57 18 66 49 59 15 -4 30 -10 35 -13 4 -4 -2 -45 -13 -92 -21 -88 -133 -639 -176 -869 -14 -74 -27 -137 -30 -139 -17 -18 -11 36 26 216 23 114 51 255 61 313 10 58 32 170 49 250 39 182 38 174 18 178 -12 2 -19 -4 -22 -20 -2 -13 -11 -61 -20 -108 -16 -84 -26 -131 -86 -410 -39 -183 -50 -242 -59 -308 -9 -67 -19 -77 -63 -64 -18 6 -76 20 -128 32 -52 11 -123 28 -157 36 -35 7 -93 21 -130 29 -38 9 -86 20 -108 25 -22 5 -83 19 -135 30 -52 12 -142 33 -200 46 -58 14 -133 32 -167 40 -35 8 -91 21 -125 29 -35 8 -106 24 -158 35 -52 11 -142 32 -200 46 -58 14 -123 29 -145 34 -22 5 -79 18 -127 29 -201 47 -258 61 -348 81 -52 11 -122 27 -155 35 -197 46 -290 67 -370 85 -49 12 -108 25 -130 30 -55 13 -162 37 -242 55 -38 9 -84 20 -103 25 -19 5 -56 12 -83 15 -26 4 -49 11 -52 15 -3 4 0 21 6 37 8 25 14 29 35 25 42 -8 50 5 74 122 10 51 5 63 -31 71 -38 9 -32 31 8 27 38 -4 48 9 63 80 13 68 7 96 -23 100 -20 3 -22 8 -19 54 3 44 0 53 -20 66 -13 8 -39 18 -58 21 -35 7 -84 18 -162 38 -24 5 -61 14 -83 19 -22 5 -58 13 -80 19 -236 59 -267 59 -283 -1 -7 -28 -13 -34 -40 -36 -26 -3 -35 -10 -47 -38 -8 -19 -15 -53 -17 -76 -2 -34 2 -44 26 -63 36 -28 29 -55 -12 -55 -38 0 -47 -12 -62 -80 -16 -71 -11 -93 20 -100 20 -5 26 -13 28 -39 3 -33 3 -33 -30 -28 -18 3 -62 12 -98 21 -36 8 -87 20 -115 26 -27 6 -66 15 -85 20 -19 4 -57 13 -85 19 -44 9 -132 28 -285 62 -25 6 -61 14 -80 19 -19 5 -89 21 -155 35 -66 15 -123 29 -127 33 -10 10 14 92 27 92 5 0 39 -9 75 -20 90 -28 159 -26 220 5 27 14 58 25 68 25 31 0 50 32 75 125 l24 90 54 -4 c30 -1 70 -10 89 -18 50 -21 136 -43 170 -43 37 0 56 27 71 101 21 98 18 120 -20 146 -27 18 -46 23 -98 22 -50 -1 -71 3 -92 18 -14 11 -43 23 -65 26 -21 3 -41 8 -43 11 -5 5 14 94 28 132 7 20 11 21 56 12 26 -5 77 -18 113 -29 156 -45 187 -37 207 52 35 158 33 161 -124 194 -176 38 -195 44 -189 63 3 9 11 43 18 75 15 68 -2 67 188 17 110 -29 127 -31 148 -19 27 15 48 68 58 141 6 45 4 50 -29 83 -32 32 -40 35 -72 29 -39 -7 -120 11 -146 33 -8 7 -24 13 -35 13 -38 0 -47 14 -35 56 6 21 16 59 22 83 10 42 11 43 42 37 18 -3 55 -13 82 -20 28 -8 82 -22 120 -31 94 -22 116 -13 133 51 7 27 18 64 23 82 13 41 -2 84 -34 100 -33 17 -98 32 -135 32 -38 0 -162 38 -162 50 0 4 7 24 15 43 8 20 15 43 15 52 0 21 -30 31 -41 14 -16 -25 -10 44 10 125 11 42 25 84 32 92 10 12 10 20 1 35 -10 16 -9 19 8 19 11 0 79 -14 152 -31z m178 2 c0 -6 -17 -7 -37 -4 -52 8 -54 13 -5 13 23 0 42 -4 42 -9z m68 -18 c-10 -2 -28 -2 -40 0 -13 2 -5 4 17 4 22 1 32 -1 23 -4z m157 -27 c47 -14 48 -14 15 -15 -19 0 -57 6 -85 14 -47 13 -48 14 -15 14 19 0 58 -6 85 -13z m118 -33 c-13 -2 -33 -2 -45 0 -13 2 -3 4 22 4 25 0 35 -2 23 -4z m161 -30 c22 -4 41 -14 44 -22 3 -10 0 -12 -14 -7 -11 5 -50 16 -89 27 -61 16 -64 18 -25 14 25 -2 63 -7 84 -12z m224 -50 c-10 -2 -26 -2 -35 0 -10 3 -2 5 17 5 19 0 27 -2 18 -5z m-69 -17 c104 -27 196 -48 315 -72 129 -27 156 -37 156 -60 0 -8 -11 -63 -25 -122 -38 -157 -43 -179 -61 -270 -10 -48 -23 -86 -31 -89 -7 -3 -32 0 -56 7 -38 11 -68 18 -152 35 -16 4 -85 20 -151 36 -67 16 -129 29 -137 29 -9 0 -28 5 -42 12 -31 14 -32 33 -6 136 10 43 24 104 31 137 7 33 16 74 20 90 5 17 11 48 15 70 13 85 19 88 124 61z m-159 -66 c0 -32 -26 -100 -38 -100 -12 0 -13 10 -8 46 3 25 8 50 12 55 7 12 34 12 34 -1z m715 -28 l40 -10 -50 -1 c-31 0 -57 5 -70 15 -19 16 -19 16 10 11 17 -4 48 -10 70 -15z m-1625 -97 c-14 -47 -28 -102 -34 -130 -2 -12 -4 -8 -4 10 -1 33 20 120 31 131 4 4 8 26 8 48 2 34 3 36 6 11 3 -16 -1 -48 -7 -70z m1748 68 c-10 -2 -28 -2 -40 0 -13 2 -5 4 17 4 22 1 32 -1 23 -4z m80 -20 c-10 -2 -28 -2 -40 0 -13 2 -5 4 17 4 22 1 32 -1 23 -4z m90 -20 c-10 -2 -28 -2 -40 0 -13 2 -5 4 17 4 22 1 32 -1 23 -4z m100 -20 c-10 -2 -28 -2 -40 0 -13 2 -5 4 17 4 22 1 32 -1 23 -4z m85 -20 c-13 -2 -33 -2 -45 0 -13 2 -3 4 22 4 25 0 35 -2 23 -4z m-518 -23 c9 -15 -17 -90 -32 -90 -15 0 -17 38 -3 74 10 27 24 33 35 16z m603 3 c-10 -2 -26 -2 -35 0 -10 3 -2 5 17 5 19 0 27 -2 18 -5z m-2088 -30 c25 -9 63 -19 85 -22 43 -7 42 -5 28 -80 -11 -61 -26 -68 -109 -48 -38 10 -77 17 -86 17 -22 0 -23 27 -6 99 13 57 19 60 88 34z m2183 10 c-13 -2 -33 -2 -45 0 -13 2 -3 4 22 4 25 0 35 -2 23 -4z m95 -20 c-10 -2 -28 -2 -40 0 -13 2 -5 4 17 4 22 1 32 -1 23 -4z m-1529 -72 c-5 -20 -9 -39 -9 -43 0 -5 -7 -8 -16 -8 -13 0 -15 7 -9 43 4 23 12 48 18 55 17 21 26 -5 16 -47z m1686 40 l40 -9 -40 -1 c-23 0 -45 3 -50 8 -6 5 -23 12 -40 14 -16 2 -12 3 10 1 22 -2 58 -8 80 -13z m-2221 3 c9 -4 16 -17 16 -33 -1 -38 -24 -119 -39 -133 -18 -19 -50 27 -51 71 0 33 1 34 16 15 14 -18 15 -16 11 28 -6 59 3 69 47 52z m2334 -31 c-10 -2 -28 -2 -40 0 -13 2 -5 4 17 4 22 1 32 -1 23 -4z m107 -22 c3 -6 -10 -7 -32 -4 -50 8 -55 13 -10 13 20 0 38 -4 42 -9z m-2803 -58 c-2 -21 -7 -42 -12 -48 -4 -5 -10 -24 -13 -40 -2 -17 -3 -12 -1 10 6 71 16 126 22 120 3 -3 5 -22 4 -42z m2876 40 c-10 -2 -28 -2 -40 0 -13 2 -5 4 17 4 22 1 32 -1 23 -4z m90 -20 c-10 -2 -28 -2 -40 0 -13 2 -5 4 17 4 22 1 32 -1 23 -4z m122 -23 c49 -13 89 -21 133 -27 20 -3 40 -9 43 -14 3 -5 23 -9 45 -9 21 0 39 -5 39 -10 0 -6 -12 -8 -27 -4 -16 3 -50 10 -78 16 -27 5 -58 14 -67 19 -10 5 -30 9 -45 9 -40 0 -143 23 -143 32 0 8 41 3 100 -12z m-1506 -58 c-8 -46 -22 -74 -34 -67 -10 6 -2 71 12 98 15 29 29 9 22 -31z m1839 -19 c-13 -2 -33 -2 -45 0 -13 2 -3 4 22 4 25 0 35 -2 23 -4z m157 -32 l45 -10 -50 4 c-27 3 -68 9 -90 14 l-40 10 45 -4 c25 -2 65 -8 90 -14z m-3635 -136 l-15 -50 5 45 c3 25 9 63 13 85 l7 40 2 -35 c2 -19 -4 -57 -12 -85z m3825 95 c25 -6 68 -16 95 -21 28 -6 68 -15 90 -19 22 -5 54 -12 70 -15 17 -4 39 -10 50 -15 11 -5 38 -11 60 -14 84 -13 111 -18 130 -26 11 -4 61 -16 110 -25 50 -10 106 -21 125 -26 31 -7 29 -7 -15 -4 -27 2 -70 8 -95 14 -25 7 -83 19 -130 27 -47 8 -89 19 -94 24 -6 6 -27 10 -47 10 -21 0 -41 5 -44 10 -3 6 -21 10 -38 10 -18 1 -59 8 -92 16 -60 16 -109 27 -195 44 -25 5 -63 14 -85 19 l-40 10 50 -4 c28 -2 70 -9 95 -15z m-3711 -124 c31 -8 69 -17 84 -20 27 -6 28 -8 21 -54 -9 -62 -21 -84 -42 -78 -9 3 -50 10 -91 16 -41 6 -77 13 -80 15 -4 5 17 113 26 128 6 10 17 9 82 -7z m-142 -88 c-2 -13 -4 -3 -4 22 0 25 2 35 4 23 2 -13 2 -33 0 -45z m356 17 c-4 -98 -28 -150 -53 -120 -10 12 -10 27 0 74 7 33 9 64 5 71 -5 8 2 11 21 8 25 -3 29 -7 27 -33z m4420 -7 c48 -12 87 -25 87 -29 0 -8 -91 10 -200 39 l-35 10 30 1 c17 1 69 -9 118 -21z m-4489 -30 c4 -17 2 -28 -4 -28 -5 0 -10 14 -10 32 0 36 4 35 14 -4z m-314 -107 c-17 -79 -18 -81 -19 -34 -1 23 4 45 9 48 6 3 11 23 11 43 1 21 3 29 6 18 3 -11 0 -45 -7 -75z m4930 72 c0 -5 -12 -62 -26 -128 -14 -66 -29 -142 -34 -170 -20 -121 -30 -176 -50 -270 -11 -55 -23 -115 -27 -132 -3 -18 -10 -33 -14 -33 -13 0 -12 9 21 170 17 80 41 204 55 275 14 72 30 148 35 170 5 22 12 59 16 83 3 23 10 42 15 42 5 0 9 -3 9 -7z m-4963 -215 c-2 -13 -4 -3 -4 22 0 25 2 35 4 23 2 -13 2 -33 0 -45z m-3132 -58 c39 -9 97 -23 130 -30 33 -7 71 -16 85 -20 14 -4 50 -13 80 -19 56 -12 83 -18 203 -46 37 -8 97 -22 135 -30 37 -9 85 -20 107 -25 22 -5 78 -18 125 -29 76 -17 275 -63 400 -92 25 -6 61 -14 80 -19 19 -5 49 -12 65 -15 66 -13 113 -24 170 -38 33 -8 123 -29 200 -47 77 -18 187 -43 245 -57 98 -23 177 -41 275 -63 22 -5 78 -18 125 -29 47 -11 110 -25 140 -31 30 -7 71 -16 90 -21 48 -13 167 -39 213 -46 46 -7 50 -13 41 -58 -8 -43 -10 -44 -168 -6 -66 16 -200 48 -296 70 -96 23 -212 51 -257 61 -133 32 -255 60 -303 71 -25 6 -61 14 -80 19 -19 5 -64 16 -100 24 -36 8 -114 27 -175 41 -60 14 -150 35 -200 46 -93 22 -139 32 -202 48 -21 6 -58 14 -83 20 -25 6 -92 22 -150 35 -58 14 -127 31 -155 36 -27 6 -66 15 -85 19 -47 11 -215 51 -265 63 -22 5 -58 13 -80 18 -22 4 -69 15 -105 24 -36 10 -83 21 -105 26 -224 50 -255 64 -255 112 0 18 5 19 43 13 23 -4 74 -15 112 -25z m3241 16 c27 -8 66 -17 87 -20 43 -8 45 -16 21 -95 -10 -36 -20 -51 -29 -48 -7 3 -52 13 -99 23 -47 9 -86 22 -86 28 1 13 18 95 25 114 6 16 20 15 81 -2z m-140 -96 c-18 -68 -21 -28 -3 49 8 38 13 47 15 30 2 -13 -4 -49 -12 -79z m364 55 c10 -12 10 -25 0 -63 -20 -78 -31 -101 -45 -96 -22 9 -25 31 -10 68 8 20 15 48 15 64 0 43 17 55 40 27z m-73 -72 c-3 -10 -5 -2 -5 17 0 19 2 27 5 18 2 -10 2 -26 0 -35z m4035 6 c13 -7 16 -17 11 -42 -3 -17 -7 -34 -9 -36 -2 -2 -25 1 -51 5 -52 10 -61 23 -43 68 9 25 14 27 43 21 17 -4 40 -11 49 -16z m396 -56 c-10 -2 -26 -2 -35 0 -10 3 -2 5 17 5 19 0 27 -2 18 -5z m-4751 -55 c-2 -13 -4 -5 -4 17 -1 22 1 32 4 23 2 -10 2 -28 0 -40z m4721 27 c33 -7 36 -13 26 -52 -11 -40 -104 -25 -104 17 0 32 12 51 29 46 9 -2 31 -7 49 -11z m-438 -38 c0 -6 -7 -44 -15 -82 -8 -39 -22 -104 -30 -145 -30 -151 -37 -186 -50 -245 -7 -33 -21 -96 -30 -140 -9 -44 -20 -96 -25 -115 -25 -106 -30 -132 -30 -154 0 -30 -14 -41 -68 -55 -54 -15 -64 -8 -45 30 9 17 19 61 24 98 10 78 19 122 49 256 12 55 26 123 30 150 17 112 34 189 61 280 6 22 12 54 14 70 1 17 3 35 3 42 1 7 23 14 50 16 26 2 50 4 55 5 4 1 7 -4 7 -11z m144 -13 c101 -26 129 -32 191 -44 33 -7 85 -17 115 -24 l55 -12 -3 -45 c-1 -24 -6 -57 -11 -74 -5 -16 -14 -55 -20 -85 -22 -111 -41 -207 -56 -282 -8 -43 -22 -115 -31 -160 -9 -46 -24 -129 -34 -186 -9 -56 -19 -105 -22 -107 -4 -4 -190 37 -293 65 -16 4 -58 13 -93 20 l-63 13 7 46 c3 25 10 60 14 76 5 17 14 57 20 90 20 101 29 146 49 240 10 50 36 179 57 287 22 109 43 198 48 198 5 0 37 -7 70 -16z m-4453 -93 c-6 -11 -12 -32 -12 -48 -1 -20 -3 -22 -6 -9 -3 11 1 47 8 80 12 52 14 56 17 29 2 -18 -2 -41 -7 -52z m4133 43 c17 -6 20 -33 10 -71 -7 -26 -40 -31 -68 -10 -17 12 -17 18 -7 50 13 37 29 45 65 31z m-3989 -125 c44 -12 82 -23 84 -25 8 -8 -24 -124 -36 -128 -7 -3 -34 1 -60 9 -26 7 -67 16 -90 20 -24 4 -45 10 -48 15 -4 6 12 72 30 128 3 7 13 11 22 8 10 -3 54 -15 98 -27z m-189 -114 l-14 -50 -1 37 c-1 20 4 40 9 43 6 3 11 23 12 43 1 32 2 33 5 7 2 -16 -3 -52 -11 -80z m372 83 c10 -12 8 -33 -13 -125 -8 -35 -28 -49 -44 -29 -7 8 -6 29 4 67 8 29 15 64 15 77 0 24 21 30 38 10z m-412 -255 l-16 -48 5 40 c2 22 8 58 12 80 8 40 8 40 11 8 2 -17 -4 -53 -12 -80z m906 58 c62 -15 158 -38 213 -50 201 -45 235 -54 250 -65 15 -10 14 -22 -5 -116 -12 -58 -27 -130 -35 -160 -8 -30 -22 -95 -31 -144 -10 -48 -23 -94 -30 -101 -14 -14 -20 -13 -269 46 -49 12 -110 25 -135 30 -25 5 -79 16 -120 26 -69 17 -75 21 -78 46 -2 15 13 91 32 170 20 78 43 180 51 226 13 68 31 121 42 121 1 0 53 -13 115 -29z m3250 -41 c-3 -52 -14 -62 -53 -48 -25 8 -28 13 -23 41 10 56 12 58 46 55 32 -3 33 -4 30 -48z m-105 -12 c-2 -13 -4 -5 -4 17 -1 22 1 32 4 23 2 -10 2 -28 0 -40z m946 11 c51 -12 96 -25 101 -30 6 -5 2 -44 -8 -96 -10 -48 -20 -100 -23 -115 -2 -15 -8 -30 -12 -33 -5 -2 -39 2 -77 11 -38 8 -84 17 -102 21 -18 3 -35 9 -37 14 -3 4 1 41 9 81 8 40 17 91 21 113 11 65 2 63 128 34z m-4283 -43 c0 -33 -17 -76 -30 -76 -13 0 -13 41 0 74 12 33 30 34 30 2z m-1105 -5 c39 -11 108 -27 155 -36 111 -22 123 -29 77 -44 -28 -10 -47 -9 -95 4 -33 8 -67 15 -76 15 -17 0 -166 68 -166 75 0 10 37 4 105 -14z m1821 -167 c-4 -15 -10 -39 -13 -55 -7 -39 -33 -38 -33 0 0 43 17 81 36 81 12 0 15 -6 10 -26z m-770 -81 c-9 -48 -20 -68 -35 -59 -12 8 -6 67 11 100 16 30 31 3 24 -41z m-970 7 c13 0 24 -4 24 -8 0 -12 -69 -2 -77 11 -4 7 0 8 11 4 10 -4 29 -7 42 -7z m92 -27 c-10 -2 -28 -2 -40 0 -13 2 -5 4 17 4 22 1 32 -1 23 -4z m162 -32 c137 -31 128 -29 93 -30 -18 0 -58 6 -90 15 -32 9 -76 20 -98 25 l-40 8 45 -4 c25 -2 65 -8 90 -14z m4139 10 c10 -7 11 -18 4 -47 -10 -43 -35 -55 -67 -31 -17 12 -17 18 -7 50 13 38 38 48 70 28z m-3905 -60 c64 -20 116 -31 381 -86 61 -12 128 -27 150 -33 47 -13 315 -75 440 -102 28 -6 97 -22 155 -36 135 -33 354 -84 405 -95 22 -4 66 -15 98 -24 32 -8 67 -15 77 -15 11 0 20 -5 20 -10 0 -10 -10 -9 -95 10 -22 5 -85 19 -140 31 -55 12 -125 28 -155 35 -30 8 -98 23 -150 34 -52 11 -111 24 -130 30 -19 6 -78 20 -130 31 -52 12 -131 29 -175 39 -44 10 -134 30 -200 45 -66 14 -131 30 -145 35 -14 4 -52 13 -85 20 -33 7 -112 25 -175 40 -63 15 -142 33 -175 40 -83 17 -85 18 -41 19 22 1 53 -3 70 -8z m1201 -47 c-9 -62 -14 -74 -32 -74 -13 0 -14 9 -9 52 8 61 12 68 33 68 13 0 14 -8 8 -46z m2957 -83 c62 -15 170 -41 241 -56 71 -16 127 -33 127 -39 0 -6 -7 -21 -15 -32 -14 -20 -16 -21 -67 -6 -29 8 -75 18 -103 22 -68 9 -184 37 -278 66 -43 13 -90 24 -105 24 -15 0 -34 4 -42 10 -12 8 -12 10 4 16 76 29 108 29 238 -5z m-148 -61 c7 0 20 -6 30 -13 14 -10 15 -18 7 -40 -10 -26 -14 -27 -48 -21 -50 9 -65 22 -57 48 8 26 24 37 42 31 8 -3 19 -5 26 -5z m440 -110 c4 -4 5 -22 1 -40 -7 -31 -8 -31 -48 -25 -23 4 -45 9 -49 12 -10 5 -10 57 -1 67 9 8 84 -3 97 -14z m-419 -20 c23 -24 12 -26 -50 -9 -63 16 -67 18 -59 30 10 17 85 2 109 -21z m373 -82 c48 -14 40 -31 -10 -23 -60 10 -90 23 -83 35 6 10 31 7 93 -12z m-2528 -29 c47 -11 105 -25 130 -30 25 -6 61 -14 80 -19 19 -5 80 -19 135 -30 55 -12 108 -25 117 -30 10 -6 29 -10 43 -10 14 0 58 -8 98 -19 39 -10 97 -24 127 -30 30 -7 123 -28 205 -47 83 -19 191 -44 240 -55 50 -11 117 -26 150 -34 159 -37 241 -56 480 -110 33 -8 119 -28 190 -44 195 -46 329 -77 440 -101 98 -21 176 -48 144 -49 -16 -1 -78 13 -374 81 -71 17 -150 34 -175 39 -25 5 -92 21 -150 35 -98 24 -132 31 -292 68 -166 38 -200 46 -298 70 -58 13 -130 30 -160 36 -61 13 -209 48 -370 86 -58 14 -125 29 -150 35 -25 6 -61 14 -80 19 -33 9 -145 34 -295 67 -38 8 -92 21 -120 28 -27 7 -74 18 -102 24 -110 23 -153 35 -153 43 0 9 9 8 140 -23z"/>
<path d="M5010 11043 c-16 -5 -211 -79 -245 -93 -11 -4 -35 -14 -53 -20 -63 -24 -66 -61 -16 -168 78 -169 99 -207 126 -221 31 -18 51 -13 178 42 19 8 61 25 94 36 156 54 168 75 109 193 -23 46 -53 109 -68 141 -40 88 -69 109 -125 90z m59 -126 c12 -28 39 -88 61 -131 21 -44 37 -83 34 -87 -2 -4 -21 -13 -42 -19 -20 -7 -50 -18 -67 -25 -16 -7 -57 -23 -90 -35 -33 -13 -64 -27 -69 -32 -6 -4 -22 -8 -38 -8 -23 0 -31 7 -49 48 -11 26 -39 84 -60 128 -21 45 -39 84 -39 87 0 2 37 19 83 37 80 32 137 55 187 77 51 23 66 17 89 -40z"/>
<path d="M4030 10663 c-8 -2 -26 -9 -40 -15 -29 -12 -39 -16 -145 -56 -44 -17 -90 -33 -102 -37 -40 -11 -73 -45 -73 -75 0 -15 15 -61 34 -102 19 -40 47 -102 63 -138 17 -36 38 -72 48 -80 18 -15 89 -17 108 -2 13 10 124 55 195 79 65 21 105 47 121 74 15 27 20 13 -87 240 -54 115 -70 130 -122 112z m31 -93 c4 -8 26 -55 49 -105 22 -49 45 -98 51 -107 19 -36 11 -54 -33 -68 -24 -7 -47 -17 -52 -22 -6 -4 -16 -8 -23 -8 -7 0 -32 -9 -56 -19 -126 -56 -160 -60 -173 -18 -4 12 -29 68 -55 124 -27 56 -49 106 -49 110 0 8 83 43 215 90 39 14 74 30 80 35 13 12 36 6 46 -12z"/>
<path d="M4850 9902 c-19 -9 -53 -23 -75 -31 -22 -7 -46 -18 -52 -23 -28 -23 -8 -102 34 -141 21 -18 109 -22 119 -5 3 5 26 18 50 30 25 11 51 33 59 47 12 24 11 32 -13 81 -23 47 -31 55 -57 57 -16 2 -46 -5 -65 -15z m80 -49 c0 -13 -3 -13 -15 -3 -12 10 -21 10 -44 0 -16 -6 -38 -10 -48 -8 -11 2 2 10 32 19 54 18 75 15 75 -8z m-12 -47 c13 -30 6 -38 -61 -60 -63 -21 -71 -20 -87 9 -16 29 -19 26 45 53 66 28 89 28 103 -2z"/>
<path d="M6025 9904 c-96 -24 -167 -116 -151 -194 7 -37 159 -348 183 -376 69 -80 185 -85 277 -13 34 27 56 75 56 123 0 30 -105 270 -168 384 -28 50 -135 91 -197 76z m98 -48 c51 -21 71 -51 152 -219 76 -160 87 -201 64 -250 -10 -23 -47 -52 -55 -44 -2 2 3 20 11 40 8 20 15 49 15 64 0 31 -132 316 -162 350 -33 36 -73 48 -119 34 -50 -15 -79 -43 -79 -76 0 -33 5 -32 44 10 37 39 74 45 98 18 8 -10 54 -94 101 -186 l85 -169 -20 -20 c-13 -13 -28 -18 -45 -15 -31 6 -83 -13 -83 -31 0 -19 28 -26 65 -15 43 14 69 -1 41 -22 -36 -27 -84 -17 -134 29 -36 32 -182 339 -182 382 0 97 108 161 203 120z"/>
<path d="M4855 9263 c-11 -3 -35 -19 -52 -36 -30 -28 -33 -37 -33 -88 0 -53 2 -59 40 -93 36 -32 46 -36 94 -36 39 0 60 6 80 21 33 26 56 69 56 106 0 34 -31 86 -62 107 -26 17 -92 27 -123 19z m80 -47 c39 -17 55 -42 55 -88 -1 -41 -20 -68 -49 -68 -15 0 -21 6 -21 24 0 29 -38 56 -80 56 -48 0 -32 51 23 75 40 18 32 17 72 1z m-47 -139 c3 -26 1 -28 -20 -21 -23 7 -47 31 -48 47 0 5 15 7 33 5 27 -3 33 -7 35 -31z"/>
<path d="M4090 9174 c-88 -31 -140 -111 -125 -191 8 -44 141 -322 168 -351 50 -54 132 -76 194 -51 63 25 76 35 104 76 45 64 40 108 -25 245 -30 62 -63 133 -74 158 -25 53 -37 68 -79 98 -42 30 -107 36 -163 16z m120 -40 c51 -20 61 -36 144 -217 75 -164 81 -204 35 -253 -34 -36 -42 -29 -19 16 11 21 20 53 20 70 0 18 -31 95 -75 186 -69 142 -78 156 -112 170 -48 21 -98 11 -136 -27 -26 -27 -29 -35 -24 -77 3 -30 30 -100 75 -194 63 -132 74 -148 96 -148 14 0 28 -4 31 -10 3 -5 19 -10 35 -10 16 0 32 -4 35 -10 11 -19 -98 -11 -130 9 -39 24 -185 313 -185 367 0 65 29 101 105 131 41 16 58 15 105 -3z m-14 -68 c19 -14 62 -93 136 -253 28 -60 28 -66 14 -88 -22 -33 -73 -46 -109 -28 -26 13 -77 81 -77 103 0 15 20 12 21 -2 0 -10 2 -10 5 -1 6 13 -30 94 -75 171 -37 63 -38 76 -9 96 28 20 67 20 94 2z"/>
<path d="M5732 9128 c-17 -17 -15 -36 7 -47 15 -9 18 -18 14 -54 -4 -32 -1 -48 11 -60 19 -18 53 -11 70 16 14 21 -16 83 -43 92 -12 4 -18 12 -14 21 5 14 -13 44 -26 44 -4 0 -12 -5 -19 -12z"/>
<path d="M5501 9059 c-52 -21 -121 -48 -155 -60 -105 -36 -116 -41 -116 -59 0 -21 29 -80 39 -80 5 0 34 11 66 25 32 14 60 23 63 21 3 -3 13 -23 22 -44 l17 -38 -35 -60 c-19 -32 -35 -70 -35 -84 0 -34 35 -105 52 -105 7 0 25 30 40 67 14 36 29 70 33 73 4 4 21 -4 38 -19 53 -44 151 -28 197 33 15 19 17 94 3 119 -5 9 -34 70 -65 135 -30 64 -58 117 -62 116 -5 0 -50 -18 -102 -40z m108 -48 c0 -10 -2 -11 -6 -3 -2 6 -13 12 -24 12 -29 0 -129 -47 -135 -64 -3 -8 10 -49 30 -91 20 -42 36 -80 36 -85 0 -4 -9 -10 -20 -13 -13 -3 -29 -25 -43 -56 -12 -28 -28 -51 -34 -51 -20 0 -16 14 27 94 22 41 36 77 32 80 -5 3 -14 23 -22 45 -7 23 -21 48 -31 57 -16 15 -22 15 -68 -1 -28 -9 -57 -15 -64 -12 -14 5 28 24 163 73 52 19 104 39 115 43 23 10 45 -4 44 -28z m3 -112 c20 -41 37 -84 37 -95 1 -29 -22 -46 -56 -42 -24 3 -34 15 -70 88 -24 47 -43 88 -43 91 0 9 72 39 85 35 6 -1 27 -36 47 -77z m78 -68 c0 -9 -6 -4 -15 13 -8 15 -15 36 -15 45 0 9 6 4 15 -13 8 -15 15 -36 15 -45z m3 -79 c-11 -14 -37 -32 -60 -40 -36 -13 -43 -14 -55 -1 -13 13 -10 15 24 15 43 2 62 14 86 58 13 26 17 28 20 12 2 -10 -5 -30 -15 -44z"/>
<path d="M5830 8925 c-19 -7 -35 -17 -35 -21 0 -16 43 -90 59 -103 18 -15 67 -2 97 25 17 16 17 19 -7 65 -27 54 -44 59 -114 34z m80 -45 c8 -15 6 -21 -9 -30 -11 -5 -22 -10 -25 -10 -10 0 -27 40 -21 50 10 17 44 11 55 -10z"/>
<path d="M6033 8850 c-52 -23 -55 -46 -8 -66 47 -19 58 -18 89 11 26 24 27 28 13 48 -19 29 -43 31 -94 7z"/>
<path d="M5903 8733 c-23 -9 -14 -34 16 -44 34 -12 45 -31 46 -78 0 -50 21 -49 44 3 26 55 26 68 4 94 -18 19 -85 35 -110 25z"/>
<path d="M6163 8681 c-9 -23 -22 -41 -29 -41 -20 0 -65 -61 -62 -84 3 -19 10 -21 78 -23 41 0 87 -4 103 -8 23 -6 27 -4 27 13 0 11 -13 46 -30 77 -16 31 -30 63 -30 71 0 7 -9 18 -21 24 -18 10 -22 7 -36 -29z m46 -86 c0 -18 -1 -17 -14 5 -20 34 -20 60 0 34 8 -10 14 -28 14 -39z m-59 -20 c0 -8 -7 -15 -15 -15 -8 0 -15 7 -15 15 0 8 7 15 15 15 8 0 15 -7 15 -15z"/>
<path d="M5680 8627 c-69 -27 -150 -58 -180 -70 -30 -11 -58 -23 -63 -27 -11 -10 107 -241 139 -272 45 -42 107 -54 174 -35 125 38 190 97 190 174 0 27 -110 267 -127 275 -4 3 -64 -17 -133 -45z m146 -56 c14 -24 23 -48 21 -55 -3 -6 -10 3 -18 19 -27 61 -55 78 -97 56 -9 -5 -62 -27 -117 -48 -81 -32 -101 -44 -106 -63 -4 -14 -7 -20 -8 -13 -1 6 -4 18 -7 27 -4 11 3 19 23 27 15 7 47 20 70 30 24 11 51 19 61 19 10 0 22 4 28 9 13 13 96 41 113 38 7 -1 24 -22 37 -46z m-13 -95 c48 -98 43 -113 -51 -152 l-64 -28 -36 20 c-35 19 -102 117 -102 150 0 8 15 21 33 28 75 33 163 65 172 63 6 -2 27 -38 48 -81z m83 -111 c-13 -50 -100 -105 -166 -104 l-35 0 45 15 c110 37 139 65 141 136 l1 33 10 -28 c5 -15 7 -39 4 -52z m-241 -91 l30 -13 -29 -1 c-31 0 -96 58 -96 86 0 8 14 -1 32 -22 18 -20 46 -43 63 -50z"/>
<path d="M6053 8453 c-16 -6 -17 -39 -2 -49 6 -3 22 -31 35 -61 14 -32 30 -53 37 -50 20 6 51 92 43 120 -8 33 -75 56 -113 40z m77 -58 c0 -8 -4 -15 -9 -15 -5 0 -11 7 -15 15 -3 9 0 15 9 15 8 0 15 -7 15 -15z"/>
<path d="M6260 8385 c-28 -29 -32 -39 -24 -53 15 -23 47 -26 84 -7 40 20 53 54 32 78 -23 26 -55 20 -92 -18z"/>
<path d="M6195 8270 c-10 -11 -24 -37 -31 -57 -11 -30 -10 -41 4 -69 19 -41 32 -42 89 -9 52 31 55 52 15 110 -33 47 -51 53 -77 25z m61 -62 c6 -20 -18 -47 -43 -48 -16 0 -17 44 -1 70 14 21 33 12 44 -22z"/>
<path d="M5918 8235 c-43 -19 -122 -50 -175 -70 -54 -20 -102 -41 -107 -45 -11 -11 21 -80 37 -80 7 0 43 14 82 30 38 17 70 30 72 30 1 0 20 -39 43 -87 40 -86 44 -113 17 -113 -8 0 -37 -10 -66 -21 -57 -24 -65 -45 -32 -89 19 -23 21 -24 58 -11 21 8 56 22 78 31 22 10 56 23 75 30 19 7 54 21 77 31 24 11 49 19 57 19 7 0 24 8 36 18 22 18 22 19 5 55 -20 43 -26 44 -84 16 -81 -39 -89 -35 -137 61 -23 47 -40 88 -37 92 2 4 29 15 61 24 81 25 89 34 68 78 -10 21 -24 36 -34 35 -9 0 -52 -16 -94 -34z m87 -15 c-3 -5 -35 -23 -70 -39 -55 -26 -65 -34 -65 -56 0 -14 4 -25 9 -25 10 0 36 -58 29 -66 -3 -3 -16 18 -29 45 -27 57 -39 61 -109 36 -23 -8 -52 -15 -64 -15 -19 1 196 93 302 129 2 1 0 -3 -3 -9z m125 -279 c0 -7 -66 -35 -273 -113 -15 -6 -30 -8 -34 -4 -3 3 24 20 62 37 41 18 69 38 72 49 4 16 8 17 24 7 14 -9 30 -7 76 10 67 25 73 26 73 14z"/>
<path d="M5333 8090 c-73 -33 -89 -64 -56 -107 29 -40 52 -43 127 -18 76 26 96 39 79 56 -7 7 -29 3 -73 -15 -77 -31 -87 -32 -95 -5 -9 27 3 38 66 60 52 19 72 35 63 51 -9 15 -49 7 -111 -22z"/>
<path d="M6262 8088 c-30 -15 -26 -54 9 -81 22 -15 30 -17 48 -8 25 14 27 43 5 76 -18 27 -27 29 -62 13z"/>
<path d="M6306 7971 c-11 -18 6 -41 30 -41 19 0 24 5 24 25 0 20 -5 25 -24 25 -14 0 -27 -4 -30 -9z"/>
<path d="M5425 7936 c-13 -20 -14 -29 -5 -46 15 -27 6 -50 -19 -50 -20 0 -31 18 -31 50 0 25 -17 35 -35 20 -33 -27 17 -110 65 -110 39 0 61 30 59 79 -2 22 0 43 3 47 9 8 42 -31 48 -57 7 -28 24 -25 28 6 9 67 -79 114 -113 61z"/>
<path d="M5540 7821 c-8 -5 -45 -19 -82 -31 -52 -18 -68 -27 -68 -42 0 -22 28 -80 44 -90 17 -12 61 -9 74 4 7 7 30 17 50 23 32 9 37 15 40 44 3 32 -22 101 -36 101 -4 0 -14 -4 -22 -9z m15 -70 c0 -31 -21 -38 -35 -11 -13 24 -5 42 18 38 10 -2 17 -13 17 -27z m-70 -30 c0 -30 -17 -37 -38 -16 -21 20 -10 47 17 43 15 -2 21 -10 21 -27z"/>
<path d="M6080 7693 c-30 -14 -80 -33 -110 -43 -42 -13 -56 -22 -58 -39 -5 -29 20 -36 59 -17 43 21 45 21 63 -16 21 -41 20 -48 -10 -102 -16 -29 -23 -53 -19 -66 10 -32 30 -24 50 20 20 45 23 46 62 24 27 -16 31 -16 66 0 35 18 54 46 48 76 -1 8 -18 48 -37 88 -19 41 -34 77 -34 82 0 18 -28 16 -80 -7z m82 -109 l32 -67 -23 -18 c-12 -10 -28 -16 -34 -13 -7 2 -28 35 -46 71 -31 63 -32 68 -15 80 36 26 53 16 86 -53z"/>
<path d="M5655 7522 c-37 -21 -96 -42 -118 -42 -28 0 -30 -20 -7 -66 19 -35 30 -45 57 -50 52 -10 111 11 133 48 18 29 18 33 2 76 -9 25 -22 46 -27 48 -6 1 -23 -5 -40 -14z m33 -69 c2 -13 -6 -27 -20 -37 -25 -18 -87 -22 -89 -6 -1 6 -2 15 -3 21 -1 12 82 50 99 45 6 -1 11 -12 13 -23z"/>
<path d="M6154 7381 c-83 -39 -96 -69 -63 -147 13 -31 39 -72 56 -91 28 -31 38 -35 66 -30 57 9 130 50 149 84 19 31 18 32 -3 80 -39 89 -44 96 -74 115 -40 24 -59 22 -131 -11z m118 -38 c8 -10 25 -40 37 -66 25 -56 21 -66 -40 -98 -66 -33 -83 -27 -120 44 -20 39 -30 70 -26 81 8 19 81 55 113 56 11 0 28 -8 36 -17z"/>
<path d="M5660 7329 c0 -22 41 -99 54 -99 24 0 24 11 4 61 -14 34 -26 49 -39 49 -11 0 -19 -5 -19 -11z"/>
<path d="M5768 7204 c-25 -13 -61 -25 -80 -27 -49 -4 -49 -50 1 -109 17 -22 64 -23 85 -3 8 8 24 15 35 15 35 0 64 37 57 73 -7 33 -32 77 -44 76 -4 0 -28 -12 -54 -25z m60 -61 c4 -25 -16 -31 -36 -11 -20 20 -14 40 11 36 14 -2 23 -11 25 -25z m-75 -15 c6 -20 -7 -48 -22 -48 -3 0 -12 9 -19 21 -10 16 -10 24 -1 35 17 21 36 17 42 -8z"/>
<path d="M6385 7112 c-6 -4 -35 -19 -65 -31 -129 -55 -121 -50 -114 -78 13 -49 73 -162 93 -172 31 -17 57 -13 89 14 17 14 42 25 56 25 31 0 66 32 66 61 0 12 -18 59 -40 105 -38 82 -58 99 -85 76z m57 -118 c26 -55 29 -67 17 -75 -26 -17 -44 -4 -73 53 -31 60 -29 88 4 88 15 0 28 -16 52 -66z m-100 -25 c39 -79 35 -108 -15 -95 -15 4 -30 23 -45 58 -27 64 -27 74 -4 87 26 16 35 9 64 -50z"/>
<path d="M5783 7008 l-52 -52 -19 24 c-20 25 -42 20 -42 -9 0 -39 27 -46 158 -43 54 2 72 5 72 16 0 19 -22 26 -64 19 -44 -7 -45 1 -5 38 19 17 29 35 25 44 -9 23 -17 19 -73 -37z"/>
<path d="M5896 6892 c-3 -9 -23 -26 -43 -37 -28 -15 -39 -27 -41 -48 -4 -33 13 -57 39 -57 22 0 25 20 7 39 -11 10 -9 15 6 27 28 20 57 17 63 -6 7 -27 39 -22 35 4 -2 11 2 30 9 43 15 28 7 38 -38 46 -25 5 -33 2 -37 -11z"/>
<path d="M6434 6796 c-54 -25 -84 -57 -84 -91 0 -28 54 -137 80 -160 33 -29 105 -26 162 8 67 39 73 76 29 171 -45 98 -90 116 -187 72z m143 -96 c18 -37 28 -70 24 -78 -4 -7 -30 -24 -58 -37 -46 -21 -53 -22 -72 -8 -23 16 -71 106 -71 133 0 9 10 21 23 27 101 48 114 45 154 -37z"/>
<path d="M5907 6734 c-40 -22 -51 -57 -31 -100 11 -22 23 -34 36 -34 16 0 19 4 13 23 -23 76 -12 95 17 27 19 -47 38 -50 68 -13 25 32 20 69 -12 96 -25 21 -54 21 -91 1z m81 -60 c-10 -10 -28 6 -28 24 0 15 1 15 17 -1 9 -9 14 -19 11 -23z"/>
<path d="M6670 6516 c0 -14 5 -28 10 -31 6 -3 10 -15 10 -26 0 -21 -19 -31 -121 -67 -41 -14 -55 -24 -57 -40 -5 -35 27 -33 115 9 83 39 96 38 118 -11 12 -26 25 -40 37 -40 24 0 23 28 -2 77 -11 21 -31 64 -45 96 -19 41 -31 57 -45 57 -15 0 -20 -7 -20 -24z"/>
<path d="M6051 6426 c-76 -77 -70 -91 39 -91 78 0 85 2 85 20 0 18 -6 20 -52 18 -29 -1 -53 0 -53 4 0 3 17 20 37 38 25 22 35 37 30 48 -11 28 -30 20 -86 -37z"/>
<path d="M6184 6305 c-4 -8 -1 -21 4 -28 9 -10 0 -17 -36 -30 l-47 -18 -18 26 c-19 25 -37 25 -37 0 0 -8 11 -39 24 -70 19 -42 29 -53 41 -49 11 5 15 14 11 30 -6 23 3 28 122 69 19 7 14 40 -11 63 -27 26 -45 28 -53 7z"/>
<path d="M6711 6224 c-58 -25 -107 -46 -109 -48 -2 -3 -1 -14 3 -25 6 -21 39 -29 49 -12 3 5 47 24 97 42 94 35 110 48 89 74 -15 19 -6 21 -129 -31z"/>
<path d="M6748 6114 c-43 -22 -78 -64 -78 -93 0 -16 63 -145 75 -153 39 -28 42 16 4 93 -33 69 -33 70 -14 88 11 10 39 25 62 34 39 15 43 15 65 -2 13 -10 29 -36 37 -57 8 -22 21 -49 29 -61 16 -26 52 -31 52 -7 0 28 -62 144 -87 164 -34 27 -87 25 -145 -6z"/>
<path d="M6125 6100 c-8 -26 6 -43 31 -38 13 2 19 12 19 28 0 34 -40 41 -50 10z"/>
<path d="M6310 6045 c-10 -12 -10 -18 0 -30 10 -12 5 -18 -35 -35 -57 -24 -52 -24 -58 0 -6 24 -47 28 -47 5 0 -15 4 -26 33 -80 21 -41 47 -45 47 -8 0 26 6 31 65 53 53 20 65 28 65 46 0 13 -12 31 -29 43 -25 18 -30 19 -41 6z"/>
<path d="M6950 5883 c-29 -11 -50 -36 -50 -60 0 -13 12 -49 26 -80 22 -50 23 -58 10 -71 -24 -24 -44 -7 -81 70 -43 87 -47 92 -67 76 -15 -12 -13 -21 22 -94 52 -112 96 -139 154 -93 33 26 33 55 0 126 -27 61 -26 83 6 83 15 0 28 -18 55 -75 27 -56 41 -75 55 -75 27 0 25 21 -11 95 -40 83 -76 113 -119 98z"/>
<path d="M6252 5841 c-23 -14 -10 -46 18 -46 20 0 25 5 25 25 0 26 -20 36 -43 21z"/>
<path d="M6365 5766 c-28 -12 -56 -34 -64 -49 -12 -23 -11 -29 8 -56 17 -24 30 -31 55 -31 39 0 97 22 120 45 25 25 20 70 -10 94 -34 27 -47 26 -109 -3z m85 -31 c10 -12 10 -19 2 -27 -15 -15 -48 14 -38 31 10 15 21 14 36 -4z m-67 -25 c-4 -15 0 -20 13 -21 17 0 16 -2 -3 -11 -26 -12 -53 -5 -53 15 0 11 14 22 47 36 0 1 -1 -8 -4 -19z"/>
<path d="M7379 5645 c-14 -7 -72 -32 -130 -55 -57 -23 -117 -47 -134 -54 -28 -12 -163 -67 -210 -86 -11 -4 -36 -15 -55 -23 -19 -9 -71 -30 -115 -47 -44 -18 -98 -40 -120 -50 -22 -10 -58 -25 -80 -34 -73 -31 -119 -92 -109 -143 5 -27 2 -30 -45 -47 -74 -26 -80 -44 -41 -123 18 -36 39 -67 47 -70 9 -3 35 4 59 16 51 24 64 26 64 9 0 -7 -20 -21 -45 -32 -67 -27 -72 -44 -35 -121 34 -71 54 -84 100 -60 31 16 40 34 18 36 -7 1 -2 4 12 8 17 5 31 3 43 -7 26 -22 21 -31 -25 -51 -24 -10 -51 -28 -62 -39 -18 -21 -18 -22 0 -67 11 -25 29 -58 40 -73 l22 -27 42 23 c58 31 75 28 97 -15 27 -51 65 -62 124 -35 24 11 103 43 174 72 72 28 154 63 183 76 29 13 55 24 57 24 2 0 34 14 70 30 36 17 69 30 74 30 4 0 21 6 37 14 16 8 81 35 144 62 63 26 126 55 139 63 29 19 61 91 61 140 0 33 4 39 35 54 20 9 38 24 42 33 8 21 -14 85 -42 120 l-22 27 -42 -16 c-53 -22 -71 -21 -71 1 0 13 13 24 40 35 23 9 40 22 40 31 0 20 -36 20 -70 1 -35 -20 -37 -19 -55 23 -9 20 -23 49 -31 64 -19 35 -19 35 21 53 47 23 51 45 20 110 -37 74 -47 81 -89 61 -46 -22 -53 -21 -71 13 -15 30 -51 61 -70 61 -5 -1 -22 -7 -36 -15z m110 -149 c24 -50 91 -185 148 -299 56 -114 103 -214 103 -221 0 -8 -55 -36 -132 -66 -73 -29 -137 -56 -143 -60 -5 -4 -21 -11 -35 -15 -14 -4 -50 -19 -80 -33 -83 -37 -108 -48 -195 -82 -44 -17 -104 -43 -133 -56 -29 -13 -55 -24 -58 -24 -3 0 -34 -14 -70 -31 -35 -17 -71 -29 -79 -25 -8 3 -28 34 -44 68 -44 95 -120 256 -200 422 -82 169 -82 159 14 196 33 12 79 31 102 41 24 11 49 19 56 19 7 0 17 4 23 9 5 4 41 20 79 35 39 15 86 35 105 43 19 8 44 19 55 23 11 4 47 19 80 33 33 14 96 40 140 57 44 17 94 37 110 44 70 31 80 33 95 23 8 -5 35 -50 59 -101z m116 18 c18 -39 13 -52 -24 -56 -18 -2 -28 5 -43 31 -10 18 -18 34 -16 36 12 9 45 24 54 25 7 0 19 -16 29 -36z m-1115 -360 c0 -8 -7 -14 -15 -14 -10 0 -15 10 -15 26 0 22 2 25 15 14 8 -7 15 -19 15 -26z m1313 -19 l17 -36 -32 -14 c-38 -16 -43 -14 -64 27 -15 30 -15 32 2 45 32 24 59 16 77 -22z m-1313 -67 c27 -45 25 -54 -11 -67 -48 -16 -55 -14 -73 23 -21 45 -21 45 17 61 44 19 45 19 67 -17z m89 -89 c16 -37 12 -43 -23 -30 -27 11 -30 18 -20 45 10 25 28 19 43 -15z m6 -109 c10 -22 16 -42 14 -44 -6 -5 -110 -56 -115 -56 -2 0 -13 17 -23 39 -19 36 -19 40 -3 54 18 16 79 45 98 46 6 1 19 -17 29 -39z m1123 28 c-6 -17 -26 -27 -223 -109 -93 -39 -183 -76 -200 -83 -229 -101 -498 -207 -509 -203 -24 9 -48 66 -41 95 l6 25 19 -31 c11 -17 31 -34 46 -38 32 -8 44 -4 289 99 105 44 226 94 270 112 44 17 96 39 115 47 19 9 71 31 115 49 44 18 84 37 90 41 14 12 27 10 23 -4z m-1018 -150 c0 -14 -20 -8 -40 12 -22 22 -23 29 -13 55 5 14 11 10 29 -21 13 -22 24 -42 24 -46z m-12 -63 c21 -45 15 -64 -20 -73 -41 -11 -52 -7 -67 24 -16 36 -14 42 17 58 39 22 57 19 70 -9z m-103 -76 c9 -16 11 -29 6 -29 -8 0 -41 54 -41 67 0 12 22 -12 35 -38z"/>
<path d="M8438 5023 c-16 -8 -28 -17 -28 -21 0 -4 13 -34 30 -67 16 -33 30 -65 30 -71 0 -6 7 -17 15 -24 22 -19 41 1 26 27 -8 17 -6 22 16 34 44 24 50 77 12 118 -23 24 -61 26 -101 4z m78 -47 c7 -29 -1 -46 -21 -46 -18 0 -38 37 -31 56 9 24 45 17 52 -10z"/>
<path d="M8360 4975 c0 -9 7 -29 15 -46 18 -33 13 -49 -15 -49 -12 0 -23 14 -34 40 -16 40 -42 53 -52 26 -4 -11 -13 -11 -45 -3 -46 11 -47 11 -55 -30 -5 -26 -2 -32 15 -38 12 -3 21 -13 21 -20 0 -8 11 -26 24 -42 21 -25 26 -26 51 -15 31 14 29 34 -5 42 -32 8 -48 35 -34 58 19 30 39 25 54 -13 20 -52 43 -61 91 -39 44 22 47 34 19 98 -20 44 -50 63 -50 31z"/>
<path d="M8084 4867 c-23 -20 -26 -28 -20 -60 11 -60 90 -85 127 -41 17 20 -5 44 -23 26 -14 -14 -48 -16 -48 -3 0 5 14 14 30 20 36 12 40 43 8 65 -30 21 -42 20 -74 -7z"/>
<path d="M7945 4868 c-48 -26 -58 -65 -24 -97 18 -16 30 -19 65 -14 37 5 44 3 44 -11 0 -10 -11 -19 -30 -22 -33 -7 -55 -28 -45 -44 16 -26 95 11 109 53 14 40 -15 67 -71 67 -50 0 -55 13 -13 35 17 9 30 22 30 30 0 18 -36 19 -65 3z"/>
<path d="M6905 4429 c-11 -17 67 -180 85 -177 10 2 14 12 12 32 -4 28 -3 28 19 12 13 -9 31 -16 41 -16 28 0 21 27 -13 47 -30 18 -31 22 -18 73 3 10 -3 15 -16 15 -12 0 -21 -9 -25 -24 -9 -38 -23 -35 -42 9 -16 40 -31 50 -43 29z"/>
<path d="M6842 4340 c-28 -26 -28 -69 -1 -104 23 -30 47 -33 89 -11 43 22 38 39 -9 31 -28 -4 -42 -2 -51 9 -17 20 -9 48 18 60 12 5 22 15 22 22 0 20 -44 15 -68 -7z"/>
<path d="M6708 4289 c-20 -11 -24 -39 -7 -39 6 0 19 5 30 10 15 8 19 7 19 -4 0 -8 -9 -17 -19 -21 -27 -8 -34 -34 -16 -61 18 -29 36 -30 78 -6 46 25 48 30 18 81 -22 36 -33 47 -57 48 -16 2 -37 -2 -46 -8z m72 -78 c0 -14 -18 -23 -30 -16 -6 4 -8 11 -5 16 8 12 35 12 35 0z"/>
<path d="M6593 4273 c-7 -3 -13 -16 -13 -29 0 -20 -5 -24 -28 -24 -15 0 -33 5 -40 12 -8 8 -14 5 -22 -16 -13 -34 -13 -56 0 -56 5 0 21 -18 35 -40 31 -50 50 -58 75 -35 23 21 18 35 -14 35 -33 0 -51 42 -27 64 24 22 48 20 56 -3 3 -11 15 -31 26 -45 17 -22 23 -24 44 -14 32 14 32 38 2 38 -34 0 -54 46 -31 71 16 17 16 19 -2 25 -11 3 -26 9 -34 13 -8 4 -21 6 -27 4z"/>
<path d="M6367 4188 c-7 -21 5 -182 14 -192 13 -14 39 13 39 41 0 31 38 47 62 26 10 -9 25 -13 33 -9 13 5 4 20 -47 76 -61 66 -91 84 -101 58z m61 -76 c2 -7 -3 -12 -12 -12 -9 0 -16 7 -16 16 0 17 22 14 28 -4z"/>
<path d="M3133 4153 c-11 -15 -23 -41 -26 -58 -11 -53 -27 -129 -37 -175 -44 -187 -49 -178 117 -218 189 -47 234 -42 249 26 3 15 9 41 14 57 4 17 13 57 20 90 6 33 17 78 23 100 18 62 15 115 -8 128 -25 15 -83 31 -210 58 -112 24 -121 23 -142 -8z m133 -72 c16 -5 64 -17 107 -26 42 -10 79 -21 82 -25 2 -3 -4 -40 -15 -81 -23 -90 -25 -99 -41 -171 -6 -32 -18 -59 -27 -63 -8 -3 -42 1 -76 9 -33 8 -87 20 -118 27 -62 13 -66 19 -49 75 5 16 14 56 21 89 7 33 16 74 20 90 5 17 11 42 14 58 7 30 29 35 82 18z"/>
<path d="M3726 3978 c-9 -12 -16 -29 -16 -38 0 -8 -7 -45 -16 -83 -16 -64 -16 -68 1 -87 10 -11 27 -20 38 -20 11 0 36 -5 54 -12 29 -11 36 -10 53 7 10 11 24 43 30 70 7 28 16 65 22 84 14 48 -3 74 -58 89 -65 17 -91 15 -108 -10z m57 -25 c4 -3 -2 -12 -13 -20 -12 -9 -21 -27 -22 -46 l-1 -32 -4 32 c-6 46 19 88 40 66z m61 -51 c2 -4 -3 -33 -11 -65 -11 -40 -21 -57 -33 -57 -27 0 -39 20 -30 49 5 14 11 38 14 54 5 20 12 27 31 27 13 0 26 -4 29 -8z"/>
<path d="M4378 3266 c-22 -11 -26 -24 -49 -126 -18 -83 5 -107 106 -112 44 -3 50 0 62 24 7 14 17 48 22 75 5 26 12 55 16 64 16 42 -106 100 -157 75z m45 -46 c-13 -5 -25 -21 -28 -37 -4 -15 -10 -37 -15 -48 -5 -11 -11 -29 -13 -40 -4 -15 -5 -13 -6 7 0 15 4 30 9 33 6 3 10 23 10 44 0 45 5 51 39 50 25 0 25 -1 4 -9z m46 -40 c16 -8 17 -14 7 -55 -15 -58 -27 -70 -56 -55 -17 9 -20 17 -15 37 3 14 9 38 12 54 6 30 22 36 52 19z"/>
<path d="M2952 3220 c-30 -12 -35 -27 -73 -200 -14 -63 -29 -120 -39 -154 -12 -38 11 -84 48 -92 15 -3 59 -14 97 -24 169 -42 184 -44 209 -30 26 13 37 36 55 110 9 40 18 79 52 240 8 38 6 49 -9 69 -19 26 -33 32 -127 51 -33 7 -73 16 -90 20 -56 15 -100 19 -123 10z m58 -37 c-8 -3 -23 -10 -32 -15 -13 -6 -18 -5 -18 7 0 10 10 15 33 14 17 0 25 -3 17 -6z m70 -57 c30 -7 81 -19 113 -26 l59 -14 -5 -40 c-2 -23 -11 -68 -20 -101 -9 -33 -22 -87 -30 -120 -14 -59 -15 -60 -48 -59 -19 1 -56 6 -84 13 -27 6 -70 14 -93 18 -52 7 -59 20 -44 82 6 25 21 89 33 141 12 52 23 101 25 108 4 16 27 15 94 -2z"/>
<path d="M3477 2934 c-15 -15 -27 -37 -27 -50 0 -13 -7 -49 -15 -80 -17 -67 -11 -82 41 -100 83 -29 124 -12 137 56 3 14 11 51 18 82 11 52 10 60 -5 77 -9 10 -34 21 -54 24 -20 3 -44 8 -53 11 -10 4 -26 -3 -42 -20z m63 -33 c-19 -5 -29 -19 -42 -56 -16 -46 -17 -47 -18 -18 0 17 4 43 10 57 8 21 16 26 42 25 30 -1 31 -2 8 -8z m35 -45 c17 -12 18 -17 7 -40 -7 -15 -12 -38 -12 -51 0 -25 -14 -34 -43 -27 -16 4 -18 11 -12 51 7 49 21 81 33 81 5 0 17 -6 27 -14z"/>
<path d="M5566 3913 c-21 -71 -35 -158 -27 -166 17 -17 89 -25 113 -13 17 9 23 21 24 46 0 19 5 46 11 60 18 43 -8 72 -79 85 -30 6 -37 4 -42 -12z m84 -38 c6 -8 9 -19 5 -25 -9 -14 -52 -13 -58 3 -12 34 29 51 53 22z m-10 -80 c17 -21 1 -38 -31 -33 -16 2 -25 11 -27 26 -3 18 1 22 21 22 14 0 30 -7 37 -15z"/>
<path d="M5754 3872 c-26 -18 -44 -60 -44 -103 0 -39 5 -51 26 -68 38 -30 89 -28 119 5 44 47 42 139 -4 163 -23 13 -81 14 -97 3z m79 -36 c37 -28 9 -116 -37 -116 -47 0 -64 56 -32 105 18 28 42 31 69 11z"/>
<path d="M5942 3822 c-27 -21 -46 -82 -37 -123 8 -33 52 -69 87 -69 47 1 88 53 88 114 0 48 -8 65 -41 81 -37 20 -69 19 -97 -3z m93 -42 c16 -18 17 -23 4 -57 -12 -30 -21 -39 -42 -41 -36 -4 -57 13 -57 47 0 61 58 92 95 51z"/>
<path d="M6115 3800 c-8 -13 3 -30 20 -30 23 0 25 -15 10 -66 -19 -62 -19 -104 -1 -104 22 0 33 22 40 80 8 66 15 78 41 76 11 0 21 4 22 9 4 19 -122 52 -132 35z"/>
<path d="M7150 3486 c-13 -17 -40 -137 -40 -182 0 -25 5 -33 23 -37 12 -2 29 -7 37 -11 29 -11 42 12 61 105 10 52 18 97 19 101 0 10 -55 38 -73 38 -8 0 -20 -6 -27 -14z m54 -85 c10 -15 -12 -61 -28 -61 -21 0 -29 17 -22 46 6 24 39 34 50 15z"/>
<path d="M7322 3433 c-12 -23 -24 -96 -26 -152 -1 -42 1 -44 35 -56 47 -17 59 -8 71 51 5 27 14 67 18 89 9 44 -2 67 -22 47 -20 -20 -38 -14 -38 13 0 29 -25 34 -38 8z m58 -85 c0 -33 -14 -50 -33 -42 -29 11 -17 64 14 64 13 0 19 -7 19 -22z"/>
<path d="M7490 3406 c0 -7 12 -16 28 -19 15 -3 45 -10 67 -15 22 -6 65 -15 95 -22 53 -12 89 -20 175 -40 22 -6 63 -15 90 -20 28 -5 68 -14 90 -19 22 -6 60 -14 85 -20 25 -5 52 -11 60 -13 9 -2 15 5 15 17 0 14 -8 21 -25 23 -14 1 -43 7 -65 13 -54 14 -100 25 -165 39 -30 6 -71 15 -90 20 -19 5 -62 14 -95 21 -33 6 -93 20 -132 30 -87 23 -133 24 -133 5z"/>
<path d="M8347 3294 c-7 -13 -37 -133 -37 -151 0 -25 44 -12 48 15 2 12 7 22 11 22 11 0 41 -34 41 -47 0 -6 7 -16 15 -23 23 -19 40 1 24 28 -12 18 -10 24 10 46 31 33 26 76 -12 94 -36 18 -93 26 -100 16z m98 -55 c6 -6 4 -15 -6 -24 -12 -12 -22 -14 -42 -6 -26 10 -35 30 -20 45 9 8 54 -1 68 -15z"/>
<path d="M7471 3266 c-16 -18 2 -29 69 -45 30 -6 71 -16 90 -20 51 -13 217 -51 275 -63 58 -12 104 -22 161 -37 57 -15 94 -14 94 3 0 16 -18 24 -80 36 -25 5 -88 18 -140 30 -136 31 -175 39 -222 49 -80 16 -193 43 -215 51 -14 6 -25 5 -32 -4z"/>
<path d="M8516 3249 c-2 -8 -12 -43 -21 -78 -16 -62 -16 -65 1 -78 27 -20 83 -27 110 -14 32 14 57 73 49 112 -8 36 -41 59 -94 66 -30 4 -42 2 -45 -8z m85 -39 c44 -24 7 -102 -45 -93 -28 6 -31 17 -20 72 7 33 28 40 65 21z"/>
<path d="M8673 3139 c-15 -64 -17 -82 -7 -86 20 -8 34 6 34 33 0 23 3 25 38 22 36 -3 37 -4 34 -40 -3 -40 13 -58 32 -37 16 17 40 144 31 158 -11 19 -26 12 -36 -19 -18 -50 -84 -37 -77 16 2 20 -2 30 -13 32 -12 2 -20 -16 -36 -79z"/>
<path d="M8973 3148 c-18 -22 -45 -140 -34 -151 15 -15 41 0 41 23 0 33 30 23 46 -15 18 -44 49 -49 39 -7 -4 20 -1 33 10 42 13 11 15 8 15 -17 0 -41 25 -71 66 -79 51 -9 78 7 93 55 16 55 0 90 -52 110 -35 13 -40 13 -67 -8 -22 -15 -30 -18 -30 -8 0 19 -29 43 -62 51 -14 3 -33 8 -40 11 -8 3 -20 0 -25 -7z m86 -52 c9 -10 8 -16 -4 -26 -19 -16 -65 1 -65 25 0 19 53 20 69 1z m155 -38 c27 -43 -31 -99 -70 -67 -14 11 -12 56 3 82 8 14 55 3 67 -15z"/>
<path d="M7282 3108 c-6 -7 -13 -30 -17 -50 -8 -40 -27 -50 -43 -21 -8 13 -26 17 -80 19 -82 3 -100 -9 -109 -76 -6 -40 -6 -41 -44 -38 -40 2 -56 -6 -59 -32 -5 -37 1 -50 31 -57 40 -11 33 -28 -11 -28 -29 0 -36 -5 -44 -29 -9 -24 -7 -31 13 -47 13 -10 32 -19 43 -19 11 0 16 -5 13 -10 -4 -6 -21 -8 -40 -4 -28 5 -36 2 -50 -19 -21 -33 -7 -63 35 -72 17 -4 30 -13 30 -22 0 -11 -7 -13 -31 -8 -22 5 -36 2 -50 -11 -35 -31 -21 -67 31 -77 22 -4 21 -4 -7 -6 -70 -3 -83 -64 -20 -94 48 -22 47 -30 -1 -22 -46 7 -65 -9 -60 -52 2 -22 10 -30 36 -38 48 -14 42 -37 -7 -29 -33 5 -41 3 -51 -15 -16 -32 -3 -60 32 -69 50 -13 49 -34 -1 -26 -34 5 -41 4 -41 -10 0 -10 11 -19 30 -23 47 -9 47 -24 1 -21 -49 2 -64 -10 -59 -48 2 -23 10 -31 36 -39 42 -12 41 -26 -2 -23 -41 2 -66 -16 -66 -48 0 -25 34 -54 62 -54 21 0 21 4 7 -59 -9 -45 -8 -55 10 -84 31 -50 108 -76 138 -46 7 7 18 9 26 6 12 -5 13 -14 5 -53 -10 -44 -9 -49 12 -66 12 -10 26 -18 31 -18 20 0 49 42 49 70 0 17 4 30 9 30 5 0 8 -23 7 -52 -1 -49 1 -53 27 -62 24 -9 31 -7 43 9 8 10 14 31 14 46 0 14 7 32 15 39 13 10 15 9 15 -8 0 -11 -5 -33 -10 -48 -13 -34 10 -64 51 -64 24 0 30 6 38 38 6 20 11 43 11 50 0 6 7 12 16 12 10 0 14 -6 10 -17 -3 -10 -8 -35 -12 -55 -5 -34 -3 -39 20 -50 34 -15 56 5 65 58 3 21 12 39 19 42 15 5 15 -22 0 -66 -12 -31 -11 -35 11 -53 21 -17 26 -18 45 -6 12 8 27 36 34 62 10 33 17 44 22 35 5 -8 3 -28 -6 -48 -20 -50 7 -92 47 -71 11 6 22 2 34 -11 34 -37 66 -19 74 41 3 23 12 44 19 47 11 3 12 -7 7 -50 -8 -60 6 -82 47 -76 17 2 25 14 38 56 17 61 32 62 19 1 -13 -55 2 -81 44 -77 25 2 33 9 41 33 4 17 13 41 18 55 l10 24 16 -21 c45 -57 171 -43 191 21 5 17 11 42 13 56 3 22 8 25 45 25 47 0 49 1 58 36 7 30 -15 59 -44 59 -10 0 -24 7 -31 15 -11 13 -6 15 36 13 44 -3 49 -1 58 24 12 34 -14 68 -51 68 -13 0 -22 4 -18 9 3 5 21 7 39 4 29 -4 37 -1 51 21 25 38 13 72 -30 87 -48 18 -44 27 13 31 47 3 47 3 50 41 3 35 1 38 -40 57 l-42 19 49 3 c49 3 50 3 53 39 3 34 1 37 -40 53 -31 12 -39 19 -29 25 7 5 26 4 43 -3 26 -9 32 -8 44 8 28 40 6 86 -42 86 -15 0 -24 6 -24 16 0 14 7 15 39 10 29 -4 44 -2 55 10 33 32 8 84 -40 84 -15 0 -24 6 -24 15 0 12 8 14 38 9 45 -7 65 10 60 53 -2 22 -10 30 -35 37 -51 15 -48 32 5 32 41 -1 47 2 56 26 12 34 -12 65 -53 70 -20 2 -25 8 -22 23 10 59 6 98 -14 109 -11 6 -33 21 -48 34 -31 24 -76 29 -94 11 -20 -20 -32 -1 -22 34 5 17 9 37 9 44 0 19 -30 43 -54 43 -19 0 -27 -10 -44 -52 l-21 -53 0 47 c-1 28 5 52 14 61 12 13 6 17 -53 32 -37 10 -87 21 -112 25 -63 10 -327 67 -375 81 -100 30 -155 11 -155 -53 0 -18 -5 -28 -15 -28 -11 0 -13 10 -8 51 4 38 2 53 -8 60 -20 13 -55 11 -67 -3z m45 -44 c3 -8 0 -27 -7 -42 -9 -21 -13 -24 -20 -12 -10 18 -1 70 11 70 6 0 12 -7 16 -16z m113 -37 c0 -29 -15 -51 -29 -43 -14 9 -14 17 -1 51 11 30 30 25 30 -8z m54 -5 c-4 -15 -13 -34 -20 -42 -12 -12 -14 -11 -14 7 0 33 19 75 30 68 6 -3 7 -18 4 -33z m105 6 c-1 -7 -5 -24 -9 -38 -7 -22 -8 -21 -9 13 -1 20 4 37 9 37 6 0 10 -6 9 -12z m-49 -17 c0 -30 -11 -51 -26 -51 -15 0 -18 27 -8 54 9 22 34 20 34 -3z m-375 -16 c85 -19 124 -27 240 -53 50 -11 144 -32 210 -47 66 -14 161 -35 210 -47 201 -45 254 -57 350 -78 55 -12 106 -24 113 -26 16 -5 15 -44 -3 -129 -8 -39 -25 -115 -36 -170 -12 -55 -25 -116 -29 -135 -26 -116 -62 -292 -78 -382 -6 -31 -18 -87 -27 -125 -16 -67 -23 -100 -47 -221 -7 -34 -15 -67 -18 -73 -4 -6 -33 -3 -81 9 -41 11 -99 25 -129 31 -30 7 -71 16 -90 21 -39 11 -231 53 -360 80 -95 20 -237 52 -320 73 -30 8 -82 20 -115 26 -120 25 -146 35 -139 51 6 16 17 69 34 155 5 28 14 73 20 100 16 70 26 121 39 185 6 30 15 73 20 95 5 22 18 83 29 135 50 232 85 398 93 435 5 22 12 55 15 73 8 37 7 37 99 17z m475 -8 c0 -13 -6 -32 -14 -43 -14 -18 -15 -18 -21 -1 -10 25 3 67 20 67 9 0 15 -9 15 -23z m52 11 c-7 -7 -12 -25 -12 -40 0 -15 -4 -28 -10 -28 -12 0 -12 7 -4 49 4 19 13 31 22 31 13 0 13 -3 4 -12z m102 -6 c7 -12 -16 -82 -27 -82 -5 0 -7 10 -3 23 3 12 6 32 6 45 0 22 14 30 24 14z m-54 -31 c0 -31 -24 -59 -35 -41 -3 6 -4 24 0 40 9 39 35 40 35 1z m110 -24 c0 -31 -15 -51 -33 -44 -10 4 -14 13 -10 29 12 49 43 60 43 15z m130 17 c0 -21 -24 -94 -31 -94 -10 0 -12 44 -3 78 5 19 34 33 34 16z m-62 -30 c4 -27 -23 -62 -37 -48 -8 7 -8 19 0 43 12 34 32 37 37 5z m107 -14 c9 -15 -6 -60 -21 -60 -14 0 -20 51 -7 63 9 10 21 9 28 -3z m-1025 -21 c0 -15 -4 -19 -16 -15 -9 3 -18 6 -20 6 -2 0 -4 7 -4 15 0 8 9 15 20 15 14 0 20 -7 20 -21z m1130 -22 c0 -29 -15 -51 -29 -43 -14 9 -14 17 -1 51 11 30 30 25 30 -8z m-1150 -93 c0 -17 -36 -19 -46 -3 -8 14 14 29 33 22 7 -3 13 -11 13 -19z m-22 -111 c2 -8 -6 -13 -22 -13 -17 0 -26 5 -26 16 0 19 41 16 48 -3z m1411 -67 c9 -10 8 -15 -4 -20 -17 -6 -45 2 -45 13 0 23 32 28 49 7z m-1448 -37 c20 -10 17 -29 -4 -29 -21 0 -40 17 -33 29 9 14 12 14 37 0z m1413 -65 c25 -10 19 -34 -9 -34 -24 0 -34 18 -18 33 8 8 8 8 27 1z m-1426 -47 c2 -11 -3 -17 -17 -17 -23 0 -35 15 -26 31 10 15 39 6 43 -14z m1412 -92 c0 -9 -9 -15 -25 -15 -16 0 -25 6 -25 15 0 9 9 15 25 15 16 0 25 -6 25 -15z m-1446 -1 c25 -10 19 -34 -9 -34 -24 0 -34 18 -18 33 8 8 8 8 27 1z m1424 -123 c-2 -10 -11 -15 -23 -13 -26 5 -29 8 -22 26 8 20 49 9 45 -13z m-1440 -14 c2 -10 -3 -17 -11 -17 -18 0 -39 24 -30 34 12 12 38 2 41 -17z m1403 -88 c23 -12 16 -29 -11 -29 -21 0 -34 15 -25 30 8 13 12 12 36 -1z m-1433 -76 c2 -8 -6 -13 -22 -13 -17 0 -26 5 -26 16 0 19 41 16 48 -3z m1410 -35 c18 -18 14 -38 -7 -38 -23 0 -35 15 -27 35 7 18 18 19 34 3z m-1441 -73 c3 -9 3 -18 0 -21 -9 -9 -48 16 -42 27 9 14 35 11 42 -6z m1428 -65 c0 -9 -11 -16 -27 -18 -23 -3 -28 1 -28 18 0 17 5 21 28 18 16 -2 27 -9 27 -18z m-44 -110 c26 -15 24 -30 -5 -30 -27 0 -41 14 -31 30 8 13 12 12 36 0z m-1157 -107 c-9 -35 -13 -43 -25 -43 -10 0 -13 53 -2 63 17 18 33 6 27 -20z m106 -12 c0 -30 -11 -51 -26 -51 -15 0 -17 12 -8 48 8 27 34 30 34 3z m1024 3 c23 -9 20 -34 -3 -34 -22 0 -35 15 -26 30 7 12 8 12 29 4z m-912 -16 c8 -22 -7 -63 -22 -63 -8 0 -15 6 -14 13 1 6 2 23 3 37 1 26 25 35 33 13z m108 -38 c0 -29 -11 -50 -26 -50 -16 0 -18 19 -4 55 11 28 30 25 30 -5z m104 -8 c8 -13 -9 -65 -22 -70 -13 -4 -18 59 -5 71 9 9 21 9 27 -1z m111 -54 c-4 -18 -11 -37 -16 -42 -15 -17 -27 7 -22 42 4 23 10 32 25 32 17 0 19 -5 13 -32z m60 12 c10 -17 -5 -70 -21 -70 -9 0 -14 11 -14 33 0 43 19 63 35 37z m115 -34 c0 -8 -5 -27 -10 -42 -15 -37 -34 -17 -25 25 7 31 35 44 35 17z m104 -33 c-10 -46 -13 -53 -24 -53 -11 0 -14 63 -3 73 17 18 33 6 27 -20z"/>
<path d="M7430 2672 c-50 -5 -60 -18 -60 -77 0 -52 19 -90 59 -121 12 -10 11 -13 -10 -24 -36 -19 -69 -52 -69 -69 0 -8 -18 -31 -40 -51 -46 -40 -60 -86 -39 -135 7 -16 13 -53 14 -80 2 -60 20 -92 73 -124 21 -13 47 -36 57 -52 35 -52 100 -64 157 -29 18 11 49 20 68 20 48 0 93 30 115 76 10 22 33 56 51 77 40 43 46 99 16 138 -11 14 -19 43 -20 68 -1 32 -8 51 -27 71 l-26 27 33 13 c51 20 118 106 118 151 0 10 -77 49 -97 49 -7 0 -22 5 -32 12 -26 16 -99 -7 -128 -40 l-21 -25 -15 35 c-24 58 -101 97 -177 90z m126 -76 c35 -35 43 -63 22 -84 -9 -9 -21 -2 -53 35 -23 26 -47 44 -55 41 -10 -3 -1 -18 30 -52 49 -53 45 -73 -14 -62 -37 7 -68 44 -81 98 -12 48 -1 58 61 58 50 0 59 -3 90 -34z m263 -42 c35 -18 37 -24 16 -64 -31 -60 -114 -90 -160 -56 -18 13 -17 15 15 35 19 11 42 21 51 21 16 0 39 19 39 33 0 12 -60 -2 -85 -19 -49 -34 -77 3 -32 43 38 36 93 38 156 7z m-186 -97 c6 -16 3 -18 -26 -12 -46 10 -48 13 -24 38 19 19 23 20 33 7 6 -8 14 -23 17 -33z m-153 -42 c0 -14 -34 -36 -77 -49 -30 -9 -30 10 -1 41 25 26 78 32 78 8z m152 -12 c48 -43 -13 -85 -79 -54 -43 19 -50 41 -21 64 26 21 70 17 100 -10z m126 -67 c18 -37 21 -55 12 -61 -17 -10 -86 76 -76 94 10 15 52 -7 64 -33z m-239 -20 c33 -35 22 -89 -22 -116 -42 -26 -59 -25 -91 5 -35 32 -34 69 3 106 37 37 79 38 110 5z m-169 -38 c0 -18 -9 -44 -20 -58 -17 -21 -21 -23 -30 -10 -11 16 -4 68 12 88 20 23 38 13 38 -20z m349 1 c37 -36 40 -75 10 -113 -27 -34 -68 -34 -103 0 -35 35 -35 86 -1 119 32 33 57 31 94 -6z m101 -148 c-21 -51 -40 -39 -40 23 0 63 18 78 39 35 12 -23 12 -33 1 -58z m-371 25 c9 -10 9 -16 1 -21 -6 -4 -12 -5 -13 -4 -2 2 -9 12 -16 22 -11 14 -11 17 2 17 8 0 20 -6 26 -14z m-45 -27 c29 -34 34 -80 11 -99 -12 -10 -18 -10 -32 1 -33 26 -42 44 -43 80 0 59 24 66 64 18z m190 10 c32 -25 34 -64 4 -96 -29 -31 -72 -30 -103 2 -68 67 23 154 99 94z m161 -68 c7 -22 -7 -63 -26 -77 -59 -44 -109 -32 -89 21 22 60 101 99 115 56z m-289 -59 c-8 -9 -19 -13 -22 -9 -10 9 16 38 28 31 6 -4 4 -13 -6 -22z m71 -33 c15 -5 31 -15 35 -22 9 -15 -10 -37 -34 -37 -27 0 -78 28 -78 44 0 28 28 34 77 15z"/>
<path d="M8854 3099 c-8 -14 5 -26 37 -34 27 -7 49 10 33 25 -16 14 -63 20 -70 9z"/>
<path d="M9274 3043 c-4 -21 -9 -42 -12 -48 -14 -24 -11 -65 6 -73 35 -19 87 -22 108 -8 17 12 20 25 20 77 -1 57 -3 65 -26 76 -14 7 -39 13 -57 13 -29 0 -33 -3 -39 -37z m80 1 c19 -7 21 -30 4 -37 -23 -8 -58 11 -52 28 6 16 22 19 48 9z m1 -84 c0 -19 -45 -26 -56 -9 -12 20 0 30 29 27 16 -2 27 -9 27 -18z"/>
<path d="M9436 3029 c-22 -18 -26 -28 -26 -74 0 -63 21 -85 82 -85 43 0 62 21 72 82 9 47 -5 73 -45 87 -44 15 -52 14 -83 -10z m78 -25 c33 -12 12 -94 -24 -94 -34 0 -50 12 -50 37 0 52 29 74 74 57z"/>
<path d="M9582 3013 c-9 -3 -4 -11 16 -23 l30 -18 -14 -58 c-14 -60 -12 -74 10 -74 13 0 36 69 36 109 0 17 6 21 31 21 46 0 31 22 -27 37 -53 14 -62 14 -82 6z"/>
<path d="M9735 2977 c-2 -6 -9 -42 -16 -80 -10 -51 -10 -70 -1 -79 15 -15 37 36 46 108 5 42 3 53 -9 58 -9 3 -17 0 -20 -7z"/>
<path d="M6164 2945 c-7 -19 -14 -48 -14 -64 0 -16 -4 -33 -10 -36 -5 -3 -10 -26 -10 -50 0 -43 1 -45 39 -56 51 -15 67 -8 75 31 7 39 1 50 -28 50 -30 0 -47 20 -39 48 6 23 28 28 52 13 25 -16 51 6 51 43 0 29 -5 36 -31 45 -53 18 -69 14 -85 -24z m38 -167 c-9 -9 -15 -9 -24 0 -9 9 -7 12 12 12 19 0 21 -3 12 -12z"/>
<path d="M9819 2963 c-23 -6 -49 -57 -49 -95 0 -48 34 -78 88 -78 57 0 56 24 -2 39 -50 12 -56 23 -44 70 9 34 9 34 59 28 38 -5 49 -3 49 8 0 12 -62 38 -80 34 -3 -1 -12 -3 -21 -6z"/>
<path d="M9948 2930 c-41 -25 -8 -100 44 -100 10 0 18 -7 18 -16 0 -14 -8 -16 -51 -10 -45 6 -50 5 -47 -11 4 -19 69 -37 105 -28 48 12 41 73 -12 98 -48 23 -46 41 4 32 39 -6 63 7 45 25 -15 15 -88 21 -106 10z"/>
<path d="M6382 2891 c-13 -37 -6 -47 47 -61 40 -10 46 -10 58 6 33 46 6 84 -60 84 -30 0 -37 -5 -45 -29z"/>
<path d="M6613 2878 c4 -12 0 -29 -7 -38 -13 -14 -24 -69 -29 -149 -2 -32 1 -35 41 -49 54 -18 61 -11 71 59 4 30 11 60 15 68 5 7 10 38 12 68 l3 54 -29 -6 c-16 -3 -31 -2 -35 4 -3 6 -15 11 -27 11 -16 0 -19 -5 -15 -22z m57 -113 c17 -21 5 -45 -24 -45 -25 0 -39 20 -30 45 8 19 38 19 54 0z"/>
<path d="M8696 2798 c-8 -13 -19 -48 -25 -78 -9 -50 -8 -57 11 -72 11 -10 32 -18 45 -18 14 0 42 -4 62 -10 124 -33 173 -41 186 -30 18 15 39 138 26 154 -10 11 -47 22 -163 47 -29 6 -66 15 -82 20 -41 13 -44 12 -60 -13z m54 -68 c0 -27 -5 -43 -15 -47 -22 -8 -24 -3 -18 45 8 56 33 58 33 2z m128 8 c37 -11 36 -8 20 -60 -10 -33 -15 -38 -32 -34 -12 3 -38 9 -59 12 l-38 7 7 41 c9 58 16 60 102 34z m80 -68 c-6 -22 -14 -40 -19 -40 -17 0 -20 21 -8 60 9 30 15 37 24 30 10 -8 10 -21 3 -50z"/>
<path d="M6354 2767 c-3 -8 -4 -28 -2 -43 2 -24 9 -30 41 -37 49 -12 64 -5 72 33 9 40 2 47 -57 55 -38 6 -49 4 -54 -8z"/>
<path d="M6101 2681 c-6 -10 -12 -37 -13 -61 -3 -41 -2 -42 40 -56 24 -9 48 -14 54 -12 12 4 38 74 38 105 0 17 -9 24 -37 32 -54 15 -71 14 -82 -8z m66 -29 c16 -10 5 -52 -13 -52 -18 0 -28 24 -20 45 6 17 15 19 33 7z"/>
<path d="M6321 2619 c-13 -36 -15 -96 -3 -102 4 -3 28 -7 53 -11 46 -7 47 -6 58 25 6 18 11 47 11 65 0 35 -4 37 -71 49 -34 6 -37 5 -48 -26z m65 -27 c6 -4 8 -16 4 -26 -4 -13 -9 -16 -14 -8 -3 6 -13 9 -21 5 -18 -6 -20 8 -3 25 14 14 19 14 34 4z"/>
<path d="M6541 2568 c-5 -18 -11 -55 -13 -82 l-3 -49 43 -15 c53 -17 61 -11 79 56 25 97 13 122 -61 122 -30 0 -36 -4 -45 -32z m74 -38 c0 -18 -6 -26 -22 -28 -18 -3 -23 1 -23 21 0 28 9 39 30 35 9 -2 15 -14 15 -28z"/>
<path d="M8591 2507 c-6 -8 -13 -29 -17 -48 -3 -19 -14 -70 -24 -114 -10 -44 -23 -107 -30 -140 -26 -138 -31 -163 -45 -224 -15 -67 -9 -91 21 -91 8 0 70 -13 139 -30 188 -45 184 -47 204 75 7 39 19 99 27 135 8 36 19 85 24 110 5 25 19 89 31 142 24 105 22 125 -13 132 -13 2 -82 18 -154 35 -149 36 -148 35 -163 18z m88 -41 c-12 -10 -59 -15 -59 -6 0 5 14 10 32 10 17 0 29 -2 27 -4z m119 -27 c13 -5 33 -9 46 -9 31 0 64 -26 50 -40 -7 -7 -16 -5 -29 10 -10 11 -31 20 -46 20 -40 0 -129 22 -129 32 0 9 71 0 108 -13z m-48 -34 c86 -18 141 -46 90 -45 -14 1 -69 11 -123 23 -78 18 -95 25 -85 35 7 7 17 11 23 9 5 -3 48 -12 95 -22z m-55 -45 c17 -4 58 -14 93 -21 60 -13 63 -15 58 -39 -3 -14 -16 -76 -30 -138 -13 -62 -26 -115 -29 -118 -3 -3 -20 -1 -39 4 -18 6 -51 15 -73 21 -124 31 -135 35 -131 51 10 34 35 148 41 185 12 81 13 81 110 55z m-62 -315 c32 -8 67 -15 77 -15 29 0 70 -22 70 -37 0 -23 -27 -26 -84 -8 -31 10 -64 15 -76 12 -11 -3 -20 -1 -20 4 0 5 -14 9 -30 9 -32 0 -47 18 -36 46 4 9 13 13 24 10 10 -3 44 -13 75 -21z m-67 -84 c16 -5 73 -19 127 -32 79 -18 97 -26 97 -41 0 -22 -9 -22 -80 -4 -30 7 -84 19 -120 26 -73 14 -85 22 -77 44 7 18 14 19 53 7z"/>
<path d="M6043 2429 c-6 -8 -14 -35 -17 -62 -7 -45 -6 -48 20 -57 15 -6 52 -15 83 -20 31 -5 70 -12 86 -15 44 -9 67 19 63 76 -3 43 -3 44 -43 47 -22 2 -55 10 -74 19 -49 22 -105 28 -118 12z m52 -68 c-3 -12 -11 -21 -16 -21 -10 0 -12 43 -2 54 12 12 25 -11 18 -33z m143 -20 c-3 -27 -3 -27 -79 -22 -20 1 -30 22 -23 48 5 18 10 19 55 10 46 -9 50 -12 47 -36z"/>
<path d="M6301 2361 c-6 -10 -12 -37 -13 -61 -3 -41 -2 -42 40 -56 55 -19 67 -10 76 58 6 44 4 55 -10 65 -27 20 -81 16 -93 -6z m64 -31 c9 -15 -4 -50 -20 -50 -18 0 -24 21 -13 43 10 19 24 22 33 7z"/>
<path d="M6496 2331 c-7 -10 -11 -110 -5 -115 2 -2 20 -6 41 -10 48 -9 68 11 68 68 0 36 -4 45 -25 54 -31 14 -72 16 -79 3z m65 -64 c-11 -30 -31 -33 -31 -4 0 28 7 37 25 30 9 -3 11 -11 6 -26z"/>
<path d="M5126 1969 c-43 -135 -48 -172 -24 -177 11 -2 18 6 23 27 10 45 41 42 49 -5 7 -35 26 -52 45 -40 6 4 6 16 0 35 -9 25 -7 33 10 50 26 26 27 72 2 95 -26 23 -99 34 -105 15z m86 -53 c9 -14 -10 -36 -32 -36 -28 0 -43 25 -30 49 9 18 14 20 33 10 12 -7 25 -17 29 -23z"/>
<path d="M5290 1925 c-18 -22 -15 -68 5 -80 40 -24 65 -47 59 -57 -3 -5 -27 -8 -53 -6 -63 4 -64 -21 -1 -39 41 -12 47 -11 70 5 39 30 34 71 -12 101 -54 35 -51 55 6 47 51 -8 67 5 34 28 -29 20 -92 21 -108 1z"/>
<path d="M5440 1902 c0 -11 11 -24 24 -30 l24 -11 -18 -67 c-20 -74 -19 -84 10 -84 15 0 21 12 30 58 16 82 16 82 50 82 41 0 43 37 3 46 -16 3 -44 10 -63 15 -50 13 -60 11 -60 -9z"/>
<path d="M8457 1743 c-4 -8 -21 -76 -30 -120 -3 -12 0 -28 7 -36 13 -16 279 -82 299 -74 8 3 22 37 31 77 20 82 15 96 -43 106 -20 3 -61 13 -91 21 -117 32 -166 39 -173 26z m53 -77 c0 -33 -23 -66 -34 -48 -3 5 -3 25 1 45 7 48 33 50 33 3z m109 12 c55 -12 60 -21 40 -77 -8 -22 -16 -30 -28 -27 -9 3 -33 8 -54 12 -46 8 -49 13 -41 63 7 45 10 46 83 29z m106 -65 c-8 -44 -13 -53 -26 -53 -10 0 -12 50 -3 74 3 9 13 16 21 16 12 0 14 -8 8 -37z"/>
<path d="M6653 1675 c-16 -12 -28 -65 -40 -168 -5 -46 -4 -47 30 -62 47 -19 65 -11 76 34 42 164 42 163 26 181 -20 22 -71 30 -92 15z m51 -112 c-10 -41 -21 -50 -40 -31 -23 23 -10 58 22 58 22 0 24 -3 18 -27z"/>
<path d="M6829 1543 c-6 -16 -13 -49 -16 -75 -6 -47 -5 -48 30 -63 56 -23 86 -20 99 13 20 50 26 111 12 123 -20 16 -32 3 -32 -35 0 -35 -17 -76 -31 -76 -17 0 -19 26 -4 69 11 33 12 46 2 57 -19 23 -48 17 -60 -13z"/>
<path d="M7908 1333 c-6 -16 -13 -55 -16 -88 -5 -74 14 -98 79 -98 51 0 64 14 84 88 20 78 19 97 -2 93 -12 -2 -22 -23 -33 -65 -17 -71 -30 -88 -58 -78 -30 9 -34 32 -18 100 8 33 12 63 10 67 -11 17 -35 7 -46 -19z"/>
<path d="M8107 1298 c-13 -10 -18 -24 -15 -48 2 -27 10 -37 41 -53 20 -10 37 -26 37 -34 0 -13 -9 -14 -49 -9 -34 4 -52 3 -57 -5 -20 -34 99 -55 130 -23 34 33 17 72 -47 104 -40 20 -27 35 26 33 32 -2 47 2 51 12 7 19 -3 24 -56 31 -29 4 -49 1 -61 -8z"/>
<path d="M8254 1243 c-3 -21 -12 -61 -19 -90 -16 -64 -8 -74 65 -81 62 -6 80 7 80 59 0 22 5 48 12 59 26 41 -30 90 -103 90 -25 0 -29 -5 -35 -37z m94 -35 c2 -12 -3 -18 -16 -18 -33 0 -51 11 -45 26 8 21 57 14 61 -8z m-14 -64 c21 -21 12 -34 -24 -34 -32 0 -45 13 -36 35 7 20 41 19 60 -1z"/>
<path d="M8501 1158 c-7 -35 -17 -75 -21 -91 -8 -24 -6 -29 21 -43 17 -8 48 -14 72 -12 34 2 45 9 64 37 24 36 30 89 13 122 -14 26 -62 49 -102 49 -33 0 -34 -1 -47 -62z m110 -4 c16 -20 2 -82 -21 -94 -28 -15 -73 -2 -65 19 4 9 9 32 12 51 4 19 10 38 16 41 13 9 44 0 58 -17z"/>
<path d="M8812 1148 c-6 -8 -15 -41 -21 -73 -6 -33 -13 -70 -17 -82 -5 -18 -1 -25 21 -33 36 -14 108 -13 123 2 7 7 12 27 12 45 0 17 5 43 11 57 15 33 -8 71 -48 79 -15 4 -37 9 -49 12 -12 4 -25 1 -32 -7z m84 -53 c16 -13 17 -16 4 -25 -29 -19 -67 -3 -57 24 8 20 27 20 53 1z m-8 -92 c4 -25 -16 -30 -49 -13 -32 18 -24 42 14 38 24 -2 33 -8 35 -25z"/>
<path d="M8682 1074 c4 -24 67 -39 75 -17 7 18 5 20 -40 28 -34 7 -39 5 -35 -11z"/>
<path d="M8966 1038 c3 -18 10 -49 15 -68 12 -48 13 -47 -22 -59 -38 -13 -34 -36 7 -36 24 0 36 11 81 75 29 41 52 81 53 88 0 26 -36 11 -54 -23 -23 -41 -34 -37 -42 16 -5 29 -11 39 -25 39 -15 0 -18 -5 -13 -32z"/>
<path d="M9132 1050 c-20 -16 -21 -22 -11 -39 10 -15 10 -28 2 -56 -11 -34 -10 -39 12 -61 13 -13 29 -24 35 -24 19 0 24 32 7 45 -21 15 -22 64 -2 70 51 16 49 14 26 38 -11 13 -21 29 -21 35 0 18 -22 14 -48 -8z"/>
<path d="M9249 991 c-69 -54 -25 -152 62 -139 32 4 26 21 -10 31 -52 13 -48 29 5 25 48 -3 49 -2 51 27 5 61 -59 95 -108 56z m61 -36 c0 -13 -4 -14 -20 -5 -11 6 -20 13 -20 15 0 3 9 5 20 5 11 0 20 -7 20 -15z"/>
<path d="M6410 3731 c-14 -34 -8 -49 27 -62 32 -12 59 3 67 37 9 34 -9 54 -49 54 -27 0 -35 -5 -45 -29z m65 -15 c0 -22 -14 -29 -34 -17 -19 12 -6 43 16 39 10 -2 18 -12 18 -22z"/>
<path d="M6555 3668 c-69 -38 -105 -99 -105 -178 0 -189 245 -261 348 -103 60 90 25 230 -69 278 -33 18 -145 19 -174 3z m153 -39 c47 -26 82 -82 82 -134 0 -78 -77 -156 -153 -155 -97 2 -169 98 -143 190 14 50 31 72 74 97 48 28 90 28 140 2z"/>
<path d="M6856 3654 c-19 -50 8 -89 57 -82 32 5 46 52 22 78 -22 24 -70 27 -79 4z m62 -31 c5 -18 -28 -29 -38 -12 -5 7 -6 17 -3 22 7 12 35 5 41 -10z"/>
<path d="M6347 3402 c-10 -10 -17 -33 -17 -50 0 -27 4 -32 38 -41 31 -9 39 -8 50 6 20 28 15 69 -13 87 -31 20 -38 20 -58 -2z m48 -42 c0 -8 -8 -16 -17 -18 -13 -2 -18 3 -18 18 0 15 5 20 18 18 9 -2 17 -10 17 -18z"/>
<path d="M6786 3288 c-20 -29 -20 -64 0 -72 57 -22 103 9 85 57 -16 42 -61 49 -85 15z m64 -33 c0 -17 -23 -25 -40 -15 -11 7 -11 11 -1 24 14 17 41 11 41 -9z"/>
<path d="M5870 2041 c-24 -46 -1 -90 47 -91 23 0 53 34 53 61 0 43 -80 67 -100 30z m60 -30 c0 -11 -5 -23 -11 -27 -15 -9 -33 12 -26 30 9 23 37 20 37 -3z"/>
<path d="M6028 1947 c-39 -18 -87 -66 -105 -106 -21 -43 -21 -137 0 -178 40 -76 145 -126 220 -103 105 30 157 96 157 196 0 112 -78 195 -187 201 -32 1 -70 -3 -85 -10z m161 -55 c49 -36 66 -70 66 -131 0 -72 -17 -106 -71 -137 -54 -32 -119 -32 -165 -1 -39 26 -79 90 -79 128 0 33 22 87 49 118 44 50 146 62 200 23z"/>
<path d="M6330 1924 c-6 -14 -10 -31 -10 -38 0 -21 34 -46 63 -46 20 0 28 7 36 33 14 41 7 63 -22 71 -41 11 -57 6 -67 -20z m64 -13 c9 -14 -4 -41 -19 -41 -15 0 -28 27 -19 41 3 5 11 9 19 9 8 0 16 -4 19 -9z"/>
<path d="M5780 1651 c-24 -46 -7 -76 48 -87 24 -5 32 -2 41 14 17 32 13 59 -11 76 -31 22 -65 20 -78 -3z m54 -17 c21 -8 20 -30 -1 -38 -21 -8 -38 8 -30 28 7 18 9 18 31 10z"/>
<path d="M6251 1541 c-25 -47 -3 -81 52 -81 18 0 28 8 37 31 18 41 4 63 -43 67 -27 2 -38 -2 -46 -17z m67 -33 c-5 -34 -38 -37 -38 -4 0 20 5 26 21 26 15 0 20 -5 17 -22z"/>
</g>
</svg>